<svg width="153" height="200" viewBox="0 0 153 200" fill="none" xmlns="http://www.w3.org/2000/svg">
<path d="M104.708 87.2865C96.4479 88.9219 87.8698 87.8854 85.5417 87.5261C85.4636 90.9636 84.5 94.3646 84.6198 97.7188C86.9063 95.401 93.3646 95.2396 93.3646 95.2396C105.594 95.5625 104.708 87.2865 104.708 87.2865Z" fill="white"/>
<path d="M83.9011 99.3177C83.2552 95.4427 84.7031 91.2813 84.9427 87.4427C84.8229 81.5261 82.375 74.9323 79.0469 75.1719C75.6771 75.4115 74.3125 83.7656 73.5521 88.5261C73.1511 90.9219 72.8334 93.8802 72.6302 96.2031C73.0729 99.5625 72.4688 103.12 72.1094 106.396C71.5886 110.755 71.1459 115.115 72.1511 119.474C72.2292 119.792 71.6667 119.911 71.5886 119.594C70.3073 115.115 70.8646 110.594 71.4271 106.078C71.3854 105.917 71.9896 102.521 65.6511 96.8438C64.4896 95.8021 63.5677 94.4427 62.9688 93.0052C62.2448 91.2813 62.0052 89.4063 61.7656 87.5625C61.1198 82.6458 60.0417 77.7708 59.6771 72.849C59.3959 69.0104 59.599 61.6563 59.599 61.6563C59.599 61.6563 59.7969 46.3802 59.599 44.4636C59.3959 42.5417 58.2344 36.9427 54.8646 37.0677C51.5 37.1875 50.8959 54.2604 50.7761 55.6979C50.6563 57.1354 50.7761 55.6979 50.2552 67.4115C49.7344 79.1302 50.7761 89.724 50.7761 89.724C50.7761 89.724 50.7344 89.8021 50.6979 89.9219C50.9375 93.0417 50.7344 96.2031 50.4948 99.3177C50.4583 99.6406 49.8959 99.6823 49.8959 99.3177C49.974 96.8802 50.0573 94.4844 49.974 92.0833C49.0104 95.2396 47.4896 100.839 48.0104 104.276C48.7292 109.276 61.1615 136.625 59.3959 146.542C57.5938 156.458 40.9531 193.323 40.9531 193.323L72.8334 189.724C72.8334 189.724 81.7709 160.578 84.5 154.74C87.2656 148.901 93 141.224 92.7604 130.146C92.5625 119.714 83.8594 103.797 83.9011 99.3177ZM74.9584 148.062C75.1146 147.859 75.3594 147.823 75.5573 147.979C75.7604 148.141 75.7969 148.38 75.6406 148.578C75.5156 148.781 75.2396 148.823 75.0781 148.661C74.875 148.5 74.8386 148.26 74.9584 148.062ZM74.3125 149.698C74.5156 149.422 74.875 149.38 75.1563 149.578C75.3958 149.781 75.4792 150.141 75.2761 150.422C75.0781 150.661 74.7136 150.74 74.4375 150.542C74.1927 150.339 74.1146 149.938 74.3125 149.698ZM73.5521 151.661C73.7917 151.297 74.3125 151.219 74.6771 151.5C75.0365 151.781 75.1146 152.26 74.8386 152.62C74.5938 152.979 74.0729 153.057 73.7136 152.781C73.3542 152.5 73.2709 152.021 73.5521 151.661ZM65.4948 182.286C65.25 182.286 65.0521 182.125 65.0521 181.885C65.0521 181.646 65.2136 181.448 65.4531 181.448C65.6927 181.448 65.8959 181.609 65.8959 181.849C65.8959 182.089 65.6927 182.286 65.4948 182.286ZM66.0156 180.766C65.6927 180.766 65.4115 180.526 65.375 180.208C65.375 179.891 65.6146 179.609 65.9323 179.568C66.2552 179.568 66.5365 179.807 66.5781 180.13C66.5781 180.448 66.3333 180.729 66.0156 180.766ZM66.6146 178.849C66.1771 178.891 65.8125 178.526 65.7761 178.089C65.7344 177.651 66.0938 177.286 66.5365 177.25C66.9792 177.208 67.3386 177.568 67.3802 178.01C67.3802 178.448 67.0573 178.849 66.6146 178.849ZM70.8281 174.688C70.5052 175.609 69.8229 176.25 68.9792 176.609C69.1823 176.411 69.3802 176.13 69.4636 175.807C69.8646 174.651 69.2604 173.411 68.099 173.01C66.9375 172.609 65.6927 173.208 65.2917 174.37C65.1719 174.688 65.1302 175.01 65.1719 175.292C64.7292 174.531 64.5729 173.573 64.8906 172.651C65.4531 171.01 67.2552 170.13 68.9011 170.693C70.5469 171.25 71.3854 173.052 70.8281 174.688ZM70.5469 168.615C68.7031 168.734 67.1354 167.333 67.0156 165.531C66.8958 163.693 68.3021 162.135 70.1042 162.016C71.9479 161.896 73.5104 163.297 73.6354 165.094C73.7552 166.932 72.349 168.495 70.5469 168.615ZM75.6771 158.057C74.875 159.578 72.9896 160.214 71.4688 159.417C69.9427 158.615 69.3021 156.74 70.1042 155.219C70.5469 154.38 71.3073 153.776 72.1875 153.578C71.9479 153.776 71.75 154.021 71.5886 154.297C71.0261 155.38 71.4688 156.698 72.5521 157.255C73.6354 157.818 74.9948 157.375 75.5156 156.297C75.6771 156.016 75.7604 155.698 75.7604 155.38C76.1198 156.255 76.1198 157.219 75.6771 158.057Z" fill="white"/>
<path d="M96.25 58.4583C96.25 58.4583 82.7761 60.9375 76.0417 64.8125C69.3438 68.6927 62.8854 76.1302 62.8854 76.1302C63.849 68.2552 68.9427 63.8125 71.9896 61.2552C74.9948 58.6979 78.1667 58.6146 83.1355 56.6979C88.5886 54.5781 87.4688 47.5833 87.4688 47.5833C87.4688 47.5833 79.125 49.8177 72.7917 52.3386C68.0573 54.2188 62.4844 58.8177 60.2396 60.8958C59.9584 65.0156 60.0417 68.7344 60.3177 72.8906C60.6823 77.8073 61.7657 82.6875 62.4063 87.6042C62.6875 89.6823 62.9688 91.8854 64.0104 93.724C64.8907 95.3229 66.2136 96.5625 67.5 97.8386C69.3438 99.6823 71.1094 101.599 71.6302 104.078C71.7865 102.521 71.9479 101 71.9479 99.4427C71.1459 97.599 69.1042 92.9219 67.9792 89.5625C66.5365 85.2865 71.6667 79.2083 71.6667 79.2083C71.6667 79.2083 77.3229 71.0104 80.6094 69.5729C83.4167 68.3333 88.8334 68.4948 93.4427 65.2917C98.0938 62.0573 96.25 58.4583 96.25 58.4583Z" fill="white"/>
<path d="M-10.0156 114.995C-10.0156 115.234 -9.61457 115.474 -9.49478 115.193C-8.53123 113.516 -4.88019 113.677 -3.1979 112.557C-2.67707 112.193 -2.31248 111.755 -1.83332 111.354C-0.348943 110.198 1.13543 109.797 2.85939 110.198C3.38022 110.516 12.2813 116.396 16.0521 119.193C15.6511 119.115 15.25 119.115 14.849 119.151C12.6823 118.75 10.6354 117.833 8.39064 118.234C7.34897 118.432 6.14585 118.672 5.3021 119.313C3.97918 120.354 3.57814 121.99 1.97397 122.75C1.97397 122.75 1.81772 122.833 1.85418 122.87C1.89585 122.87 5.10418 123.792 8.10939 123.031C9.31252 122.708 10.3542 122.109 11.4011 121.432C12.6042 120.63 13.2813 119.911 14.4479 119.672C15.0104 119.75 16.2136 119.63 16.2136 119.63C16.4531 119.672 16.6511 119.714 16.8906 119.792C17.4531 120.193 17.974 120.594 18.5365 121.031C21.7031 123.469 24.474 126.547 26.599 130.026C26.1979 129.708 25.7552 129.469 25.3542 129.271C24.4323 128.51 23.75 127.708 22.9896 126.708C22.3854 125.911 21.7865 125.151 21.0208 124.51C19.2604 123.031 17.0938 122.271 14.8073 122.109C14.6458 122.109 14.4844 122.271 14.6094 122.432C14.7656 122.672 14.9688 122.953 15.1302 123.193C16.3333 124.99 17.8958 126.469 19.8177 127.547C20.8229 128.109 21.8229 128.469 22.9063 128.786C23.75 129.026 24.4323 129.229 25.1146 129.547C25.875 130.109 26.6771 130.63 27.3594 131.307C28.8802 134.068 30.0052 136.984 30.6042 140.062C30.0834 138.703 28.0781 136.625 28 136.583C27.8386 136.464 27.7188 136.307 27.5573 136.188C25.4323 134.307 24.8334 131.146 22.5469 129.547C18.5365 126.75 12.2396 129.828 7.91147 129.948C7.82814 129.948 7.75002 130.026 7.82814 130.109C10.0365 131.505 11.2813 133.865 13.6458 135.104C13.6823 135.344 13.724 135.625 13.8073 135.865C14.4844 139.943 17.1354 142.422 18.2136 143.464C19.3802 144.583 20.5833 145.62 22.0677 146.26C22.5052 146.464 22.9896 146.62 23.4688 146.74C24.875 147.063 27.2761 147.943 28.0781 149.542C28.6823 151.38 29.2031 153.219 29.5261 155.099C28.8438 157.135 28 159.094 27.0365 161.057C27.0365 160.578 27 160.177 26.8386 159.776C26.474 157.016 25.2344 154.057 23.5886 151.979C20.9427 148.62 16.3333 148.823 13.6458 145.74C13.5261 145.583 13.2448 145.62 13.2448 145.859C13.4063 148.901 13.9271 151.219 16.2136 153.26C17.4948 154.417 19.4583 156.74 21.1042 157.297C26.2761 159.016 26.6771 161.818 26.6771 161.854C26.3542 162.453 24.6302 165.693 24.1094 166.651C23.75 165.214 22.7084 164.214 21.5417 162.896C19.5781 160.656 17.974 158.938 15.4115 157.339C11.1198 154.656 6.02606 152.297 0.812515 153.656C0.572933 153.74 0.614599 154.057 0.854182 154.141C3.90106 155.26 4.58335 157.979 6.78647 159.896C8.47397 161.375 10.7552 162.375 12.6823 163.495C13.724 164.094 15.4479 165.453 17.2136 165.255C21.4219 164.854 21.9844 164.656 22.7865 165.292C23.8698 166.693 23.9115 168.453 23.9479 168.453C22.1875 172.292 20.5417 176.411 20.2188 180.526C19.9427 184.167 19.6615 190.042 22.1042 193.125C22.3854 193.443 22.9896 193.281 22.8281 192.802C21.9427 190.286 21.224 187.766 21.0208 183.885C20.7813 179.406 22.1875 175.448 23.5104 171.411C24.4323 171.094 26.599 169.974 26.9167 169.734C27 169.693 27.0365 169.651 27.0781 169.573C32.9323 171.01 36.5834 169.573 42.3177 167.771C49.974 165.333 50.4584 156.938 50.4584 156.896C51.0156 155.219 51.2188 153.896 49.9323 155.859C48.0886 158.656 48.3698 159.938 42.5573 162.135C38.5052 163.656 33.2552 163.656 29.6823 166.214C28.8021 166.854 28.2396 167.854 27.4375 168.453C26.9584 168.813 24.5521 169.891 24.1094 170.25C23.9479 170.37 25.1927 165.932 25.1927 165.896C25.6354 165.214 26.0365 164.573 26.4375 163.896C28.2396 162.536 29.8438 161.297 31.9688 160.375C34.0573 159.458 35.5365 159.818 37.5834 159.219C39.4688 158.656 40.6302 157.656 41.6719 155.979C44.599 151.297 47.8073 147.542 47.25 141.781C47.25 141.583 46.9271 141.302 46.7656 141.505C44.4427 143.865 42.1979 146.38 39.7084 148.578C37.8646 150.219 35.3386 151.141 33.5729 152.818C32.4115 153.938 32.0521 154.74 31.6094 156.255C31.0052 158.375 29.8854 159.938 28.4792 161.417C28.0781 161.734 27.6771 162.016 27.3177 162.333C29.4063 158.339 30.7656 154.099 31.2865 149.818C32.974 147.979 33.9375 146.661 34.9375 144.344C35.2969 143.464 35.7396 142.625 36.2188 141.823C38.0677 141.464 39.9115 141.703 41.7552 141.104C43.3959 140.583 44.9219 139.703 46.2865 138.667C48.3281 137.068 49.8542 134.828 49.7761 132.229C49.8125 132.109 49.8959 131.99 49.974 131.828C50.5365 130.109 49.2552 128.427 48.8542 126.828C48.8125 126.589 48.3698 126.427 48.2917 126.75C47.7292 129.391 46.8854 131.828 45.6823 134.266C45.6823 134.266 45.6823 134.266 45.6823 134.307C44.8021 134.589 43.9584 134.906 43.0781 135.188C41.7136 135.703 40.3125 136.188 39.1459 137.104C37.0625 138.745 35.9792 140.703 34.6979 143.182C34.6563 142.344 34.375 141.104 34.4167 140.984C35.6979 135.703 41.3959 133.547 38.8281 127.87C37.224 124.391 30.6042 117.953 30.6042 117.911C31.9688 113.552 36.7031 110.198 40.1927 107.479C40.3906 107.318 40.1094 107.036 39.9479 107.036C34.2969 106.995 30.0834 110.438 26.2344 114.276C22.4271 118.073 24.7917 122.349 25.6354 126.75C25.6354 126.948 25.6354 127.151 25.6354 127.349C23.9115 124.911 21.8229 122.833 19.5417 120.99C17.2917 117.911 19.5781 114.313 19.4583 110.714C19.2969 106.797 18.4167 103.078 19.9011 99.2396C19.9792 99.0417 19.7396 98.599 19.4583 98.7604C17.8958 99.7188 16.8906 100.682 16.2136 102.438C15.3698 104.641 13.9271 107.036 13.5625 109.438C13.0833 112.917 15.4115 116.276 17.5365 119.031C17.6563 119.271 17.7761 119.51 17.9375 119.75C15.3698 117.792 12.6823 115.995 10.0781 114.156C8.99481 111.438 9.59377 108.479 8.67189 105.719C8.03127 103.917 6.82814 102.401 5.3021 101.12C5.14585 100.958 4.90106 101.078 4.90106 101.318C4.78127 103.641 5.42189 105.755 6.26564 107.917C7.4271 110.875 8.91147 112.797 9.03127 112.995C9.07293 113.193 9.15106 113.396 9.19272 113.635C5.3021 110.875 0.812517 108.276 -2.0729 104.516C-4.11978 101.797 -5.20311 99.5625 -8.13019 97.6406C-8.32811 97.5208 -8.65103 97.5625 -8.60936 97.8802C-8.13019 102.401 -1.10936 106.719 -1.10936 106.677C-0.270818 107.516 0.614599 108.234 1.6146 108.958C1.65627 108.995 1.73439 109.036 1.77606 109.078C-0.109359 108.198 -2.27603 107.839 -4.16144 108.917C-4.80207 109.276 -5.23957 109.839 -5.80207 110.276C-6.64582 110.953 -7.80728 111.276 -8.5729 111.953C-9.53123 112.833 -9.93228 113.635 -10.0156 114.995ZM36.4219 141.625C38.224 138.823 40.6719 136.786 44.0781 135.625C45.6459 135.104 47.8073 134.625 49.0938 133.349C48.3698 136.307 46.2865 138.385 43.3959 139.906C41.1511 141.062 38.7084 140.823 36.4219 141.625ZM32.0104 159.578C34.8594 157.255 37.7865 155.859 40.349 153.141C42.875 150.422 44.8021 146.901 46.6459 143.625C47.2084 143.661 47.0886 144.542 46.6875 146.182C46.1667 148.38 44.8438 149.578 43.599 151.422C42.3542 153.177 41.6354 155.896 40.0313 157.339C37.625 159.375 34.7344 158.495 32.0104 159.578ZM30.6042 160.016C31.1302 159.177 31.4896 158.135 32.1302 156.495C33.4531 152.979 36.8646 151.901 39.5469 149.698C41.474 148.141 43.1198 145.26 45.2031 144.104C45.5261 143.943 45.7656 143.823 46.0052 143.745C43.8386 147.099 42.0365 150.859 39.1094 153.62C36.5834 156.016 33.4115 157.458 30.8854 159.896C30.849 159.896 30.8073 159.938 30.7656 159.938C30.7292 159.938 30.6875 159.974 30.6042 160.016ZM27.5573 169.172C29.125 167.813 29.2448 166.891 31.7709 165.734C35.0573 164.172 39.0261 164.052 42.5156 162.974C44.8802 162.255 47.7292 161.453 49.2917 159.375C49.2917 159.339 49.3334 159.339 49.3334 159.297C48.8542 160.776 48.3698 162.333 47.6094 163.453C46.125 165.656 43.4375 166.453 41.1146 167.292C36.9427 168.771 32.7709 169.573 27.5573 169.172ZM21.8229 163.813C18.7761 161.615 15.4115 160.938 12 159.297C9.31252 157.979 7.46877 155.5 4.34377 155.057C4.26043 155.057 4.3021 155.135 4.34377 155.177C7.39064 155.896 9.19272 158.339 11.8802 159.698C13.4427 160.495 15.2083 160.896 16.8542 161.573C18.1771 162.135 20.3021 163.333 21.5052 164.052C21.4219 164.052 19.4167 164.172 18.2969 164.417C15.4896 165.052 13.7656 163.693 11.599 162.417C8.95314 160.896 6.86981 159.615 5.14585 157.057C3.81772 155.057 1.93752 154.26 1.89585 154.021C1.89585 153.896 7.27085 154.38 8.03127 154.458C11.1563 154.896 14.1667 156.938 16.7344 158.734C18.2969 159.818 20.3438 161.776 21.8229 163.813ZM26.3542 159.057C26.0365 158.656 25.6354 158.339 25.1146 158.057C23.5469 157.297 21.625 157.255 20.1406 156.016C18.8594 154.896 17.5365 153.656 16.3698 152.417C15.6094 151.62 13.4063 147.542 13.9636 146.859C14.0833 146.703 15.4896 148.099 17.5365 148.859C22.5052 150.698 25.1511 154.297 26.3542 159.057ZM30.1667 117.833C29.4427 117.271 28.6823 116.755 27.9584 116.354C27.7188 116.234 27.4792 116.396 27.6406 116.672C28.3594 117.953 28.8438 118.995 29.2813 120.193C28.0781 122.151 26.2344 124.073 25.7552 126.307C25.1511 122.469 23.1875 118.594 26.2761 115.193C28.1615 113.115 30.8854 111.078 33.2136 109.474C34.1771 108.839 39.2656 107.24 38.8281 108.156C38.2656 109.318 35.9011 109.755 33.7344 112.073C31.8906 113.953 30.9688 115.313 30.1667 117.833ZM34.0156 140.266C33.5729 137.464 32.8542 134.828 32.2084 131.906C31.2865 127.75 31.2865 123.948 29.8438 119.87C28.2813 115.432 30.1667 118.714 32.0886 120.51C33.9375 122.229 35.9792 123.948 37.1042 126.307C40.5521 133.229 35.6615 134.984 34.0156 140.266ZM14.0469 134.984C14.0052 134.708 13.7656 133.589 13.8438 133.505C13.8438 133.505 17.8125 136.865 19.1771 137.865C22.7865 140.422 25.3542 142.901 27.0781 146.979C25.5938 146.099 23.7084 146.26 22.1459 145.5C18.0573 143.583 14.9688 139.422 14.0469 134.984ZM26.3542 135.984C25.7552 135.828 25.1146 135.786 24.5104 135.786C22.4688 135.865 20.2604 137.188 18.2969 136.464C16.5729 135.307 14.9688 134.068 13.8073 132.349C13.6823 132.146 13.1615 132.026 13.2031 132.427C13.2813 133.188 13.4063 133.906 13.5261 134.625C11.4375 133.505 10.2344 131.505 8.27085 130.229C12.6823 130.828 17.4115 127.828 21.625 130.026C23.9479 131.229 24.1511 133.385 25.6719 135.266C25.9167 135.547 26.1563 135.786 26.3542 135.984ZM31.1667 144.901C31.2865 147.943 30.8073 150.859 30.0052 153.656C29.8438 151.578 29.3229 149.182 28 147.703C28 147.661 27.1979 144.984 25.474 142.344C23.8698 139.906 21.2656 138.427 18.8177 136.786C19.4583 136.943 20.099 136.984 20.8229 136.906C22.3438 136.786 23.75 136.188 25.2761 136.344C26.0365 136.427 26.7552 136.667 27.4792 136.906C28.6042 137.823 29.8021 138.745 30.6875 141.302C30.6875 141.542 31.1302 143.745 31.1667 144.901ZM25.9948 127.99C25.9948 127.948 26.0365 127.948 25.9948 127.948C25.6719 125.031 28.0417 122.911 29.3646 120.552C30.4844 123.792 30.7656 126.948 31.4479 130.589C32.25 135.146 33.6927 139.464 34.2552 144.104C33.3334 145.943 32.4531 147.823 31.3698 149.458C32.1719 142.141 30.5261 134.708 25.9948 127.99ZM17.7344 118.51C16.5313 117.193 15.6094 115.552 15.0104 114.115C13.6823 110.875 14.6458 108.875 15.9688 105.958C16.3698 105.12 17.2917 100.359 19.0156 100.161C18.5365 100.198 18.2969 103.677 18.2969 104.24C18.2969 105.635 18.1771 106.995 18.2136 108.354C18.2552 109.318 18.6146 110.234 18.6563 111.276C18.7396 113.073 18.3386 113.594 17.7761 115.234C17.4531 116.234 17.6146 117.792 17.7344 118.51ZM5.42189 121.349C6.54689 121.714 7.39064 121.073 8.39064 120.63C9.87502 119.953 11.3594 119.953 12.8802 119.75C12.6823 119.833 12.4792 119.911 12.2813 120.073C8.83335 122.193 6.38543 123.229 2.37502 122.87C3.09897 122.589 3.42189 122.313 4.06252 121.594C5.58335 120.031 6.66668 119.031 8.95314 118.792C10.0781 118.672 11.1198 118.911 12.1198 119.234C11.2813 119.313 10.4375 119.474 9.6771 119.672C8.19272 120.109 6.94793 121.271 5.42189 121.349ZM8.63022 109.354C8.67189 110.438 8.75002 111.474 8.91147 112.474C8.34897 111.318 7.82814 109.958 7.27085 108.958C6.66668 107.958 6.18752 106.917 5.8646 105.755C5.8646 105.719 5.10418 102.677 5.42189 102.318C5.8646 101.797 7.4271 104.24 7.67189 104.797C8.39064 106.24 8.5521 107.755 8.63022 109.354ZM-8.5729 112.833C-7.64582 111.797 -6.40623 111.594 -5.36457 110.714C-3.39582 109.036 -1.35415 108.354 1.17189 109.396C1.37502 109.474 1.57293 109.557 1.77606 109.677C0.890641 109.438 0.0104322 109.438 -0.911443 109.995C-2.15623 110.714 -2.87498 111.995 -4.23957 112.635C-5.52082 113.234 -6.72394 113.073 -8.0104 113.594C-9.05207 113.995 -10.1719 114.672 -8.5729 112.833Z" fill="white"/>
<path d="M143.688 178.328C143.729 177.531 143.328 176.651 143.365 175.807C143.365 175.25 143.484 174.693 143.406 174.13C143.125 172.411 141.844 171.292 140.359 170.573C140.401 170.573 140.438 170.609 140.521 170.609C141.443 170.854 142.365 171.01 143.286 171.13C143.245 171.172 149.38 173.328 152.427 171.37C152.63 171.25 152.51 171.01 152.307 170.974C149.661 170.13 147.734 170.573 145.052 170.693C141.323 170.813 137.469 169.37 133.865 168.333C134.021 168.255 134.182 168.214 134.344 168.13C134.505 168.094 136.469 168.052 138.833 167.292C140.599 166.734 142.203 166.052 143.568 164.854C143.688 164.734 143.646 164.536 143.484 164.536C141.922 164.214 140.438 164.255 138.917 164.776C136.75 165.573 135.224 167.411 133.021 168.094C130.573 167.411 128.167 166.651 125.682 166.052C125.922 166.052 126.125 166.016 126.323 165.974C129.089 165.932 132.297 165.656 134.224 163.656C135.505 162.255 136.271 160.177 137.229 158.578C137.995 157.297 138.073 156.177 137.87 154.776C137.833 154.536 137.469 154.578 137.349 154.74C135.745 157.536 132.979 158.854 130.495 160.698C128.208 162.417 127.167 165.573 124.156 165.734C121.875 165.255 119.547 165.016 117.219 165.172C117.344 165.094 117.464 164.974 117.583 164.896C120.708 163.214 124.521 162.573 124.958 158.339C125.401 154.057 125.443 149.781 122.594 146.344C122.516 146.224 122.193 146.182 122.193 146.422C122.276 149.901 122.552 154.458 120.547 157.458C120.51 157.495 113.292 156.62 110.365 157.375C105.594 158.615 107.115 163.177 104.469 166.573C104.391 166.651 103.505 167.135 102.948 167.495C103.87 165.495 104.51 163.813 104.51 161.734C104.51 160.578 104.109 159.458 103.75 158.375C103.505 157.698 103.266 157.016 102.984 156.339C103.87 154.38 104.953 152.661 106.313 151.021C106.474 150.818 106.156 150.661 105.995 150.74C104.792 151.297 103.146 151.339 102.344 152.536C102.266 152.62 102.266 152.74 102.182 152.859C100.542 154.057 99.9375 156.135 99.9792 158.177C100.021 159.536 100.219 160.896 100.74 162.177C101.302 163.573 102.385 164.615 103.068 165.932C102.828 166.615 102.547 167.292 102.182 167.974C101.224 169.734 100.901 170.974 100.62 172.932C98.2552 175.37 96.3281 178.286 94.9271 181.568C94.9271 181.167 94.9271 180.766 94.9271 180.406C95.125 178.807 95.5261 177.37 96.5313 175.927C97.25 174.932 97.5729 174.292 97.6511 173.01C97.8125 171.094 97.1302 169.13 97.2136 167.172C97.3333 164.573 97.7708 161.938 98.0521 159.339C98.0938 159.135 97.7708 159.094 97.6511 159.177C93.8438 161.693 93.1198 165.531 91.7188 169.615C91.1979 171.052 91.1979 172.292 91.7604 173.729C92.4011 175.292 93.3646 176.01 93.8438 177.729C94.3229 179.49 94.3646 181.089 94.4063 182.849C94.1667 183.406 93.9636 184.005 93.8021 184.604C93.8021 184.604 91.6354 187.563 91.6771 187.443C91.7188 186.964 91.1563 185.005 91.1563 184.526C91.1146 183.724 91.4792 182.885 91.4375 182.047C91.2344 178.568 88.6302 175.37 87.5469 172.13C86.0261 167.495 86.9479 167.016 87.75 164.495C88.3073 162.734 87.5886 163.536 86.8281 164.693C86.7865 164.693 81.8542 169.172 84.1771 175.052C85.9011 179.448 86.8281 182.406 90.6354 185.286C90.6354 185.328 90.6354 185.406 90.6354 185.448C90.6354 185.766 91.0365 187.646 91.3177 188.365C89.5104 191.203 87.75 194 84.9011 196.083C82.4167 197.88 80.4896 198.682 78.5261 199.401C78.1667 199.521 78.3646 200 78.6875 200C81.7708 199.958 85.2604 196.88 87.349 194.88C89.7136 192.641 91.4375 189.604 92.9219 186.604C92.9636 186.604 94.0417 185.766 95.4479 185.766C96.25 185.927 96.4115 186.365 98.2552 189.125C99.0156 190.281 100.698 190.646 101.583 191.005C103.224 191.646 104.953 192.521 106.714 192.844C109 193.245 111.005 192.323 113.214 193.604C113.37 193.682 113.615 193.563 113.531 193.365C111.766 189.526 107.797 187.563 104.068 186.286C101.823 185.526 99.9792 185.406 97.6146 185.286C96.2083 185.245 95.0886 185.083 94.0052 185.604C94.3229 184.807 95.4479 182.125 95.6458 181.646C95.6458 181.646 97.6146 180.526 101.224 182.807C102.385 183.526 104.792 183.604 106.115 183.807C108.479 184.167 110.161 183.365 112.13 181.927C112.286 181.807 112.13 181.646 112.01 181.609C108.76 181.49 106.635 178.568 103.224 178.609C101.141 178.651 98.6927 179.37 96.8125 180.49C96.4896 180.609 96.2083 180.766 95.9271 181.005C96.6511 179.448 97.4531 177.969 98.3333 176.531C99.6563 175.771 101.063 175.172 102.464 174.651C103.828 174.328 105.594 175.37 106.474 176.089C106.755 176.328 107.115 176.531 107.438 176.688C108.557 177.286 109.844 177.531 111.089 177.651C112.286 177.771 115.094 178.208 117.984 176.568C118.182 176.49 118.344 176.37 118.505 176.292C120.427 177.13 122.516 176.688 124.479 177.37C124.557 177.411 124.599 177.286 124.521 177.25C122.432 174.568 121.229 169.172 117.5 168.094C115.375 167.495 113.13 168.693 110.927 168.333C110.766 168.292 110.604 168.292 110.443 168.255C110.365 168.214 108.12 168.052 106.995 168.411C109.203 167.292 111.568 166.495 114.016 166.052C114.776 166.135 115.495 166.375 116.219 166.531C116.781 166.771 117.219 167.094 117.781 167.495C118.505 167.974 119.266 168.411 120.068 168.771C121.672 169.411 123.354 169.651 125.078 169.49C125.323 169.49 125.563 169.453 125.802 169.453C125.964 169.453 126.005 169.25 125.922 169.172C124.677 167.854 123.156 166.891 121.349 166.531C120.589 166.375 119.828 166.375 119.026 166.411C118.063 166.453 117.219 166.453 116.297 166.255C115.938 166.094 115.578 165.974 115.219 165.854C118.385 165.411 121.672 165.573 124.76 166.292C125.281 166.411 125.802 166.573 126.323 166.693C126.484 166.813 126.604 166.932 126.766 167.052C126.766 167.052 127.286 167.854 127.609 168.172C128.047 169.01 127.927 169.771 128.047 170.932C128.13 171.891 128.286 172.849 128.688 173.729C129.734 175.969 131.859 177.448 131.896 177.448C131.938 177.49 131.896 177.328 131.896 177.328C131.578 175.969 132.417 174.891 132.38 173.573C132.38 172.693 131.938 171.849 131.495 171.13C130.615 169.573 129.052 168.771 127.729 167.651C127.568 167.375 127.365 167.135 127.083 166.932C130.656 167.854 138.714 170.37 139.156 170.531C140.276 171.37 140.76 172.49 140.802 173.969C140.802 174.448 140.677 174.891 140.719 175.37C140.839 176.927 142.766 179.089 142.245 180.526C142.161 180.729 142.484 180.885 142.646 180.729C143.328 180.047 143.646 179.37 143.688 178.328ZM100.698 160.417C100.219 157.896 100.458 155.62 101.901 153.698C101.745 155.099 102.547 156.656 102.984 157.896C103.948 160.578 103.948 163.094 103.104 165.573C102.464 163.776 101.099 162.417 100.698 160.417ZM91.6771 171.214C91.7604 169.49 93.0417 167.693 93.5208 166.094C94.0052 164.417 94.125 163.016 95.2083 161.615C96.0104 160.578 96.4896 160.057 96.8125 160.375C95.6875 163.094 94.4844 166.016 94.0833 168.932C93.6406 171.849 94.2865 174.328 94.2448 177.208C93.5625 174.969 91.599 173.651 91.6771 171.214ZM94.6458 178.089C94.6458 178.047 94.6458 178.01 94.6042 178.01C94.8438 175.25 94.1667 172.609 94.3646 169.854C94.6042 166.693 96.0104 163.734 97.0104 160.734C97.0521 160.896 97.1302 161.135 97.1719 161.375C97.5313 163.255 96.5677 165.656 96.5313 167.615C96.4896 170.37 97.5313 172.969 96.0104 175.531C95.2865 176.729 94.8438 177.49 94.6042 178.208C94.6875 178.208 94.6875 178.13 94.6458 178.089ZM84.9792 175.411C84.3386 173.573 83.5 171.531 84.099 169.531C84.4219 168.531 85.1406 167.453 85.7813 166.411C85.7813 166.453 85.7813 166.453 85.7448 166.495C85.224 168.495 86.1823 170.609 86.9063 172.411C87.9896 175.089 89.875 177.568 90.5573 180.37C91.0781 182.484 90.5938 183.005 90.5156 184.646C87.75 181.688 86.1458 178.729 84.9792 175.411ZM102.266 186.083C104.63 186.766 107.396 187.604 109.203 189.286C109.641 189.682 112.609 192.76 112.531 192.802C112.37 192.922 110.927 192.161 109.042 192.323C106.635 192.563 104.792 191.885 102.547 191.042C100.698 190.323 98.974 189.964 98.0156 187.927C97.6146 187.125 96.6927 185.844 96.6511 185.766C97.6927 186.125 99.4948 186.844 100.5 187.365C101.745 188.005 102.865 188.885 104.151 189.443C106.313 190.406 108.719 190.286 110.688 191.802C110.724 191.844 110.807 191.802 110.766 191.766C108.958 190.083 106.516 190.203 104.391 189.203C101.703 187.964 99.5781 186.245 96.7292 185.448C98.6927 185.406 100.901 185.688 102.266 186.083ZM108 180.688C109.484 181.568 111.047 181.729 111.005 181.885C110.885 182.568 107.276 183.245 106.396 183.167C105.031 183.089 103.625 182.885 102.302 182.646C100.781 182.365 99.8177 181.208 98.5729 180.609C98.1354 180.406 97.7344 180.328 97.3333 180.328C100.901 178.729 104.427 178.609 108 180.688ZM122.677 152.578C123.036 150.099 122.115 148.458 122.552 147.542C122.917 146.823 124.479 150.698 124.557 151.62C124.719 153.859 124.839 156.495 124.479 158.698C123.917 162.297 120.547 162.974 117.901 164.536C119.026 163.135 119.307 161.057 119.906 159.339C120.87 158.974 121.75 158.776 122.917 158.578C123.156 158.536 123.115 158.297 122.917 158.219C122.313 157.979 121.594 157.776 120.911 157.615C121.995 155.859 122.396 154.578 122.677 152.578ZM112.167 157.536C114.172 157.099 116.26 157.458 118.224 157.734C120.271 158.016 123.234 157.536 119.75 158.818C116.542 159.974 114.172 161.854 111.167 163.333C109.042 164.375 107.078 165.255 105.151 166.375C107.557 162.734 106.234 158.896 112.167 157.536ZM107.797 176.25C106.557 175.651 105.714 174.411 104.427 173.969C107.797 173.01 110.604 173.328 113.932 174.292C115.219 174.651 119.266 175.411 119.266 175.411C119.266 175.49 118.464 175.927 118.266 176.01C115.135 177.609 111.005 177.771 107.797 176.25ZM112.328 168.974C114.255 168.974 115.656 168.052 117.583 168.854C121.031 170.333 121.552 174.729 124.12 177.13C122.396 176.568 120.547 176.807 118.823 176.089C119.349 175.807 119.828 175.531 120.349 175.208C120.63 175.052 120.307 174.813 120.109 174.813C118.464 174.969 116.901 174.568 115.339 174.089C113.932 173.25 113.615 171.214 112.651 169.932C112.37 169.531 112.01 169.172 111.609 168.891C111.807 168.974 112.047 168.974 112.328 168.974ZM106.156 168.974C108.198 168.255 109.323 168.495 110.484 168.734C110.964 169.094 111.484 169.411 111.927 169.813C112.771 170.651 113.13 171.849 113.813 172.813C114.135 173.25 114.495 173.651 114.896 173.969C112.688 173.25 110.484 172.411 108.156 172.651C105.672 172.891 103.625 173.729 103.625 173.771C102.063 173.693 100.297 174.568 98.9375 175.49C100.26 173.609 101.823 171.849 103.75 170.411C104.469 169.854 105.995 169.01 106.156 168.974ZM100.781 172.531C101.26 171.094 101.984 169.615 102.667 168.13C105.792 166.172 109.161 164.896 112.37 163.135C114.938 161.734 117.063 160.333 119.589 159.417C118.786 161.417 118.667 163.896 116.698 165.172C116.698 165.172 116.698 165.214 116.661 165.214C110.286 165.776 104.911 168.411 100.781 172.531ZM128.609 163.854C129.37 162.693 129.49 162.214 130.615 161.333C131.255 160.854 132.016 160.615 132.62 160.177C133.5 159.536 134.266 158.776 135.146 158.099C135.469 157.818 137.51 155.938 137.271 155.62C138.031 156.776 135.547 159.698 135.224 160.375C134.063 162.656 133.339 164.214 130.693 165.016C129.49 165.375 128.01 165.615 126.604 165.531C127.125 165.214 128.167 164.573 128.609 163.854ZM130.974 174.448C130.255 173.453 130.375 172.13 129.891 171.01C129.651 170.411 129.333 169.854 128.969 169.292C129.651 169.771 130.333 170.292 130.813 171.01C131.776 172.531 131.698 173.693 131.495 175.37C131.417 176.13 131.375 176.448 131.578 177.047C129.37 174.771 128.813 172.729 128.37 169.573C128.328 169.37 128.286 169.214 128.25 169.052C128.891 170.094 129.609 171.01 129.932 172.25C130.135 173.13 130.172 173.969 130.974 174.448ZM140.078 164.854C140.557 164.734 142.802 164.495 142.724 165.016C142.646 165.411 140.401 166.453 140.359 166.453C139.516 166.813 138.594 167.016 137.714 167.172C136.828 167.292 135.745 167.693 134.703 167.891C135.427 167.495 136.068 167.052 136.75 166.531C137.75 165.776 138.797 165.135 140.078 164.854ZM142.443 178.807C142.125 177.771 141.443 177.13 141.161 176.052C140.88 174.932 141.281 173.849 141.12 172.729C141 171.891 140.557 171.333 140 170.932C140.156 171.01 140.318 171.094 140.479 171.172C142.365 172.214 142.964 173.813 142.927 175.849C142.885 176.927 143.406 177.771 143.203 178.849C142.802 180.688 142.682 179.646 142.443 178.807Z" fill="white"/>
<path d="M81.3333 18.0729C82.375 16.3542 82.974 14.474 83.1354 12.5938C84.9427 17.7917 84.5781 23.7083 81.5313 28.8281C76.0781 38.026 64.2083 41.0625 55.0261 35.6667C45.8021 30.2656 42.7552 18.3906 48.1719 9.23438C51.1771 4.11979 56.1875 0.921875 61.6458 0C60.0781 1.07813 58.7552 2.52083 57.7136 4.23958C53.8646 10.7552 56.0313 19.1146 62.5677 22.9531C69.1042 26.75 77.4844 24.5885 81.3333 18.0729Z" fill="white"/>
<path d="M102.464 40.1042L100.422 36.5833L96.2917 36.7865L99.8177 34.8281L99.6198 30.6302L101.943 34.1042L105.792 33.9479L102.385 36.0677L102.464 40.1042Z" fill="white"/>
<path d="M33.0521 80.1302L31.0469 76.651L26.875 76.8073L30.4063 74.849L30.2031 70.651L32.5313 74.1302L36.3802 73.9688L33.0104 76.1302L33.0521 80.1302Z" fill="white"/>
<path d="M104.552 115.156L102.505 111.635L98.375 111.833L101.901 109.875L101.661 105.677L104.026 109.156L107.88 108.995L104.469 111.156L104.552 115.156Z" fill="white"/>
<path d="M104.188 73.6094C104.188 73.7917 104.156 73.9635 104.083 74.1302C104.016 74.2969 103.917 74.4427 103.792 74.5729C103.661 74.6979 103.516 74.7969 103.349 74.8646C103.182 74.9375 103.005 74.9688 102.828 74.9688C102.646 74.9688 102.469 74.9375 102.302 74.8646C102.135 74.7969 101.99 74.6979 101.859 74.5729C101.734 74.4427 101.635 74.2969 101.568 74.1302C101.495 73.9635 101.464 73.7917 101.464 73.6094C101.464 73.4323 101.495 73.2552 101.568 73.0885C101.635 72.9219 101.734 72.776 101.859 72.651C101.99 72.5208 102.135 72.4219 102.302 72.3542C102.469 72.2865 102.646 72.25 102.828 72.25C103.005 72.25 103.182 72.2865 103.349 72.3542C103.516 72.4219 103.661 72.5208 103.792 72.651C103.917 72.776 104.016 72.9219 104.083 73.0885C104.156 73.2552 104.188 73.4323 104.188 73.6094Z" fill="white"/>
<path d="M107.156 132.745C107.156 132.927 107.12 133.099 107.052 133.266C106.984 133.432 106.885 133.578 106.755 133.708C106.63 133.833 106.479 133.932 106.313 134.005C106.146 134.073 105.974 134.104 105.792 134.104C105.615 134.104 105.438 134.073 105.271 134.005C105.104 133.932 104.958 133.833 104.828 133.708C104.703 133.578 104.604 133.432 104.531 133.266C104.464 133.099 104.427 132.927 104.427 132.745C104.427 132.568 104.464 132.391 104.531 132.229C104.604 132.063 104.703 131.911 104.828 131.786C104.958 131.656 105.104 131.563 105.271 131.49C105.438 131.422 105.615 131.385 105.792 131.385C105.974 131.385 106.146 131.422 106.313 131.49C106.479 131.557 106.63 131.656 106.755 131.786C106.885 131.911 106.984 132.063 107.052 132.229C107.12 132.391 107.156 132.568 107.156 132.745Z" fill="white"/>
<path d="M123.234 89.0833C123.234 89.2656 123.203 89.4375 123.13 89.6042C123.063 89.7708 122.964 89.9167 122.839 90.0469C122.708 90.1719 122.563 90.2708 122.396 90.3386C122.229 90.4115 122.052 90.4427 121.875 90.4427C121.693 90.4427 121.516 90.4115 121.349 90.3386C121.182 90.2708 121.036 90.1719 120.906 90.0469C120.781 89.9167 120.682 89.7708 120.615 89.6042C120.542 89.4375 120.51 89.2656 120.51 89.0833C120.51 88.9063 120.542 88.7292 120.615 88.5625C120.682 88.3958 120.781 88.25 120.906 88.125C121.036 87.9948 121.182 87.8958 121.349 87.8281C121.516 87.7604 121.693 87.724 121.875 87.724C122.052 87.724 122.229 87.7604 122.396 87.8281C122.563 87.8958 122.708 87.9948 122.839 88.125C122.964 88.25 123.063 88.3958 123.13 88.5625C123.203 88.7292 123.234 88.9063 123.234 89.0833Z" fill="white"/>
<path d="M36.3802 54.0573C36.3802 54.2396 36.349 54.4115 36.2761 54.5781C36.2084 54.7448 36.1094 54.8906 35.9792 55.0208C35.8542 55.1458 35.7083 55.2448 35.5417 55.3125C35.3698 55.3854 35.1979 55.4167 35.0156 55.4167C34.8386 55.4167 34.6615 55.3854 34.4948 55.3125C34.3281 55.2448 34.1823 55.1458 34.0521 55.0208C33.9271 54.8906 33.8281 54.7448 33.7604 54.5781C33.6875 54.4115 33.6563 54.2396 33.6563 54.0573C33.6563 53.8802 33.6875 53.7031 33.7604 53.5365C33.8281 53.3698 33.9271 53.224 34.0521 53.099C34.1823 52.9688 34.3281 52.8698 34.4948 52.8021C34.6615 52.7344 34.8386 52.6979 35.0156 52.6979C35.1979 52.6979 35.3698 52.7344 35.5417 52.8021C35.7083 52.8698 35.8542 52.9688 35.9792 53.099C36.1094 53.224 36.2084 53.3698 36.2761 53.5365C36.349 53.7031 36.3802 53.8802 36.3802 54.0573Z" fill="white"/>
<path d="M16.9323 82.9688C16.9323 83.1458 16.8958 83.3229 16.8281 83.4896C16.7604 83.651 16.6615 83.8021 16.5313 83.9271C16.4063 84.0573 16.2604 84.1563 16.0938 84.224C15.9219 84.2917 15.75 84.3281 15.5677 84.3281C15.3906 84.3281 15.2136 84.2917 15.0469 84.224C14.8802 84.1563 14.7344 84.0573 14.6042 83.9271C14.4792 83.8021 14.3802 83.651 14.3073 83.4896C14.2396 83.3229 14.2083 83.1458 14.2083 82.9688C14.2083 82.7865 14.2396 82.6146 14.3073 82.4479C14.3802 82.2812 14.4792 82.1354 14.6042 82.0052C14.7344 81.8802 14.8802 81.7813 15.0469 81.7083C15.2136 81.6406 15.3906 81.6094 15.5677 81.6094C15.75 81.6094 15.9219 81.6406 16.0938 81.7083C16.2604 81.7813 16.4063 81.8802 16.5313 82.0052C16.6615 82.1354 16.7604 82.2812 16.8281 82.4479C16.8958 82.6146 16.9323 82.7865 16.9323 82.9688Z" fill="white"/>
</svg>
