<svg xmlns="http://www.w3.org/2000/svg" version="1.0" viewBox="0 0 375 374.999991">
  <defs>
    <clipPath id="a">
      <path d="M132.9375 208H138v7h-5.0625Zm0 0"/>
    </clipPath>
    <clipPath id="b">
      <path d="M240 186h2.4375v3H240Zm0 0"/>
    </clipPath>
    <clipPath id="c">
      <path d="M193 112.5h6v5.5h-6Zm0 0"/>
    </clipPath>
    <clipPath id="d">
      <path d="M183 257h7v5.5h-7Zm0 0"/>
    </clipPath>
  </defs>
  <path fill="#040606" d="m166.835938 222.667969-.558594 3.390625.570312-.34375.386719-2.1875Zm-.789063 3.90625c-.035156 0-.070313-.011719-.097656-.03125-.058594-.039063-.085938-.105469-.074219-.171875l.710938-4.316406c.011718-.074219.074218-.132813.148437-.144532.078125-.007812.148437.03125.179687.101563l.65625 1.421875c.015626.035156.019532.070312.015626.105468l-.414063 2.3125c-.007813.046876-.035156.089844-.078125.117188l-.957031.578125c-.03125.015625-.058594.027344-.089844.027344"/>
  <path fill="#040606" d="M168.742188 227.433594c-.070313 0-.132813-.042969-.160157-.113282-.035156-.085937.007813-.1875.097657-.222656l1.761718-.675781-3.140625-2.785156c-.050781-.042969-.070312-.109375-.054687-.171875s.066406-.109375.128906-.125l3.257812-.78125-.9375-.492188-2.925781.1875c-.097656.007813-.179687-.066406-.183593-.160156-.007813-.09375.066406-.175781.160156-.183594l2.976562-.191406c.03125-.003906.0625.003906.089844.019531l1.390625.726563c.0625.035156.101563.101562.089844.175781-.007813.070313-.058594.128906-.132813.144531l-3.382812.8125 3.105468 2.753906c.046876.039063.066407.101563.054688.160157-.007812.058593-.050781.109375-.105469.132812l-2.027343.777344c-.019532.007813-.042969.011719-.0625.011719"/>
  <path fill="#040606" d="M171.714844 232.96875c-.058594 0-.121094-.03125-.152344-.089844l-2.957031-5.507812-1.710938-1.417969c-.074219-.0625-.085937-.171875-.023437-.242187.058594-.074219.167968-.085938.242187-.023438l1.738281 1.441406c.019532.011719.035157.03125.042969.050782l2.972657 5.535156c.046874.085937.015624.191406-.070313.234375-.023437.011719-.050781.019531-.082031.019531m-2.9375-1.644531c-.058594 0-.117188-.03125-.148438-.085938l-2.734375-4.753906c-.046875-.082031-.019531-.1875.066407-.234375.082031-.046875.1875-.019531.234374.0625l2.734376 4.753906c.046874.082032.015624.1875-.066407.234375-.027343.015625-.054687.023438-.085937.023438m5.484375-3.558594c-.019531 0-.035157-.003906-.054688-.011719l-3.492187-1.109375c-.089844-.027343-.140625-.125-.109375-.214843.027343-.089844.125-.144532.214843-.113282l3.402344 1.082032 1.28125-1.109376-4.488281-3.535156c-.078125-.058594-.089844-.167968-.03125-.242187.058594-.074219.167969-.085938.246094-.027344l4.652343 3.664063c.042969.03125.066407.082031.066407.132812.003906.050781-.019531.101562-.058594.132812l-1.515625 1.308594c-.03125.027344-.074219.042969-.113281.042969"/>
  <path fill="#040606" d="M178.910156 235.203125c-.070312 0-.136718-.046875-.164062-.117187l-3.132813-8.742188c-.03125-.089844.015625-.1875.105469-.222656.089844-.03125.1875.015625.222656.105468l3.132813 8.746094c.03125.089844-.015625.1875-.105469.21875-.019531.007813-.039062.011719-.058594.011719m-1.9375-.382813c-.066406 0-.132812-.039062-.160156-.109374l-2.714844-7.058594c-.03125-.089844.011719-.1875.101563-.222656.089843-.035157.1875.011718.222656.101562l2.714844 7.054688c.035156.089843-.011719.191406-.101563.226562-.019531.003906-.039062.007812-.0625.007812m14.503906-.6875c-.042968 0-.089843-.015624-.121093-.046874-.070313-.070313-.070313-.175782-.003907-.246094l2.496094-2.539063-.652344-1.59375c-.023437-.050781-.015624-.113281.015626-.160156l1.769531-2.648437-.738281-1.410157-1.328126 2.742188c-.003906.003906-.003906.007812-.007812.011719l-.917969 1.894531c-.039062.082031-.144531.121093-.230469.078125-.085937-.039063-.121093-.144532-.082031-.230469l.914063-1.878906c0-.003907.003906-.011719.003906-.015625l1.484375-3.058594c.027344-.058594.085937-.097656.152344-.097656.066406 0 .128906.035156.15625.09375l.949219 1.804687c.03125.054688.027343.121094-.007813.175781l-1.777344 2.65625.660157 1.609376c.027343.066406.011718.136718-.035157.1875l-2.574219 2.621093c-.035156.035157-.082031.050781-.125.050781"/>
  <path fill="#040606" d="M184.84375 235.460938c-.042969 0-.085938-.015626-.121094-.046876-.070312-.066406-.070312-.175781-.007812-.246093l6.179687-6.535157 3.210938-3.640624c.03125-.035157.078125-.058594.128906-.058594l4.507813-.03125c.082031.007812.152343.054687.167968.132812.019532.078125-.015625.15625-.085937.195313l-3.5625 1.832031c-.082031.046875-.1875.011719-.234375-.074219-.042969-.082031-.007813-.1875.074218-.230469l2.921876-1.503906-3.710938.023438-3.160156 3.589844-6.183594 6.539062c-.035156.035156-.082031.054688-.125.054688"/>
  <path fill="#040606" d="M187.285156 235.179688c-.042968 0-.085937-.015626-.117187-.046876-.070313-.0625-.074219-.171874-.011719-.242187l.46875-.507813c0-.003906.007812-.011718.011719-.015624l2.640625-2.871094c.003906-.003906.007812-.007813.011718-.011719l1.417969-1.542969c.019531-.023437.050781-.039062.078125-.046875l1.523438-.417969c.089844-.027343.1875.027344.210937.121094.027344.089844-.027343.1875-.121093.210938l-1.472657.40625-1.375 1.492187c0 .003907-.003906.007813-.007812.011719l-2.636719 2.867188c-.007812.003906-.011719.011718-.015625.015624l-.476563.519532c-.035156.039062-.082031.058594-.128906.058594m9.085938-3.296876c-.015625 0-.035156-.003906-.054688-.011718-.089844-.03125-.136718-.128906-.105468-.21875l2.371093-6.632813c.027344-.078125.105469-.128906.1875-.113281.082031.011719.144531.082031.148438.164062l.132812 4.953126c0 .09375-.074219.171874-.171875.175781-.089844-.003907-.171875-.074219-.175781-.167969l-.109375-4.023438-2.058594 5.757813c-.023437.074219-.089844.117187-.164062.117187"/>
  <path fill="#040606" d="M199.457031 229.746094c-.019531 0-.039062 0-.058593-.007813-.09375-.035156-.140626-.132812-.105469-.222656l.527343-1.460937-1.234374-2.910157c-.039063-.089843.003906-.191406.089843-.226562.089844-.039063.191407.003906.226563.089843l1.265625 2.972657c.015625.039062.015625.085937 0 .125l-.550781 1.527343c-.023438.070313-.089844.113282-.160157.113282m-3.828125 2.558594c-.027344 0-.054687-.003907-.078125-.015626l-1.578125-.796874c-.085937-.042969-.121094-.144532-.078125-.230469.042969-.085938.148438-.117188.234375-.074219l1.578125.792969c.085938.042969.121094.144531.078125.230469-.03125.058593-.09375.09375-.15625.09375m-6.578125-7.671876c-.023437 0-.050781-.003906-.074219-.015624-.085937-.039063-.125-.140626-.082031-.226563l.949219-2.066406-.542969-1.609375c-.015625-.054688-.007812-.113282.027344-.160156l.398437-.503907c.003907-.007812.003907-.007812.007813-.015625l.964844-1.226562c.058593-.074219.167969-.089844.242187-.03125.074219.058594.089844.167968.03125.242187l-.957031 1.21875c-.003906.003907-.003906.007813-.007813.011719l-.347656.441406.535156 1.589844c.011719.042969.007813.085938-.007812.125l-.980469 2.128906c-.027343.0625-.089843.097656-.15625.097656"/>
  <path fill="#040606" d="m189.085938 224.152344.058593.113281 2.753907-.574219.136718-3.054687-.34375-.417969c-.003906-.003906-.003906-.007812-.007812-.011719l-.902344-1.085937-1.734375.667968L187.5 221.113281l-.257812 1.972657.503906-.074219c.03125-.003907.058594-.003907.085937.007812l.773438.277344c.039062.015625.074219.046875.09375.085937l.382812.757813s.003907.007813.003907.011719Zm-.035157.480468c-.066406 0-.125-.035156-.15625-.09375l-.121093-.246093c-.003907 0-.003907-.007813-.007813-.011719l-.34375-.683594-.667969-.238281-.6875.101563c-.011718.003906-.023437.003906-.035156.003906-.050781-.003906-.09375-.027344-.125-.0625-.03125-.039063-.046875-.085938-.039062-.132813l.296874-2.265625c.007813-.042968.027344-.082031.058594-.109375l1.621094-1.386719c.015625-.015624.03125-.023437.050781-.03125l1.132813-.4375.746094-.285156c.070312-.027344.148437-.007812.195312.050782L191.960938 220c0 .003906.003906.007812.007812.011719l.375.453125c.03125.035156.042969.078125.042969.121094l-.148438 3.253906c0 .046875-.023437.089844-.054687.121094-.027344.023437-.058594.039062-.089844.042968l-3.007812.625c-.011719.003906-.023438.003906-.035157.003906"/>
  <path fill="#040606" d="M188.546875 223.632812c-.019531 0-.039063 0-.054687-.007812-.09375-.03125-.140626-.128906-.113282-.21875l.921875-2.800781c.03125-.089844.128907-.136719.21875-.109375.09375.03125.140625.128906.109375.21875l-.917968 2.800781c-.027344.070313-.09375.117187-.164063.117187m-.976563 8.941407c-.007812 0-.019531 0-.03125-.003907-.09375-.015624-.15625-.105468-.140624-.199218l1.480468-7.9375c.015625-.097656.109375-.15625.203125-.140625s.15625.105469.136719.199219l-1.476562 7.941406c-.015626.082031-.089844.140625-.171876.140625m3.449219-3.648438c-.011719 0-.023437 0-.035156-.003906-.09375-.019531-.152344-.113281-.132813-.203125l.929688-4.371094v-.011718l.117188-.539063c.015624-.09375.109374-.152344.203124-.132813.09375.019532.152344.109376.132813.203126l-.113281.53125v.011718l-.929688 4.378906c-.019531.082032-.089844.136719-.171875.136719m-.605469 2.847657c-.082031 0-.15625-.0625-.167968-.148438-.015625-.097656.050781-.183594.144531-.195312.097656-.011719.183594.054687.195313.148437.015624.09375-.050782.179687-.148438.195313h-.023438m-4.933593-2.125c-.011719 0-.023438-.003907-.035157-.007813-.089843-.015625-.148437-.105469-.132812-.195313l.007812-.042968.566407-6.464844c.003906-.03125.011719-.058594.027343-.082031l1.277344-1.925781c.050782-.078126.160156-.101563.242188-.050782.078125.054688.101562.160156.046875.242188l-1.25 1.886718-.378907 4.292969 1.019532-4.050781c.023437-.09375.117187-.148438.210937-.125.09375.023438.148438.117188.125.207031l-1.558593 6.183594c-.019532.078125-.089844.132813-.167969.132813"/>
  <path fill="#040606" d="M184.492188 235.480469h-.03125c-.09375-.015625-.15625-.105469-.140626-.199219l.992188-5.835938c.015625-.09375.101562-.15625.199219-.140624.09375.015624.15625.105468.140625.199218l-.988282 5.832032c-.015624.085937-.089843.144531-.171874.144531m-5.460938-35.523438.121094 3.105469 2.089844-.3125 1.839843-1.984375-.28125-5.0625-3.101562 2.507813Zm-.042969 3.480469c-.039062 0-.078125-.015625-.109375-.039062-.039062-.035157-.0625-.078126-.0625-.128907l-.132812-3.335937c0-.023438.003906-.046875.011718-.066406l.699219-1.820313c.007813-.03125.027344-.054687.050781-.074219l3.398438-2.75c.050781-.039062.121094-.050781.179688-.023437.058593.027343.097656.085937.101562.148437l.304688 5.472656c.003906.046876-.011719.09375-.042969.128907l-1.929688 2.078125c-.027343.03125-.0625.046875-.101562.054687l-2.34375.351563c-.007813 0-.015625.003906-.023438.003906"/>
  <path fill="#040606" d="M183.902344 204.261719h-.019532c-.074218-.007813-.136718-.066407-.148437-.140625l-.644531-3.257813c-.019532-.09375.042968-.183593.136718-.203125.09375-.015625.183594.042969.203126.136719l.539062 2.734375 2.316406-5.007812-3.445312-3.035157c-.074219-.066406-.078125-.171875-.015625-.246093.0625-.070313.171875-.078126.246093-.015626l3.539063 3.125c.058594.046876.074219.128907.042969.199219l-2.59375 5.609375c-.027344.0625-.089844.101563-.15625.101563m1.417968 25.199219L181.15625 202.9375c-.011719-.09375.050781-.183594.144531-.199219.097657-.011719.183594.050781.199219.144531l4.160156 26.511719-.339844.066407m-4.011718 6.007812c-.089844 0-.164063-.070312-.171875-.160156l-2.320313-32.03125c-.007812-.097656.0625-.179688.160156-.1875.097657-.007813.175782.066406.183594.160156l2.324219 32.03125c.003906.097656-.066406.179688-.164063.183594-.003906.003906-.007812.003906-.011718.003906"/>
  <path fill="#040606" d="M189.117188 215.929688c-.082032 0-.15625-.0625-.171876-.148438l-2.621093-17.277344c-.015625-.09375.050781-.183594.144531-.195312.09375-.015625.183594.050781.199219.144531l2.621093 17.277344c.015626.09375-.050781.179687-.144531.195312-.007812 0-.019531.003907-.027343.003907M192.75 228.339844c-.085938 0-.160156-.0625-.171875-.148438-.011719-.097656.054687-.183594.148437-.195312.097657-.011719.183594.054687.195313.148437.011719.09375-.054687.179688-.148437.195313H192.75m-4.988281 6.316406c-.085938 0-.160157-.0625-.171875-.148438v-.003906c-.011719-.09375.058594-.179687.152344-.191406.09375-.011719.179687.054688.191406.148438.015625.097656-.054688.183593-.148438.195312h-.023437m-1.5-11.832031c-.085938 0-.160157-.066407-.171875-.152344l-2.359375-18.5625c-.011719-.09375.054687-.179687.152343-.191406.09375-.011719.179688.054687.191407.148437l2.359375 18.5625c.011718.09375-.054688.179688-.152344.191406-.007812.003907-.011719.003907-.019531.003907m-18.59375-10.617188 2.804687.0625.585938-1.804687-.820313-1.902344-1.050781.449219Zm2.929687.410157h-.003906l-3.199219-.074219c-.058593 0-.113281-.03125-.144531-.082031-.03125-.046876-.035156-.109376-.007812-.164063l1.660156-3.492187c.019531-.039063.050781-.070313.089844-.085938l1.265624-.542969c.042969-.019531.089844-.019531.132813-.003906.042969.019531.078125.050781.097656.09375l.914063 2.121094c.015625.039062.019531.082031.003906.121093l-.644531 1.988282c-.023438.074218-.089844.121094-.164063.121094"/>
  <path fill="#040606" d="M175.421875 226.179688c-.070313 0-.136719-.046876-.164063-.117188l-4.824218-13.558594c-.015625-.050781-.011719-.101562.015625-.148437.027343-.042969.070312-.074219.121093-.082031l2.984376-.460938.09375-1.613281-3.398438-1.710938c-.085938-.042969-.121094-.148437-.078125-.230469.042969-.085937.148437-.121093.234375-.078124l3.5 1.765624c.058594.027344.097656.09375.09375.164063l-.105469 1.867187c-.007812.078126-.066406.144532-.148437.160157l-2.914063.445312 4.753907 13.367188c.03125.089843-.015626.1875-.105469.21875-.019531.007812-.039063.011719-.058594.011719m-4.710937-3.605469c-.078126 0-.148438-.050781-.167969-.125l-2.640625-7.71875c-.03125-.089844.015625-.191407.109375-.21875.089843-.03125.1875.015625.21875.105469l2.644531 7.730468c.003906.011719.003906.023438.007812.035156.011719.09375-.058593.179688-.152343.191407h-.019531m1.558593 4.554687c-.078125 0-.148437-.050781-.167969-.128906-.023437-.09375.03125-.1875.125-.210938.09375-.023437.1875.035157.210938.125.023438.09375-.035156.1875-.125.210938-.015625.003906-.03125.003906-.042969.003906m-2.042969-4.121094c-.089843 0-.164062-.066406-.175781-.152343-.011719-.09375.054688-.183594.152344-.195313.09375-.011718.179687.058594.191406.152344.011719.09375-.054687.183594-.148437.191406-.007813.003906-.015625.003906-.019532.003906"/>
  <path fill="#040606" d="M170.007812 222.207031c-.078124 0-.148437-.050781-.167968-.128906l-2.609375-9.660156c-.023438-.09375.03125-.1875.121093-.214844.09375-.023437.1875.03125.214844.125l2.609375 9.660156c.023438.09375-.03125.1875-.125.210938-.015625.003906-.027343.007812-.042969.007812m10.964844 8.730469c-.070312 0-.136718-.042969-.15625-.117188v-.003906l-7.257812-18.789062c-.035156-.089844.011718-.191406.097656-.222656.089844-.035157.191406.007812.226562.097656l7.261719 18.808594c.023438.09375-.027343.195312-.121093.21875-.015626.007812-.035157.007812-.050782.007812m-.199218 4.492188c-.070313 0-.136719-.046876-.160157-.117188l-3.03125-8.617188c-.027343-.085937.015625-.183593.101563-.21875.089844-.03125.1875.007813.222656.09375l3.527344 8.175782c.007812.023437.015625.042968.015625.066406 0 .097656-.078125.175781-.175781.175781-.074219 0-.140626-.050781-.164063-.121093l-1.546875-3.585938 1.375 3.914062c.03125.09375-.015625.191407-.105469.222657-.019531.007812-.039062.011719-.058593.011719m-.191407-10c-.066406 0-.128906-.039063-.160156-.101563l-6.753906-15.160156c-.039063-.085938 0-.1875.089843-.226563.085938-.039062.1875 0 .226563.085938l6.757813 15.160156c.039062.085938-.003907.1875-.089844.226562-.023438.011719-.046875.015626-.070313.015626m14.039063-14.074219 1.449218 2.078125.925782-.128906-.40625-3.226563-1.707032-2.402344Zm1.367187 2.4375c-.058593 0-.109375-.027344-.144531-.074219L194.304688 211.5c-.023438-.03125-.035157-.070312-.03125-.109375l.300781-4.222656c.003906-.074219.054687-.132813.125-.152344.070312-.019531.144531.003906.1875.0625l2.011719 2.835937c.015624.023438.027343.050782.03125.078126l.429687 3.4375c.011719.09375-.054687.179687-.148437.191406l-1.199219.171875h-.023438m-5.886719 16.105469c-.097656 0-.175781-.078126-.175781-.171876 0-.097656.078125-.175781.175781-.175781.09375 0 .171876.078125.171876.175781 0 .09375-.078126.171876-.171876.171876"/>
  <path fill="#040606" d="M192.785156 212.175781c-.082031 0-.152344-.058593-.167968-.140625l-.851563-4.242187c-.019531-.09375.042969-.183594.136719-.203125l2.808594-.578125c.09375-.019531.1875.039062.203124.132812.019532.09375-.039062.1875-.132812.203125l-2.640625.546875.816406 4.074219c.019531.09375-.042969.183594-.136719.203125-.011718 0-.023437.003906-.035156.003906m-4.359375 19.496094c-.011719 0-.015625 0-.023437-.003906-.09375-.011719-.164063-.097657-.148438-.191407.011719-.09375.097656-.160156.191406-.148437.097657.011719.164063.097656.148438.191406-.011719.089844-.082031.152344-.167969.152344m3.347657-3.597656c-.015626 0-.035157-.003907-.050782-.007813-.089844-.027344-.144531-.125-.117187-.214844l4.214843-14.277343c.027344-.09375.125-.144531.214844-.117188.09375.023438.144532.121094.117188.210938l-4.214844 14.28125c-.023438.074219-.089844.125-.164062.125m2.265624-2.390625c-.09375 0-.171874-.078125-.171874-.175782 0-.011718 0-.023437.003906-.035156l.050781-.234375 3.097656-11.832031c.023438-.089844.117188-.148438.210938-.121094.09375.023438.148437.117188.125.207032l-3.097657 11.820312-.046874.226562c-.015626.082032-.085938.144532-.171876.144532m-7.3125-.980469c-.003906 0-.011718 0-.019531-.003906-.09375-.011719-.160156-.097657-.148437-.191407.011718-.09375.097656-.164062.191406-.148437.09375.011719.164062.097656.152344.191406-.011719.085938-.085938.152344-.175782.152344m.40625-1.964844c-.011718 0-.023437-.003906-.039062-.007812-.09375-.019531-.152344-.109375-.128906-.203125v-.003906c.019531-.082032.089844-.140626.179687-.136719.09375.003906.167969.082031.164063.179687 0 .007813 0 .023438-.003906.035156-.019532.078126-.089844.136719-.171876.136719m1.792969 1.652344c-.09375 0-.171875-.078125-.171875-.171875v-.003906c0-.09375.078125-.171875.171875-.171875.097657 0 .171875.078125.171875.171875 0 .097656-.074218.175781-.171875.175781m.945313-4.074219c-.097656 0-.171875-.078125-.171875-.171875 0-.097656.074219-.175781.171875-.175781s.171875.078125.171875.175781c0 .09375-.074219.171875-.171875.171875m.21875-.941406c-.007813 0-.019532-.003906-.03125-.003906-.09375-.019532-.15625-.105469-.140625-.203125l1.398437-7.703125c.019532-.09375.105469-.160156.203125-.140625.09375.015625.15625.105469.140625.199219l-1.398437 7.707031c-.015625.085937-.089844.144531-.171875.144531"/>
  <path fill="#040606" d="M187.949219 220.671875c-.011719 0-.027344-.003906-.039063-.003906-.09375-.023438-.152344-.117188-.128906-.210938l2.5625-10.40625c.003906-.015625.011719-.03125.019531-.046875l1.425781-2.332031c.050782-.082031.15625-.109375.238282-.058594.078125.046875.105468.15625.054687.234375l-1.410156 2.3125-2.554687 10.378906c-.015626.082032-.085938.132813-.167969.132813"/>
  <path fill="#040606" d="M191.824219 220.28125c-.09375 0-.171875-.074219-.171875-.171875 0-.015625 0-.035156.007812-.050781l2.519532-8.375-1.335938.480468c-.039062.015626-.082031.015626-.121094 0l-1.296875-.511718c-.03125-.011719-.0625-.03125-.078125-.058594l-.980468-1.402344c-.050782-.078125-.03125-.183594.046874-.242187.078126-.050781.183594-.035157.242188.046875l.945312 1.355468 1.1875.464844 1.597657-.574218c.0625-.023438.128906-.007813.179687.035156.046875.046875.066406.113281.046875.175781l-2.621093 8.699219c-.019532.074218-.085938.128906-.167969.128906m36.164062 14.085938 2.824219 1.761718 2.402344-3.339844.472656-3.566406-2.886719 2.710938Zm2.871094 2.167968c-.03125 0-.066406-.007812-.09375-.027344l-3.160156-1.972656c-.046875-.027344-.078125-.078125-.082031-.132812-.003907-.054688.019531-.109375.058593-.144532l2.988281-2.582031 3.234376-3.039062c.054687-.050781.132812-.0625.199218-.027344.0625.035156.101563.105469.089844.175781l-.539062 4.089844c-.003907.027344-.015626.054688-.03125.078125L231 236.464844c-.035156.046875-.085938.070312-.140625.070312"/>
  <path fill="#040606" d="M230.683594 231.980469c-.058594 0-.117188-.03125-.148438-.082031l-2.191406-3.609376c-.035156-.058593-.035156-.128906 0-.183593.035156-.054688.101562-.085938.164062-.078125l5.433594.5625c.09375.011718.164063.097656.152344.191406-.007812.09375-.09375.164062-.1875.152344l-5.085938-.527344 2.011719 3.3125c.050781.082031.023438.1875-.058593.234375-.027344.019531-.058594.027344-.089844.027344m-6.308594 5.726562c-.0625 0-.125-.035156-.152344-.09375-.035156-.066406-.019531-.148437.035156-.203125l3.320313-3.148437c.066406-.0625.175781-.058594.242187.007812.066407.070313.0625.179688-.003906.246094l-2.902344 2.746094 5.914063-1.070313c.09375-.015625.183594.046875.199219.140625.019531.09375-.042969.183594-.140625.199219l-6.480469 1.175781h-.03125"/>
  <path fill="#040606" d="M224.375 237.707031c-.023438 0-.046875-.003906-.070312-.011719-.085938-.039062-.125-.140624-.085938-.230468l4.113281-9.335938c.039063-.085937.140625-.125.230469-.085937.085938.035156.125.140625.085938.226562l-4.113282 9.335938c-.03125.0625-.09375.101562-.160156.101562m-85.632812-48.128906 3.152343.726563-1.871093-5.070313Zm3.425781 1.136719c-.011719 0-.023438 0-.039063-.003906l-3.640625-.835938c-.046875-.011719-.085937-.042969-.113281-.082031-.023438-.042969-.03125-.089844-.015625-.136719l1.480469-5.023438c.019531-.070312.085937-.121093.160156-.125.070312 0 .140625.046876.167969.117188l2.164062 5.859375c.023438.058594.007813.125-.035156.171875-.03125.039062-.078125.058594-.128906.058594"/>
  <path fill="#040606" d="M146.910156 198.824219h-.007812l-3.511719-.199219c-.027344-.003906-.058594-.011719-.085937-.03125l-2.578126-1.703125c-.035156-.019531-.058593-.054687-.070312-.089844l-2.296875-7.042969c-.027344-.089843.019531-.1875.113281-.214843.089844-.03125.1875.019531.21875.109375l2.277344 6.984375 2.492188 1.644531 3.304687.191406.613281-3.4375-2.988281-7.835937-4.464844-2.363281c-.085937-.046876-.117187-.152344-.070312-.234376.042969-.082031.148437-.117187.230469-.070312l4.523437 2.394531c.039063.019531.066406.050781.082031.089844l3.027344 7.941406c.011719.03125.015625.0625.007812.09375l-.644531 3.632813c-.015625.082031-.085937.140625-.171875.140625"/>
  <path fill="#040606" d="m143.550781 198.285156 3.046875.175782-4.117187-7.042969Zm3.359375.539063h-.007812l-3.511719-.199219c-.082031-.007812-.148437-.066406-.160156-.148438L142 190.574219c-.007812-.046875 0-.09375.027344-.132813l2.359375-3.460937c.050781-.078125.160156-.101563.238281-.046875.082031.054687.101562.160156.046875.238281l-2.296875 3.378906 4.6875 8.015625c.03125.054688.027344.121094-.003906.175782-.03125.050781-.085938.082031-.148438.082031m69.476563-21.59375 3.40625 3.261719 3.367187-2.472657-4.398437-4.738281Zm3.394531 3.65625c-.046875 0-.089844-.015625-.121094-.046875l-3.613281-3.453125c-.058594-.058594-.070313-.144531-.027344-.214844l2.566407-4.265625c.027343-.046875.074218-.078125.128906-.082031.054687-.003907.109375.015625.144531.054687l4.6875 5.046875c.03125.035157.050781.085938.046875.132813-.007812.050781-.03125.09375-.070312.125l-3.640626 2.671875c-.03125.023437-.066406.03125-.101562.03125"/>
  <path fill="#040606" d="M217.53125 186h-.019531c-.078125-.011719-.136719-.070312-.148438-.144531l-1.367187-8.570313c-.015625-.09375.046875-.179687.144531-.195312.089844-.015625.179687.050781.195313.144531l1.273437 7.984375 2.011719-4.570312c.039062-.089844.140625-.128907.226562-.089844.089844.039062.128906.140625.089844.226562l-2.246094 5.113282c-.027344.0625-.089844.101562-.160156.101562"/>
  <path fill="#040606" d="M217.53125 186c-.0625 0-.125-.035156-.152344-.09375-.042968-.085938-.007812-.191406.078125-.230469l5.277344-2.582031.511719-5.066406c.011718-.09375.097656-.164063.191406-.15625.09375.011718.164062.09375.15625.1875l-.523438 5.164062c-.003906.058594-.042968.113282-.09375.136719l-5.367187 2.625c-.023437.011719-.050781.015625-.078125.015625m-41.785156-37.796875 2.902344.191406 1.023437-5.296875-3.101563 2.746094Zm3.046875.546875h-.011719l-3.285156-.21875c-.054688-.003906-.101563-.03125-.132813-.078125-.03125-.042969-.035156-.101563-.019531-.152344l.914062-2.609375c.007813-.03125.027344-.054687.046876-.074218L179.824219 142.5c.054687-.050781.132812-.058594.199219-.023438.0625.039063.097656.113282.085937.183594l-1.148437 5.949219c-.015626.082031-.085938.140625-.167969.140625"/>
  <path fill="#040606" d="M179.417969 155.375c-.0625 0-.121094-.03125-.152344-.085938l-3.910156-6.84375c-.046875-.085937-.015625-.191406.066406-.238281s.1875-.015625.234375.066407l3.910156 6.84375c.046875.082031.019532.1875-.066406.234374-.027344.015626-.054688.023438-.082031.023438"/>
  <path fill="#040606" d="m178.972656 148.6875.546875 5.761719 2.761719-7.1875Zm.445313 6.6875c-.011719 0-.019531 0-.023438-.003906-.082031-.011719-.144531-.074219-.152343-.152344l-.625-6.625c-.003907-.074219.035156-.144531.105468-.175781l3.617188-1.558594-2.550782-4.140625c-.050781-.082031-.023437-.1875.058594-.238281.082032-.050781.1875-.023438.238282.058593l2.652343 4.308594c.003907.003906.007813.011719.007813.019532.003906.003906.003906.007812.007812.007812.015625.042969.015625.085938 0 .128906l-3.175781 8.257813c-.027344.070312-.089844.113281-.160156.113281m-20.136719 70.027344c-1 .234375-1.742188 1.125-1.742188 2.1875 0 1.066406.742188 1.957031 1.742188 2.191406-.734375-.464844-1.207031-1.28125-1.207031-2.191406 0-.910156.472656-1.722656 1.207031-2.1875Zm.515625 4.78125c-1.4375 0-2.605469-1.160156-2.605469-2.59375 0-1.429688 1.167969-2.59375 2.605469-2.59375.15625 0 .3125.015625.472656.042968.082031.015626.140625.085938.140625.171876 0 .082031-.058594.152343-.140625.167968-1.074219.195313-1.847656 1.125-1.847656 2.210938 0 1.089844.773437 2.015625 1.847656 2.210937.082031.015625.140625.089844.140625.171875 0 .085938-.058594.15625-.140625.167969-.160156.03125-.316406.042969-.472656.042969Zm46.804687-4.78125c.734376.464844 1.207032 1.277344 1.207032 2.1875s-.472656 1.726562-1.207032 2.191406c1-.234375 1.742188-1.125 1.742188-2.191406 0-1.0625-.742188-1.953125-1.742188-2.1875Zm-.515624 4.78125c-.15625 0-.3125-.011719-.46875-.042969-.082032-.011719-.144532-.082031-.144532-.167969 0-.082031.0625-.15625.144532-.171875 1.070312-.195312 1.847656-1.121093 1.847656-2.210937 0-1.085938-.777344-2.015625-1.847656-2.210938-.082032-.015625-.144532-.085937-.144532-.167968 0-.085938.0625-.15625.144532-.171876.15625-.027343.3125-.042968.46875-.042968 1.4375 0 2.605468 1.164062 2.605468 2.59375 0 1.433594-1.167968 2.59375-2.605468 2.59375Zm-40.878907 1.808594c-1.246093 0-2.257812 1.011718-2.257812 2.25 0 1.242187 1.011719 2.25 2.257812 2.25.234375 0 .460938-.035157.675781-.101563-.710937-.480469-1.140624-1.273437-1.140624-2.148437s.429687-1.667969 1.140624-2.144532c-.214843-.070312-.441406-.105468-.675781-.105468Zm0 4.847656c-1.433593 0-2.601562-1.167969-2.601562-2.597656 0-1.429688 1.167969-2.59375 2.601562-2.59375.402344 0 .789063.089843 1.148438.265624.058593.027344.09375.089844.09375.152344 0 .066406-.035157.128906-.09375.15625-.78125.382813-1.265625 1.15625-1.265625 2.019532 0 .867187.484375 1.640624 1.265625 2.019531.058593.03125.09375.089843.09375.15625 0 .066406-.035157.125-.09375.15625-.359375.175781-.746094.265625-1.148438.265625ZM200 236.390625c.214844.066406.445312.101563.675781.101563 1.246094 0 2.257813-1.007813 2.257813-2.25 0-1.238282-1.011719-2.25-2.257813-2.25-.230469 0-.460937.035156-.675781.105468.710938.476563 1.140625 1.269532 1.140625 2.144532 0 .875-.429687 1.667968-1.140625 2.148437Zm.675781.449219c-.402343 0-.785156-.089844-1.144531-.265625-.058594-.03125-.097656-.089844-.097656-.15625 0-.066407.039062-.125.097656-.15625.777344-.378907 1.261719-1.152344 1.261719-2.019531 0-.863282-.484375-1.636719-1.261719-2.019532-.058594-.027344-.097656-.089844-.097656-.15625 0-.0625.039062-.125.097656-.152344.359375-.175781.742188-.265624 1.144531-.265624 1.433594 0 2.605469 1.164062 2.605469 2.59375 0 1.429687-1.171875 2.597656-2.605469 2.597656Zm-27.542969-.523438c-1.246093 0-2.257812 1.011719-2.257812 2.25 0 1.238282 1.011719 2.25 2.257812 2.25.476563 0 .9375-.152344 1.320313-.425781-.515625-.492187-.808594-1.164063-.808594-1.882813 0-.679687.269531-1.328124.742188-1.8125-.371094-.25-.800781-.378906-1.253907-.378906Zm0 4.84375c-1.4375 0-2.605468-1.164062-2.605468-2.59375 0-1.429687 1.167968-2.59375 2.605468-2.59375.59375 0 1.171876.203125 1.632813.574219.039063.03125.0625.078125.0625.128906 0 .050781-.019531.101563-.058594.132813-.496093.429687-.777343 1.050781-.777343 1.699218 0 .683594.304687 1.324219.839843 1.753907.042969.03125.066407.078125.066407.132812 0 .050781-.023438.097657-.058594.132813-.476563.410156-1.082032.632812-1.707032.632812Zm18.296876-.769531c.382812.273437.84375.425781 1.320312.425781 1.246094 0 2.257812-1.011718 2.257812-2.25 0-1.238281-1.011718-2.25-2.257812-2.25-.453125 0-.882812.128906-1.253906.378906.476562.484376.742187 1.132813.742187 1.8125 0 .71875-.292969 1.390626-.808593 1.882813Zm1.320312.769531c-.625 0-1.230469-.222656-1.703125-.632812-.039063-.035156-.0625-.082032-.0625-.132813.003906-.054687.027344-.101562.066406-.132812.535157-.429688.839844-1.070313.839844-1.753907 0-.648437-.28125-1.269531-.777344-1.699218-.039062-.03125-.0625-.082032-.058593-.132813 0-.050781.023437-.097656.0625-.128906.460937-.371094 1.042968-.574219 1.632812-.574219 1.4375 0 2.605469 1.164063 2.605469 2.59375 0 1.429688-1.167969 2.59375-2.605469 2.59375Zm-9.339844-2.480468c-1.242187 0-2.257812 1.011718-2.257812 2.25 0 1.242187 1.015625 2.25 2.257812 2.25 1.246094 0 2.257813-1.007813 2.257813-2.25 0-1.238282-1.011719-2.25-2.257813-2.25Zm0 4.847656c-1.433594 0-2.605468-1.164063-2.605468-2.597656 0-1.429688 1.171874-2.59375 2.605468-2.59375 1.4375 0 2.605469 1.164062 2.605469 2.59375 0 1.433593-1.167969 2.597656-2.605469 2.597656Zm-23.328125-47.207032c-4.777343 5.492188-7.386719 12.445313-7.386719 19.769532 0 16.667968 13.605469 30.226562 30.332032 30.226562 16.722656 0 30.328125-13.558594 30.328125-30.226562 0-7.324219-2.609375-14.277344-7.382813-19.769532 2.234375 3.933594 3.410156 8.371094 3.410156 12.9375 0 14.480469-11.824218 26.265626-26.355468 26.265626-14.535156 0-26.359375-11.785157-26.359375-26.265626 0-4.566406 1.175781-9.003906 3.414062-12.9375Zm22.945313 50.339844c-16.917969 0-30.675782-13.714844-30.675782-30.570312 0-8.007813 3.082032-15.578125 8.6875-21.316406.0625-.066407.164063-.070313.230469-.015626.070313.054688.085938.15625.039063.230469-2.808594 4.234375-4.292969 9.167969-4.292969 14.269531 0 14.292969 11.667969 25.917969 26.011719 25.917969 14.339844 0 26.007812-11.625 26.007812-25.917969 0-5.101562-1.484375-10.035156-4.289062-14.269531-.050782-.074219-.035156-.175781.035156-.230469.070312-.054687.167969-.050781.230469.015626 5.605469 5.738281 8.691406 13.308593 8.691406 21.316406 0 16.855468-13.761719 30.570312-30.675781 30.570312"/>
  <g clip-path="url(#a)">
    <path fill="#040606" d="M135.230469 208.109375c.199219 2.800781.777343 3.046875 2.300781 3.167969-1.523438.136718-2.253906.746094-2.328125 3.347656-.226563-2.601562-.917969-3.285156-2.273437-3.347656 1.382812-.109375 2.027343-.414063 2.300781-3.167969"/>
  </g>
  <path fill="#040606" d="M203.941406 148.816406c.808594.308594 1.289063 1.015625 1.5625 2.304688.246094-1.386719.804688-2.011719 1.65625-2.296875-.875-.226563-1.359375-.761719-1.613281-2.273438-.296875 1.46875-.808594 2.027344-1.605469 2.265625Zm1.597656 3.984375c-.089843 0-.164062-.066406-.171874-.160156-.261719-3-1.058594-3.605469-2.433594-3.667969-.09375-.003906-.164063-.078125-.167969-.167968 0-.089844.070313-.167969.160156-.175782 1.410157-.113281 2.164063-.316406 2.472657-3.460937.007812-.089844.082031-.167969.171874-.15625.09375 0 .167969.070312.171876.160156.222656 3.121094.808593 3.324219 2.472656 3.457031.089844.007813.160156.082032.160156.171875 0 .089844-.070312.164063-.160156.171875-1.628906.148438-2.421875.730469-2.5 3.660156-.003906.089844-.078125.164063-.167969.167969h-.007813m-50.1875 98.164063c0 .574218.464844 1.035156 1.039063 1.035156s1.039063-.460938 1.039063-1.035156c0-.570313-.464844-1.035156-1.039063-1.035156s-1.039063.464843-1.039063 1.035156m71.609376-83.488282c0 .574219.464843 1.035157 1.039062 1.035157.574219 0 1.039062-.460938 1.039062-1.035157 0-.570312-.464843-1.035156-1.039062-1.035156-.574219 0-1.039062.464844-1.039062 1.035156m-7.878907 47.78125c0 .304688.25.550782.554688.550782.304687 0 .550781-.246094.550781-.550782 0-.304687-.246094-.550781-.550781-.550781-.304688 0-.554688.246094-.554688.550781m-21.429687-43.863281c0 .304688.25.554688.554687.554688.308594 0 .554688-.25.554688-.554688 0-.304687-.246094-.550781-.554688-.550781-.304687 0-.554687.246094-.554687.550781M167.5 199.6875c0 .304688.246094.550781.550781.550781.308594 0 .554688-.246093.554688-.550781 0-.304688-.246094-.550781-.554688-.550781-.304687 0-.550781.246093-.550781.550781m-32.269531-33.578125c-.332031 0-.601563.269531-.601563.597656 0 .328125.269532.597657.601563.597657.332031 0 .601562-.269532.601562-.597657s-.269531-.597656-.601562-.597656Zm0 1.542969c-.519531 0-.945313-.425782-.945313-.945313s.425782-.945312.945313-.945312c.523437 0 .945312.425781.945312.945312s-.421875.945313-.945312.945313"/>
  <g clip-path="url(#b)">
    <path fill="#040606" d="M241.554688 187.136719c-.296876 0-.539063.242187-.539063.539062 0 .292969.242187.535157.539063.535157.296874 0 .535156-.242188.535156-.535157 0-.296875-.238282-.539062-.535156-.539062Zm0 1.421875c-.488282 0-.886719-.398438-.886719-.882813 0-.488281.398437-.882812.886719-.882812.488281 0 .882812.394531.882812.882812 0 .484375-.394531.882813-.882812.882813"/>
  </g>
  <path fill="#040606" d="M176.214844 173.394531c.300781.171875.511718.46875.652344.925781.128906-.457031.355468-.75.703124-.921874-.335937-.140626-.546874-.398438-.679687-.894532-.144531.484375-.355469.746094-.675781.890625Zm.675781 2.25c-.089844 0-.164063-.066406-.171875-.15625-.136719-1.589843-.550781-1.90625-1.257812-1.9375-.09375-.003906-.164063-.078125-.167969-.171875 0-.089844.070312-.167968.160156-.171875.75-.0625 1.117187-.164062 1.28125-1.828125.011719-.089844.082031-.167968.175781-.15625.089844 0 .164063.070313.171875.160156.121094 1.730469.460938 1.757813 1.28125 1.824219.089844.003907.160157.078125.160157.167969 0 .089844-.070313.167969-.160157.175781-.84375.074219-1.257812.382813-1.296875 1.929688-.003906.089843-.078125.164062-.167968.164062h-.007813m53.613281 30.949219c.367188.195312.613282.546875.777344 1.105469.144531-.554688.40625-.902344.828125-1.097657-.390625-.148437-.644531-.445312-.800781-1.082031-.164063.601563-.414063.914063-.804688 1.074219Zm.804688 2.492188c-.089844 0-.167969-.070313-.171875-.160157-.15625-1.78125-.621094-2.140625-1.421875-2.175781-.09375-.003906-.167969-.078125-.167969-.167969 0-.09375.070313-.171875.160156-.175781.847657-.070312 1.261719-.183594 1.445313-2.054688.011718-.089843.089844-.164062.175781-.15625.089844.003907.164063.070313.171875.160157.136719 1.945312.519531 1.976562 1.445312 2.050781.089844.003906.160157.082031.160157.167969 0 .089843-.070313.167969-.15625.175781-.957031.085938-1.421875.429688-1.46875 2.167969-.003907.089843-.078125.164062-.167969.164062-.003906 0-.003906.003907-.003906.003907m-74.910156-28.703126c-.628907 0-1.140626.511719-1.140626 1.136719 0 .628907.511719 1.140625 1.140626 1.140625.628906 0 1.140624-.511718 1.140624-1.140625 0-.625-.511718-1.136719-1.140624-1.136719Zm0 2.621094c-.820313 0-1.488282-.664062-1.488282-1.484375 0-.816406.667969-1.480469 1.488282-1.480469.820312 0 1.488281.664063 1.488281 1.480469 0 .820313-.667969 1.484375-1.488281 1.484375"/>
  <g clip-path="url(#c)">
    <path fill="#040606" d="M198.425781 115.1875c-.792969 0-1.503906-.179688-1.980469-.46875-.0625-.035156-.117187-.089844-.152343-.152344-.289063-.476562-.472657-1.183594-.472657-1.972656 0 .789062-.179687 1.496094-.46875 1.972656-.039062.0625-.09375.117188-.15625.152344-.476562.289062-1.1875.46875-1.976562.46875.789062 0 1.5.183594 1.976562.46875.0625.039062.117188.09375.15625.15625.289063.476562.46875 1.183594.46875 1.972656 0-.789062.183594-1.496094.472657-1.972656.035156-.0625.089843-.117188.152343-.15625.476563-.285156 1.1875-.46875 1.980469-.46875"/>
  </g>
  <g clip-path="url(#d)">
    <path fill="#040606" d="M189.078125 259.8125c-.792969 0-1.503906-.183594-1.980469-.46875-.0625-.039062-.117187-.09375-.15625-.15625-.285156-.476562-.46875-1.183594-.46875-1.972656 0 .789062-.179687 1.496094-.46875 1.972656-.039062.0625-.09375.117188-.15625.15625-.476562.285156-1.1875.46875-1.980468.46875.792968 0 1.503906.179688 1.980468.46875.0625.035156.117188.089844.15625.152344.289063.476562.46875 1.183594.46875 1.972656 0-.789062.183594-1.496094.46875-1.972656.039063-.0625.09375-.117188.15625-.152344.476563-.289062 1.1875-.46875 1.980469-.46875"/>
  </g>
  <path fill="#040606" d="M197.445312 190.515625c-.441406 0-1.855468-.09375-2.292968-.242187.199218-.28125.539062-.664063.679687-.808594-.148437.148437-.554687.507812-.839843.703125-.003907-.007813-.011719-.015625-.019532-.023438-.171875-.289062-.28125-1.765625-.28125-2.242187 0 .476562-.109375 1.953125-.28125 2.242187-.304687-.222656-.742187-.609375-.890625-.757812.144531.144531.523438.570312.746094.871093-.390625.160157-1.925781.257813-2.378906.257813.476562 0 2.144531.109375 2.429687.28125.003906.003906.011719.007813.015625.011719-.207031.300781-.652343.804687-.8125.964844.15625-.15625.625-.570313.933594-.785157.144531.453125.238281 1.886719.238281 2.324219 0-.445312.097656-1.933594.25-2.351562.296875.199218.789063.628906.949219.789062-.164063-.164062-.609375-.667969-.804687-.960938.328124-.167968 1.894531-.273437 2.359374-.273437m-37.289062-41.792969c-.601562 0-2.542969-.128906-3.140625-.335937.273437-.382813.738281-.90625.933594-1.101563-.203125.203125-.761719.691406-1.152344.960938-.007813-.011719-.019531-.023438-.023437-.035156-.238282-.390626-.386719-2.417969-.386719-3.066407 0 .648438-.152344 2.675781-.386719 3.066407-.417969-.304688-1.019531-.832032-1.21875-1.035157.195312.199219.714844.777344 1.019531 1.195313-.535156.214844-2.636719.351562-3.257812.351562.648437 0 2.933593.148438 3.328125.386719.007812.003906.015625.007813.019531.011719-.28125.414062-.890625 1.101562-1.109375 1.320312.210938-.207031.855469-.777344 1.273438-1.074218.203124.621093.332031 2.589843.332031 3.1875 0-.609376.128906-2.648438.339843-3.226563.40625.273437 1.082032.867187 1.300782 1.085937-.226563-.226562-.835938-.917968-1.101563-1.320312.449219-.226562 2.59375-.371094 3.230469-.371094m.878906-25.785156c0 .503906-.410156.914062-.917968.914062-.503907 0-.914063-.410156-.914063-.914062s.410156-.914062.914063-.914062c.507812 0 .917968.410156.917968.914062"/>
</svg>
