<svg xmlns="http://www.w3.org/2000/svg" fill="none" viewBox="0 0 150 159">
  <path fill="#D8CBC4" fill-rule="evenodd" d="M150 83.6098C147.973 125.605 115.193 159 75.0469 159 33.6016 159 0 123.413 0 79.5042 0 35.5914 33.6016 0 75.0469 0c3.5625 0 7.1094.265484 10.6367.796452C80.6094 1.31912 75.6758 2.50136 70.8867 4.339v3.51767c.3985.1037.7305.3277.9844.672.2539.3443.3828.73423.3828 1.17394 0 .43969-.1289.82959-.3828 1.17389-.2539.3443-.5859.5683-.9844.6721v8.0142c.25.0623.4883.1701.7071.3153.2187.1493.4101.3277.5703.5434.164.2157.2851.4522.3711.7135.0859.2613.1289.5268.1289.8048 0 .2737-.043.5392-.1289.8006-.086.2613-.2071.4977-.3711.7134-.1602.2158-.3516.3983-.5703.5435-.2188.1493-.4571.253-.7071.3152v5.6664l1.3516 8.1098 6.0429 2.0284-6.457 1.5929-1.5039 11.9012-1.8633-11.8638-6.0664-1.622 6.1133-1.9455 1.2266-7.7032v-6.1891c-.4883-.1493-.8867-.4438-1.1953-.8752-.3047-.4356-.4571-.9209-.4571-1.4643 0-.5393.1524-1.0288.4571-1.4602.3086-.4356.707-.7259 1.1953-.8794v-8.1554c-.3242-.1493-.586-.3857-.7774-.701-.1953-.3153-.2929-.6637-.2929-1.04119 0-.37749.0976-.72179.2929-1.03705.1914-.31941.4532-.55171.7774-.70519V4.79945C46.957 14.1329 30.8047 37.5494 30.8047 64.9689c-.0078 5.7079.6875 11.3204 2.0937 16.8292 1.4024 5.5129 3.461 10.7314 6.1797 15.6594l-2.625-25.9096v-.0829c.0117-.0166.0117-.0291.0117-.0457.004-.029.0079-.0539.0196-.0829l.082-.1245 16.3555-20.3468c.0195-.0249.0429-.0498.0703-.0706.0156-.0124.0312-.0248.0508-.0331.0273-.0166.0547-.0291.082-.0374.0234-.0083.0469-.0124.0703-.0124h.1016c.0063.0013.0122.0027.018.004.0121.0028.0235.0056.0367.0084l.0468.0249.0508.0291c.0196.0165.0352.029.0469.0456.0078.0041.0234.0207.0234.0207l17.8907 18.5549.0351-.1577v-.0124l.0235-.0705c.0078-.0249.0195-.0457.0351-.0664v-.0124l.0117-.0166.0156-.0208c.004-.0166.0157-.0166.0157-.0166.0078-.0124.0195-.0124.0195-.0124l.0195-.0208.0313-.0207 22.582-16.879c.0044-.0046.01-.008.0154-.0107.0043-.0022.0085-.004.012-.0059h.0273l.0274-.0166.0585-.0207h.0782c.039-.0083.082-.0083.1211 0l.0703.0249.0234.0166.0469.0373c.0195.0125.0351.0291.0508.0457l.0351.0497c.0039.0125.0196.0291.0196.0291l12.6838 25.279c.011.0249.019.0498.027.0788v.0291c.004.0373.004.0788 0 .1161v.083l-3.258 11.7559 19.231-8.1885c.008-.0041.015-.0041.023 0h.02c.004-.0041.011-.0041.015 0h.18l.043.0125h.055l.023.0207c.012.0083.02.0166.027.0249.02.0207.04.0456.055.0747l.012.0207c.002.0069.006.0138.009.0207.006.0139.012.0277.014.0415v.0374l4.035 22.5372c.004.033.004.066 0 .099v.092c-.007.029-.019.058-.027.087l-.015.025c-.004.008-.004.012 0 .02-.003.003-.006.006-.008.01-.004.005-.007.012-.012.019l-12.688 19.92c2.067-.921 4.075-1.958 6.032-3.111 1.957-1.153 3.847-2.418 5.676-3.792 1.824-1.377 3.57-2.853 5.242-4.43 1.672-1.58 3.258-3.248 4.758-5.015 1.496-1.763 2.898-3.605 4.207-5.534 1.304-1.929 2.507-3.9238 3.605-5.9896 1.102-2.07 2.09-4.1938 2.965-6.3758.877-2.1775 1.637-4.4005 2.285-6.669v.0682ZM95.8594 129.316c3.0468-.216 6.0666-.677 9.0506-1.382l12.117-20.687-11.164-.842-10.0036 22.911Zm26.8986-45.813-16.375 22.122 11.015.83 5.36-22.952Zm4.398 20.484-3.633-20.3181-5.293 22.6611 8.926-2.343Zm-21.551 1.356 15.852-21.4086-20.152 15.9373-.047.1573 4.347 5.314Zm-.441.689-4.168-5.098-8.0272 28.51c.6757-.016 1.3437-.041 2.0078-.087l10.1874-23.325Zm-4.254 35.04c.082.141.18.269.289.381v.013c.262.265.563.435.914.522.348.083.696.063 1.035-.058.301-.095.559-.265.778-.506.402-.431.586-.954.547-1.564-.012-.162-.039-.323-.086-.481-.047-.158-.114-.307-.196-.448-.082-.141-.175-.27-.289-.386-.109-.112-.234-.215-.367-.298-.133-.083-.277-.15-.426-.199-.148-.046-.3-.075-.457-.083-.156-.009-.308.004-.461.033-.156.033-.3.083-.445.149-.141.071-.273.158-.394.257-.122.104-.231.22-.325.353-.093.128-.175.269-.238.423-.062.149-.105.307-.133.469-.027.161-.035.327-.023.493.008.162.039.324.086.482.047.157.113.307.191.448Zm5.078-13.407c2.707-.685 5.356-1.573 7.946-2.655l12.793-20.077-8.774 2.302-11.965 20.43Zm-4.324-29.1207 19.266-15.2446-17.008 7.2511-2.258 7.9935Zm-1.078.9458 5.832-20.7326-11.4219 8.9186-6.8555 28.3449c-.0019.008-.0038.017-.0062.026-.0024.01-.0054.019-.0094.028l-3.1328 13c2.2266.257 4.457.386 6.6953.386h.4844l8.2731-29.444.028-.083.113-.4314v-.0125Zm-37.2383-18.476 1.4492 18.0612 5.9687-26.8263-7.4179 8.7651Zm.8789 20.6409-1.6368-20.3422-15.1523 1.5721 1.7539 28.2781c3.3242 3.422 6.9648 6.409 10.9258 8.956l4.1094-18.464ZM53.3008 52.6654 47.5 82.0511l14.9063-1.5472-9.1055-27.8385Zm18.5625 18.2271-11.043 49.6995c2.1641 1.348 4.3945 2.551 6.6992 3.605l10.8243-41.7559-6.4024-11.9966-.0781.3568v.0124c.0039.0124.0039.0249 0 .0373v.0415Zm7.4961 11.2416 14.9023 4.7372-.2109-32.8661-14.6914 28.1289Zm14.8242 5.5586-15.1289-4.8078L68.2461 124.52c5.125 2.265 10.4414 3.75 15.9531 4.464l3.1797-13.146c.0039-.016.0117-.037.0195-.054l6.7852-28.0913Zm.8516-1.0661 11.5858-9.0638-11.7968-23.4539.211 32.5177Zm-16.2539-5.0815L93.2656 53.802 72.3281 69.4531l6.4532 12.092Zm-7.629-10.9927.0469-.2116-17.0703-17.7003 8.9766 27.4237 8.0468-9.5118ZM46.7812 81.682l5.7422-29.0664-15.1601 18.8743 9.4179 10.1921Zm-.1406 1.0204L37.3477 72.643l2.6875 26.4945c2.3867 4.0445 5.164 7.7655 8.332 11.1545l-1.7266-27.5896ZM24.8633 38.5201c-.1992.0912-.3711.2157-.5235.3774-.1484.1618-.2656.3485-.3437.5601-.082.2115-.1211.4314-.1211.6595.0039.2282.0469.4439.1289.6554.0859.2074.2031.3941.3555.5517.1562.1618.332.2821.5312.3692.1992.083.4063.1245.6211.1245.2149-.0042.418-.0498.6172-.1369.1992-.0913.3711-.2157.5234-.3775.1485-.1618.2657-.3485.3438-.56.082-.2116.1211-.4314.1172-.6554 0-.2282-.043-.448-.125-.6554-.086-.2116-.2031-.3941-.3555-.5559-.1562-.1576-.332-.2821-.5312-.365-.1993-.0871-.4063-.1286-.6211-.1286-.2149.0041-.418.0498-.6172.1369Zm-5.4297 13.6807c-.2383.1037-.4453.253-.6289.4438-.1797.1909-.3164.4107-.4141.6596-.0976.253-.1484.5102-.1484.784 0 .2696.0508.531.1484.7799.0977.2489.2344.4729.4141.6637.1836.1908.3906.3401.6289.4438.2344.1037.4805.1535.7383.1535.2539 0 .5-.0498.7343-.1535.2383-.1037.4454-.253.629-.4438.1796-.1908.3203-.4107.4179-.6637.0977-.2489.1446-.5103.1446-.7799 0-.2738-.0469-.531-.1446-.784-.0976-.2489-.2383-.4687-.4179-.6637-.1836-.1908-.3907-.336-.629-.4397-.2343-.1037-.4804-.1576-.7343-.1576-.2578 0-.5039.0539-.7383.1576Zm-2.4414 16.3355c-.3242.1452-.6094.3526-.8555.614-.2461.2655-.4336.5724-.5664.9167-.1328.3443-.1953.7011-.1953 1.0744.0039.3733.0742.7301.2109 1.0702.1368.3443.3321.6472.5821.9043.25.2614.539.4605.8633.6015.3242.1369.664.2074 1.0156.2033.3476-.0042.6875-.0788 1.0078-.224.3242-.1452.6094-.3485.8555-.6139.2461-.2655.4336-.5683.5664-.9126.1289-.3443.1953-.7011.1914-1.0744-.0039-.3734-.0742-.7301-.211-1.0703-.1367-.3401-.3281-.6429-.5781-.9043-.25-.2613-.5391-.4604-.8633-.6015-.3242-.1368-.664-.2074-1.0117-.2032-.3516.0041-.6875.0747-1.0117.2198Zm-6.4883 20.0441c.3359.7052.75 1.3564 1.2422 1.9496.3203.3817.6719.7343 1.0469 1.0578.375.3236.7734.6098 1.1953.8628.4219.2489.8594.4605 1.3164.6347.4531.1742.918.307 1.3945.3982.4766.0913.9571.1411 1.4414.1452.4844.0083.9649-.029 1.4414-.1078.4805-.0788.9453-.1991 1.4063-.3651.457-.1617.9023-.3609 1.3281-.6015.4258-.2406.832-.5185 1.2148-.8337.3829-.3112.7383-.6555 1.0704-1.0329.3281-.3734.625-.7758.8906-1.2072.2617-.4272.4922-.8752.6875-1.344.1953-.4687.3515-.9541.4687-1.4518.1172-.4978.1954-.9998.2344-1.51.0352-.5102.0352-1.0246-.0078-1.5348-.043-.5102-.125-1.0122-.2461-1.5058-.1836.8006-.4609 1.5639-.8398 2.2857-.3789.7259-.8399 1.3813-1.3868 1.9662-.5468.589-1.1601 1.0868-1.8359 1.4975-.6797.4107-1.3945.7176-2.1523.9167-.7539.2033-1.5235.2946-2.3047.2738-.7774-.0249-1.5391-.1535-2.2852-.3982-.7461-.2448-1.4453-.5891-2.1015-1.0329-.6563-.448-1.2422-.979-1.7618-1.5971-1.0468-1.2486-1.7109-2.6921-1.98824-4.3348-.22266.7508-.35157 1.5224-.38672 2.3147-.03125.7881.02734 1.568.18359 2.3395.15625.7716.40237 1.51.73437 2.2152Zm3.8672 19.1066c.3906 1.402 1.0664 2.638 2.0156 3.7h.0039c.3867.44.8125.838 1.2735 1.191.4609.352.9531.655 1.4687.908.5156.249 1.0547.444 1.6055.585.5547.137 1.1172.22 1.6836.241.5703.02 1.1367-.017 1.6953-.112.5625-.096 1.1094-.249 1.6445-.457.5313-.211 1.043-.477 1.5274-.792.4843-.315.9336-.68 1.3515-1.091.4141-.411.7891-.859 1.125-1.348.3321-.49.6172-1.004.8555-1.556.2344-.547.418-1.116.5508-1.7.1328-.585.207-1.183.2265-1.784.0235-.602-.0117-1.199-.1015-1.796-.0938-.594-.2383-1.174-.4336-1.738-.1992-.565-.4492-1.104-.7461-1.618-.3008-.5146-.6406-.9917-1.0313-1.4314-.1406.8338-.3867 1.6304-.7382 2.3934-.3516.763-.7969 1.46-1.3321 2.091-.5312.63-1.1367 1.174-1.8125 1.63-.6758.452-1.3984.801-2.1679 1.041-.7657.245-1.5508.369-2.3516.382-.8008.012-1.5859-.091-2.3594-.311-.7734-.22-1.5039-.548-2.1914-.979-.6875-.436-1.3086-.963-1.8594-1.577-.0429-.041-.0859-.091-.1211-.141-.25 1.44-.1757 2.863.2188 4.269Zm22.1094 24.864c.3203.033.6445.046.9687.038h-.0117c1.8594-.038 3.5352-.652 5.0195-1.834.2539-.203.4922-.415.7188-.647.2461-.241.4726-.498.6875-.768.2187-.269.418-.551.6015-.846.1836-.294.3516-.597.504-.912.1523-.316.2851-.639.4023-.971.1133-.332.2109-.668.293-1.012.0781-.34.1367-.689.1797-1.037.039-.353.0625-.705.0664-1.058.0039-.353-.0157-.705-.0508-1.058-.0352-.348-.0899-.697-.1641-1.041-.0703-.344-.164-.684-.2734-1.02-.1133-.332-.2383-.656-.3867-.975-.1446-.316-.3086-.627-.4883-.921-.1797-.299-.375-.585-.586-.859-.2109-.274-.4336-.535-.6757-.78-.2383-.244-.4883-.477-.7539-.692-.2657-.216-.5391-.415-.8243-.594-.2734-.178-.5508-.336-.8359-.473-.2969-.145-.5977-.269-.9063-.377-.3086-.108-.621-.195-.9375-.266-.3164-.07-.6367-.12-.9609-.149-.3203-.033-.6445-.045-.9687-.037-.3243.004-.6485.029-.9688.074-.3203.046-.6367.112-.9531.195-.3125.083-.625.183-.9258.303-.3047.121-.6016.257-.8906.411-.2891.158-.5703.328-.8399.518-.2695.187-.5312.39-.7812.61-.25.22-.4844.452-.711.701-.2226.249-.4335.506-.6328.78-.1953.274-.3789.556-.5429.851-.168.294-.3204.597-.4532.908-.1367.315-.2539.635-.3554.958-.1016.328-.1836.66-.25.996-.0664.336-.1133.676-.1407 1.016-.0312.34-.0429.685-.0351 1.029.0039.344.0312.684.0742 1.024.043.341.1016.677.1797 1.008.0781.336.1758.664.2891.984.1132.323.2421.634.3906.941.1445.307.3086.606.4844.892.1796.286.3711.56.5781.826.2109.265.4297.514.664.75.2344.241.4805.461.7383.672.2539.208.5235.399.8008.577.2774.174.5664.336.8594.477.2969.145.5976.27.9062.373.3086.108.6211.195.9375.266.3164.07.6368.12.961.149Zm11.5273 11.706c.3399.457.7149.876 1.1289 1.257h-.0156c1.043.963 2.2344 1.622 3.5742 1.979 1.3399.361 2.6836.373 4.0313.05-.0508-.038-.0977-.079-.1407-.125-.4297-.398-.8164-.834-1.164-1.311-.3477-.477-.6524-.987-.9063-1.526s-.4531-1.099-.6015-1.68c-.1524-.585-.2461-1.174-.2852-1.78-.0391-.601-.0234-1.199.0469-1.8.0742-.597.1992-1.182.3789-1.755.1797-.572.4101-1.12.6953-1.642.2812-.523.6094-1.017.9805-1.469.457-.556.9648-1.045 1.5273-1.472l.2539-.179c.2227-.157.4531-.298.6914-.435.2735-.154.5547-.295.8438-.415.4258-.179.8593-.32 1.3008-.432-.5196-.464-1.0821-.854-1.6954-1.169-.2265-.129-.4765-.241-.7304-.345-1.2266-.502-2.5-.697-3.8125-.589-1.3125.112-2.5391.519-3.6797 1.224-.2656.17-.5.344-.75.531-.375.29-.7227.614-1.0469.966-.1211.129-.2461.27-.3594.407-.1132.141-.2226.282-.3281.427-.332.461-.6211.95-.8672 1.469-.2461.518-.4453 1.058-.5937 1.613-.1485.56-.25 1.129-.2969 1.705-.0469.577-.0469 1.153.0078 1.734.0547.577.1602 1.141.3164 1.697.1563.556.3594 1.095.6133 1.609.25.515.543 1 .8828 1.456Zm19.5195 4.422c.3477.432.7266.826 1.1446 1.183h-.0117c.5781.497 1.207.912 1.8867 1.236.6797.327 1.3867.556 2.1211.688.7382.133 1.4765.162 2.2187.092.7422-.071 1.4649-.241 2.168-.511-1.5625-.224-2.9492-.862-4.168-1.92-.3711-.32-.7187-.668-1.0351-1.05-.3164-.381-.5977-.788-.8516-1.219-.25-.432-.4687-.88-.6484-1.353-.1797-.468-.3204-.954-.4258-1.447-.1016-.494-.1641-.996-.1875-1.502-.0235-.51-.0078-1.012.0469-1.518.0586-.502.1523-1 .289-1.485.1367-.486.3086-.959.5196-1.415.121-.253.2539-.506.3984-.755.1875-.332.3984-.647.6289-.95 1.1367-1.485 2.5742-2.489 4.3125-3.007-.7773-.179-1.5664-.241-2.3594-.187-.7969.054-1.5703.22-2.3203.498-.7539.282-1.457.664-2.1094 1.149-.6523.481-1.2304 1.049-1.7343 1.705l-.0313.037c-.1719.228-.332.461-.4766.697-.2968.469-.5468.967-.7578 1.489-.207.523-.3711 1.058-.4843 1.614-.1133.552-.1797 1.112-.1993 1.676-.0156.568.0157 1.132.0977 1.692.082.56.2109 1.108.3867 1.639.1758.535.3985 1.049.6641 1.539.2656.493.5703.954.9179 1.385Zm20.1485-3.588c.2773-.141.5234-.328.7422-.56h-.0118c.4883-.51.75-1.132.7813-1.858v-.174c-.0039-.266-.0469-.527-.1289-.78-.043-.166-.1055-.32-.1836-.469-.1289-.249-.2852-.473-.4766-.672-.3945-.419-.8711-.676-1.4218-.772-.5547-.099-1.0821-.016-1.586.241-.2851.137-.5351.319-.75.556-.0312.033-.0585.066-.0858.099-.1875.22-.336.465-.4454.739-.125.303-.1953.614-.2149.941-.0195.328.0117.647.0977.963.0859.311.2226.601.4023.867.1836.265.4024.489.6563.672.2578.182.5351.315.832.394.3008.083.6055.108.9102.074.3086-.033.6015-.12.8828-.261Zm28.6092-9.379c.199-.087.371-.216.524-.377h-.012c.148-.162.266-.349.348-.556.082-.212.121-.432.121-.66 0-.228-.043-.444-.125-.655-.082-.212-.2-.394-.352-.556-.156-.158-.332-.282-.531-.365-.199-.087-.406-.129-.621-.129-.215.004-.418.05-.617.137-.2.091-.372.216-.524.378-.148.161-.266.348-.344.56-.082.211-.121.431-.117.659 0 .228.043.444.125.656.086.207.203.394.356.551.156.162.332.282.531.37.199.082.406.124.621.124.215-.004.418-.05.617-.137Z" clip-rule="evenodd"/>
</svg>
