<svg xmlns="http://www.w3.org/2000/svg" version="1.0" viewBox="0 0 375 374.999991">
  <defs>
    <clipPath id="a">
      <path d="M140.316406 176h94.5v86.5h-94.5Zm0 0"/>
    </clipPath>
    <clipPath id="b">
      <path d="M190 112.5h1V124h-1Zm0 0"/>
    </clipPath>
  </defs>
  <path d="M188.777344 132.527344c-.113282.015625-.222656.039062-.328125.078125-4.953125 2.738281-8.898438 6.460937-11.113281 11.757812-2.660157 6.332031-1.847657 12.394531 1.8125 18.109375 2.472656 3.835938 5.949218 6.578125 9.960937 8.679688 4.398437 2.296875 9.074219 3.511718 14.035156 3.652344h.476563c.164062.304687.128906.4375-.128906.582031-3.292969 1.925781-6.828126 3.183593-10.597657 3.78125-11.972656 1.808593-23.574219-4.21875-28.148437-15.207031-2.71875-6.558594-2.5-13.179688.46875-19.597657 3.765625-8.140625 10.222656-13.125 18.878906-15.300781 3.835938-.953125 7.695312-1.070312 11.582031-.359375.578125.097656 1.148438.257813 1.8125.414063-.03125.582031-.054687 1.164062-.097656 1.746093-.15625 2.242188-.300781 4.488281-.484375 6.730469-.1875 2.496094-.417969 4.992188-.574219 7.488281-.058593.90625.042969 1.832031.078125 2.769531l.730469-.222656c.300781.414063-.175781.574219-.222656.929688l1.617187.542968c-.570312.539063-1.25.066407-1.75.503907l.304688.628906c-.078125.070313-.167969.203125-.238282.191406-.242187-.039062-.476562-.089843-.707031-.160156-.320312.359375.03125 1.03125-.703125 1.339844-.035156-.496094-.0625-.90625-.089844-1.347657l-.78125.085938c.082032-.277344.140626-.472656.21875-.71875-.359374-.238281-.984374 0-1.222656-.632812.164063-.078126.335938-.144532.511719-.203126.191406-.042968.386719-.074218.582031-.097656.015625-.089844.015625-.179687 0-.269531-.101562-.238281-.25-.519531.035156-.667969.128907-.074218.386719.101563.601563.15625.082031.007813.160156.007813.238281 0 .113282-.695312.277344-1.40625.332032-2.113281.210937-2.578125.375-5.160156.574218-7.742187.191406-2.46875.410156-4.929688.601563-7.398438.03125-.359375 0-.71875 0-1.207031l-3.25.875c-.066407.605469-.140625 1.160156-.191407 1.714843-.179687 2.007813-.359374 4.027344-.53125 6.050782-.023437.167968-.023437.335937 0 .503906.089844.542969.199219 1.085938.300782 1.664062l.605468-.222656c.382813.4375-.226562.601563-.179687.957032l1.566406.511718c-.53125.578125-1.226562.050782-1.695312.527344.070312.183594.164062.441406.320312.863281l-1.015625-.203125c-.257812.375.074219 1.03125-.679687 1.320313-.042969-.460938-.074219-.859375-.117188-1.332031l-.683593.082031c.042968-.269531.082031-.492188.125-.746094-.273438-.046875-.539063-.109375-.804688-.191406-.132812-.050781-.21875-.21875-.328125-.335938.109375-.109375.230469-.199219.367187-.269531.21875-.054688.441407-.085938.667969-.101562.011719-.09375.011719-.183594 0-.277344-.078125-.226563-.304687-.5.015625-.660156.136719-.070313.390625.085937.605469.136718.058594.015625.121094.027344.183594.035156.324219-.984374.503906-1.996093.542969-3.035156.066406-1.96875.222656-3.917968.332031-5.898437.015625-.25 0-.5 0-.84375-1.332031.425781-2.625.957031-3.875 1.589843-.402344 4.394532-1.0625 8.746094-1.152344 13.140626.136719.054687.191406.097656.230469.089843.199218-.050781.507812-.21875.570312-.152343.300782.335937-.160156.503906-.246094.828124.410157.367188 1.140626.160157 1.59375.824219l-1.757812.132813.382812.984375-1-.179688c-.121093.425781-.246093.855469-.398437 1.394531-.605469-.457031-.214844-1.011718-.449219-1.425781l-.683594.125c.082032-.300781.140626-.507812.210938-.753906-.265625-.046875-.527344-.113281-.78125-.199219-.152344-.066406-.261719-.238281-.390625-.355468.136719-.121094.285156-.222657.449219-.304688.1875-.039062.378906-.058594.570312-.054688.015625-.0625.023438-.128906.027344-.195312-.027344-.253906-.375-.554688 0-.738281.1875-.09375.503906.078125.757812.128906.636719-1.367187.730469-2.910156.867188-4.445313.242188-2.691406.460938-5.378906.683594-8.070312-.015625-.109375-.03125-.222656-.03125-.410156Zm0 0"/>
  <g clip-path="url(#a)">
    <path d="M220.675781 203.96875c-1.542969 1.3125-3.3125 2.167969-5.300781 2.566406 1.855469-.75 3.574219-1.742187 5.15625-2.972656-.320312-.671875-.605469-1.335938-.941406-1.980469-.335938-.648437-.683594-1.296875-1.066406-1.917969-.425782-.691406-.90625-1.355468-1.359376-2.027343-.078124-.117188-.179687-.21875-.253906-.335938-2.164062-3.398437-5.308594-5.519531-9.015625-6.910156-3.460937-1.3125-7.011719-2.273437-10.664062-2.875-2.839844-.457031-5.648438-1.066406-8.308594-2.199219-1.207031-.507812-2.351563-1.089844-3.511719-1.660156-2.417968-1.175781-4.832031-2.269531-7.441406-2.976562-.15625-.042969-.320312-.070313-.667969-.144532.605469.601563.472657 1.125.257813 1.671875-.265625.710938-.652344 1.339844-1.167969 1.894531-.515625.554688-1.117187.988282-1.804687 1.304688-.265626.089844-.53125.152344-.808594.1875.8125 1.226562 1.765625 2.332031 2.859375 3.316406 1.539062 1.398438 3.320312 2.429688 5.132812 3.378906 2.671875 1.390626 5.019531 3.222657 7.28125 5.179688.957031.828125 1.894531 1.6875 2.867188 2.5.40625.296875.832031.570312 1.273437.820312.167969.09375.28125.234376.332032.421876-.199219.011718-.394532-.007813-.585938-.0625-.671875-.289063-1.3125-.636719-1.921875-1.046876-.988281-.742187-1.917969-1.566406-2.847656-2.382812-1.519531-1.347656-3.167969-2.515625-4.941407-3.503906-.402343.125-.398437.714844-.941406.707031l.359375-1.039063c-.230469-.046874-.46875-.078124-.703125-.09375-2 .039063-4.003906.09375-6.003906.136719-1.351562.03125-2.71875.136719-4.046875-.15625-.636719-.121093-1.261719-.277343-1.878906-.472656-1.714844-.589844-3.476563-.945313-5.285157-1.058594-1.039062-.054687-2.074218-.144531-3.140624-.222656l-.332032 1.285156-.140625-.019531c-.039062-.085938-.0625-.179688-.0625-.277344.191407-.972656-.441406-1.488281-1.101562-1.96875-1.613281-1.175781-3.230469-2.347656-4.867188-3.496094-.640625-.449218-1.335937-.824218-2.019531-1.25l-.679688.265626.382813-.601563c-.027344-.074219-.035156-.140625-.070313-.175781-1.910156-1.734375-3.625-3.726563-6.132812-4.679688-.367188-.144531-.734375-.292968-1.097656-.445312-.925782-.390625-1.847656-.335938-2.878906.03125.300781.300781.554687.539062.785156.8125.46875.558594.949218 1.109375 1.367187 1.707031.640625.90625.847657 1.898437.222657 3.015625.519531.546875 1.042968 1.09375 1.558593 1.644531.515625.554688 1.101563 1.207031 1.648438 1.8125.191406.207031.355469.4375.554687.636719 1.992188 1.992188 3.992188 3.972656 5.984375 5.96875.640625.636719 1.253907 1.296875 1.878907 1.945312.695312.71875 1.507812 1.265626 2.433593 1.636719 3.082031 1.300781 6.285157 2.148438 9.605469 2.539063 1.804688.191406 3.546875.628906 5.226562 1.316406 1.210938.488281 2.441407.863281 3.660157 1.289062.042969.015626.066406.082032.132812.167969-.25.328125-.605469.226563-.90625.15625-.796875-.195312-1.59375-.378906-2.367187-.644531-2.363282-.746094-4.769532-1.316406-7.222656-1.707031-2.0625-.378907-4.070313-1.09375-6.097657-1.679688-.488281-.140625-.953125-.355469-1.433593-.511719-1.296876-.4375-2.449219-1.121093-3.453126-2.050781-.125-.113281-.257812-.214843-.390624-.320312-.015626 0-.046876 0-.191407-.019531.605469 1.109374.949219 2.289062 1.925781 3.054687.457032.328125.960938.554687 1.511719.683594 1.410157.375 2.839844.703125 4.269531 1.015625 3.4375.746094 6.878907 1.480468 10.324219 2.195312.515625.105469 1.0625.023438 1.59375.074219.386719.03125.769531.109375 1.136719.234375.980469.351562 1.929688.804688 2.925781 1.097656 1.722657.539063 3.464844.988282 5.230469 1.347656 3.8125.703126 7.484375 1.871094 11.128906 3.125 2.679688.945313 5.148438 2.28125 7.40625 4.007813.109375.078125.226563.15625.367188.25.101562-.191406.179687-.355469.273437-.511719.019531-.035156.09375-.039062.183594-.070312.300781.210937.300781.554687.332031.878906.070313.871094.136719 1.742188.21875 2.609375.027344.332031.101563.65625.15625.992187 3.6875.570313 6.640625-.859374 9.402344-3.183593-.03125.167969-.019531.273437-.0625.328125-.605469.753906-1.242188 1.488281-2.113281 1.910156-1.453125.695312-2.929688 1.347656-4.53125 1.59375-.800781.121094-1.617188.105469-2.515625.152344.214844.90625.410156 1.828125.652344 2.738281.796874 2.976563 1.191406 6.03125 1.511718 9.070313.476563 4.570312.464844 9.160156.417969 13.753906-.027344 2.710937-.078125 5.40625-.097656 8.105468.007812 2.636719.402343 5.214844 1.1875 7.734376.089843.300781.351562.617187-.019531.933593-.421876 0-.464844-.351562-.574219-.601562-.609375-1.433594-1.023438-2.921875-1.234375-4.460938-.226563-1.535156-.359375-3.074219-.394532-4.625-.042968-4.519531 0-9.066406.015626-13.597656-.039063-3.550781-.289063-7.085937-.746094-10.609375-.320313-2.75-.96875-5.425781-1.535156-8.121094-.183594-1.109375-.3125-2.226562-.386719-3.347656-.011719-.238281-.011719-.476562 0-.71875-2.351563-1.464844-4.660157-2.867188-7.175781-3.882812-.859376-.347657-1.746094-.636719-2.628907-.902344-2.015625-.628906-4.027343-1.28125-6.0625-1.835938-1.871093-.511718-3.761719-.96875-5.667969-1.339844-1.507812-.300781-3.019531-.605468-4.34375-1.320312-1.195312-.621094-2.457031-1.023438-3.792968-1.207031-3.359375-.570313-6.691406-1.285157-10.019532-2.007813-1.703124-.367187-3.375-.875-5.058593-1.320312-1.089844-.3125-1.90625-.960938-2.453125-1.953125-.570313-.9375-1.054688-1.925781-1.617188-2.867188-.289062-.511719-.644531-.972656-1.0625-1.386719-2.34375-2.125-4.457031-4.457031-6.34375-6.992187-.230468-.316406-.511718-.601563-.773437-.902344-1.535157-1.742187-3.128907-3.417969-4.570313-5.207031-.636718-.789062-.972656-1.808594-1.445312-2.746094-.011719-.027344-.019532-.050781-.023438-.078125-.167968-.640625-.105468-1.121093.203125-1.242187.5-.191406.777344.1875 1.074219.480468.101562.113282.199219.230469.285156.355469 1.476563-.371093 2.914063-.492187 4.355469.234375-.367187-1.273437-.707031-2.480468.121094-3.621094.730469.0625.792969.695313 1.0625.941407.933593.035156 1.765625.078125 2.597656.089843.445313.011719.867187.113282 1.265625.3125.398438.195313.734375.46875 1.007812.820313 1.128907 1.289063 1.957032 2.75 2.480469 4.382813.265625.742187.578125 1.464843.9375 2.164062.429688.90625.886719 1.808594 1.332031 2.730469.074219.148437.109376.347656.226563.441406 1.136719.949219 2.199219 1.996094 3.652344 2.714844-.058594-.269531-.078125-.453125-.132813-.621094-.417968-1.390625-.558594-2.8125-.421875-4.257813.085938-1.367187-.179687-2.683593-.40625-4.011718-.214843-1.246094-.40625-2.496094-.546875-3.753906-.039062-.449219.019532-.886719.175782-1.308594.140624-.410156.605468-.445313.871093-.09375.21875.328125.417969.664062.601563 1.015625 1.566406-.179688 2.671875.570312 3.601562 1.738281 1.097656 1.386719 1.539063 2.972656 1.605469 4.703125.03125.925781.082031 1.851563.164063 2.769531.046874.308594.140624.601563.269531.882813.445312 1.207031.90625 2.414062 1.390625 3.75l.90625.238281c-.027344-.601562-.023438-1.132812-.082032-1.648438-.164062-1.265624.035157-2.472656.601563-3.617187.433594-.921875.707031-1.886719.816406-2.902344.070313-.472656.226563-.914062.464844-1.328125.207031-.289062.253906-.605468.132813-.941406-.074219-.242188-.128907-.488281-.164063-.742188-.285156-1.445312.550781-2.332031 2.046875-2.136718.972656.125 1.945312.300781 2.917969.453125 1.832031.269531 3.511719 1.03125 5.222656 1.65625 1.722656.636719 3.394531 1.378906 5.015625 2.230469 2.851562 1.464843 5.859375 2.460937 9.019531 2.988281 2.664063.464843 5.335938.929687 7.96875 1.523437 2.746094.597656 5.351563 1.5625 7.824219 2.898438.742188.40625 1.445312.871094 2.113281 1.394531 1.308594.980469 2.515625 2.074219 3.621094 3.277344 1.957031 2.246093 3.542969 4.726562 4.757813 7.441406 2.679687 5.960937 4.878906 12.09375 6.605468 18.394531 2.15625 7.726563 4.171875 15.488282 5.707032 23.363282.703124 3.804687 1.019531 7.640624.957031 11.511718-.027344.503906-.128907.992188-.300781 1.464844-.035157.109375-.304688.195312-.476563.191406-.070313 0-.210937-.273437-.1875-.398437.300781-1.808594-.082031-3.589844-.167969-5.382813-.226562-4.824218-1.566406-9.484375-2.523437-14.195312-.777344-3.8125-1.988281-7.507813-2.855469-11.292969-1.578125-6.902344-3.871094-13.566406-6.394531-20.179687-.128907-.339844-.300781-.671876-.441407-1.003907-.21875-.417969-.4375-.84375-.707031-1.394531Zm-54.609375-16.914062c-.117187-1.261719-.277344-2.480469-.332031-3.710938-.074219-1.695312-1.046875-2.851562-2.21875-3.898438-.277344-.246093-.578125-.445312-.90625-.605468-.371094-.179688-.78125-.335938-1.207031.074218.199218.828126.445312 1.664063.601562 2.515626.203125 1.171874.300782 2.355468-.90625 3.167968-.027344 2.257813-.203125 4.519532.65625 6.707032l5.953125.601562-1.660156-4.128906c-.457031-.199219-.90625.152344-1.253906-.238282.066406-.082031.09375-.152343.132812-.164062.328125-.109375.652344-.191406 1.140625-.320312Zm7.175782 3.433593c.054687-.117187.066406-.191406.101562-.207031 1.027344-.367188 1.027344-.367188 1.039062-1.464844 0-.253906 0-.507812.023438-.761718.023438-.464844-.113281-.878907-.40625-1.242188-.648438-.886719-1.230469-1.808594-1.8125-2.734375-.222656-.347656-.421875-.710937-.628906-1.070313-.191406.261719-.292969.554688-.300782.878907.023438 1.121093-.246093 2.164062-.8125 3.132812-.949218 1.582031-.976562 3.316407-.605468 5.066407.042968.371093.242187.605468.605468.703124 1.71875.601563 3.472657.574219 5.296876.445313-.183594-1.117187-1.046876-1.765625-1.472657-2.628906Zm-16.777344-2.671875.128906-.113281c-.140625-.261719-.300781-.523437-.425781-.789063-.570313-1.125-1.253907-2.210937-1.679688-3.386718-.542969-1.460938-1.324219-2.78125-2.34375-3.957032-1.113281-1.3125-2.550781-1.320312-4.132812-1.167968.089843.226562.144531.355468.195312.484375.355469.9375.972657 1.78125 1 2.839843 0 .136719.160157.28125.273438.390626 1.210937 1.175781 2.4375 2.332031 3.625 3.523437.984375.96875 2.261719 1.410156 3.359375 2.175781Zm18.761718.46875-.203124.09375c-.003907.386719-.042969.769532-.113282 1.148438-.105468.402344-.03125.761718.226563 1.085937.503906.792969 1.160156 1.535157 1.035156 2.628907l4.769531-.167969c-2.152344-1.378907-4.167968-2.796875-5.722656-4.796875Zm-32.554687-5.273437c-.339844-.625-.605469-1.113281-.863281-1.609375-.253906-.492188-.164063-1.0625-.703125-1.457032-.058594 1.179688.597656 2.503907 1.566406 3.066407Zm30.101563-3.183594c-.660157.105469-.769532.554687-.890626.953125-.089843.21875-.109374.4375-.050781.667969.054688.226562.171875.414062.355469.5625.171875-.710938.347656-1.375.585938-2.183594Zm-25.96875-.855469c.070312-.453125.148437-.824218.171874-1.207031 0-.121094-.140624-.253906-.222656-.386719-.140625.105469-.375.183594-.40625.300782-.078125.242187-.078125.484374.007813.722656.085937.242187.234375.433594.449219.570312Zm13.492187-1.070312-.222656.023437c-.136719.621094-.007813 1.179688.390625 1.675781Zm12.3125 4.488281-.167969.160156.359375.28125.105469-.109375Zm0 0"/>
  </g>
  <path d="M165.894531 170.027344c-.757812.8125-11.71875 5.425781-12.601562 5.425781-.113281-.414063.246093-.4375.472656-.535156 2.507813-1.074219 5.015625-2.148438 7.527344-3.199219 1.273437-.527344 2.5625-1.007812 3.847656-1.507812.25-.074219.5-.136719.753906-.183594Zm-4.816406-11.457032c-.164063.089844-.332031.164063-.507813.226563-3.097656.820313-6.195312 1.632813-9.296874 2.441406-.324219.09375-.65625.15625-.992188.179688-.148438 0-.304688-.171875-.457031-.265625.085937-.128906.148437-.316406.269531-.375.28125-.125.574219-.222656.878906-.285156 2.273438-.511719 4.554688-1.007813 6.832032-1.503907.847656-.191406 1.695312-.398437 2.546874-.605469.222657-.035156.449219-.058593.675782-.070312Zm12.523437-41.425781c.144532.140625.269532.296875.378907.464844.289062.605469.5625 1.21875.820312 1.847656.835938 2.027344 1.660157 4.058594 2.476563 6.089844.113281.300781.363281.601563 0 1.027344-.164063-.144531-.300782-.3125-.417969-.496094-1.117187-2.695313-2.226563-5.398437-3.320313-8.101563-.074218-.234374-.128906-.472656-.164062-.710937Zm0 0"/>
  <g clip-path="url(#b)">
    <path d="M190.453125 123.566406c-.316406-1.003906-.453125-10.179687-.148437-11.058594.125.128907.269531.214844.300781.335938.042969.164062.058593.332031.046875.5v9.347656c.015625.300782.109375.625-.199219.875Zm0 0"/>
  </g>
  <path d="M166.597656 135.582031c-.222656-.054687-.390625-.046875-.472656-.128906-2.199219-2.058594-4.390625-4.125-6.574219-6.203125-.203125-.210938-.390625-.433594-.566406-.664062l.097656-.148438c.144531-.007812.289063.007812.429688.046875.144531.085937.277343.195313.390625.320313l6.625 6.507812c.019531.019531.015625.042969.070312.269531Zm-16.242187 7.828125c.097656-.03125.203125-.109375.300781-.09375 3.527344.734375 7.050781 1.472656 10.570312 2.214844v.171875c-.128906.046875-.261718.074219-.398437.074219-3.167969-.601563-6.335937-1.222656-9.5-1.859375-.34375-.070313-.675781-.1875-1.011719-.28125Zm34.09375 61.773438c-.847657.335937-1.710938.382812-2.589844.136718-1.5-.5-2.910156-1.195312-4.226563-2.074218-.078124-.050782-.117187-.167969-.1875-.277344.332032-.277344.558594-.042969.785157.078125.769531.40625 1.542969.808594 2.300781 1.242187.953125.550782 1.980469.773438 3.082031.664063.269531-.027344.550781 0 .820313 0Zm9.542969-9.828125c.121093-.089844.199218-.1875.242187-.175781 1.578125.535156 3.148437 1.085937 4.714844 1.628906-.933594.425781-3.917969-.421875-4.957031-1.453125Zm-31.363282-30.40625c-.230468.125-.464844.238281-.707031.339843-1.503906.539063-3.011719 1.066407-4.527344 1.585938-.042969 0-.125-.078125-.246093-.164062.101562-.113282.167968-.257813.269531-.300782 1.648437-.5625 3.304687-1.109375 4.957031-1.660156.046875-.015625.105469.023438.15625.035156Zm49.0625 51.132812c-1.238281 1.414063-3.625 2.230469-4.714844 1.609375 1.574219-.628906 3.296876-.683594 4.714844-1.609375Zm-14.734375-97.007812c.09375.195312.164063.265625.160157.332031-.078126 1.03125-.160157 2.058594-.25 3.085938-.007813.140624-.042969.277343-.105469.402343-.058594.105469-.242188.257813-.273438.238281-.128906-.089843-.226562-.199218-.300781-.335937-.035156-.058594 0-.164063 0-.246094.160156-1.046875.328125-2.09375.503906-3.140625.027344-.082031.132813-.15625.265625-.335937Zm-25.371093 11.304687c-.191407-.121094-.371094-.257812-.535157-.414062-.605469-.714844-1.175781-1.441406-1.761719-2.167969-.070312-.082031-.125-.179687-.164062-.285156-.019531-.082031-.003906-.15625.050781-.222657.089844-.070312.191407-.09375.300781-.074218.121094.070312.222657.160156.304688.273437.558594.667969 1.121094 1.339844 1.671875 2.015625.164063.207032.414063.421875.132813.875Zm8.453124 58.480469c-.359374-1.285156.929688-3.410156 2.160157-3.816406-.390625.601562-.777344 1.207031-1.152344 1.808593-.375.601563-.390625 1.359376-1.007813 2.007813ZM160.0625 151.804688c-.179688.085937-.363281.148437-.558594.195312-1.207031.140625-3.824218.054688-4.25-.164062.148438-.082032.253906-.191407.359375-.191407 1.464844-.027343 2.925781-.246093 4.390625-.125Zm2.886719-11.0625-3.796875-2.371094c.503906-.140625.503906-.140625 1.488281.464844.429687.265624.871094.511718 1.28125.800781.40625.289062.976563.382812 1.183594.902343Zm20.367187-17c-.480468-.554688-.933594-3.121094-.675781-3.9375.375 1.289062.601563 2.601562.675781 3.9375Zm-3.296875 61.664062c-.25.347656-.503906.695312-.765625 1.054688-.300781-.496094-.140625-.753907.765625-1.054688Zm1.863281 10.273438c-.152343.109374-.308593.210937-.472656.300781 0 0-.171875-.167969-.15625-.226563.070313-.25.273438-.316406.628906-.074218Zm31.050782 20.058593c-.15625.085938-.242188.175781-.328125.167969-.082031-.003906-.152344-.105469-.230469-.160156.089844-.078125.167969-.1875.269531-.222656.042969-.015626.140625.105468.289063.214843Zm0 0"/>
</svg>
