<svg xmlns="http://www.w3.org/2000/svg" fill="none" viewBox="0 0 156 200">
  <mask id="a" width="156" height="200" x="0" y="0" maskUnits="userSpaceOnUse" style="mask-type:luminance">
    <path fill="#fff" d="M0 0h156v199.682H0V0Z"/>
  </mask>
  <g mask="url(#a)">
    <path fill="#000" d="M151.057 143.245c-1.078-.292-2.573-.292-3.198-.292h-.125c-1.698.042-3.192.25-5.015.745-1.828-.083-3.735-.208-5.604-.37.333-.125.703-.291 1.036-.458.208-.083.417-.203.583-.245 1.12-.5 2.282-1.078 3.401-1.698.209-.125.375-.208.542-.37.078-.083.203-.166.287-.291.25-.292.541-.703.5-1.157-.042-.416-.334-.708-.787-.744-.292 0-.583.119-.917.244-1.161.5-2.323 1.162-3.484 1.907-.745.495-2.323 1.734-3.151 2.562-2.948-.291-5.938-.703-8.964-1.198 2.198-.5 5.355-1.286 6.391-1.614l.537-.167c.458-.167 1.203-.37 1.744-.828.334-.245.578-.578.703-.99.084-.25.042-.458-.125-.619-.244-.292-.744-.375-1.119-.375-.578.041-1.162.291-1.657.494l-4.609 1.99c-.125.042-.245.12-.37.161 31.573-26.39 36.844-73.3486 11.448-106.1506-4.604-5.9584-10.036-11.1719-16.099-15.5157-.203-.125-.453-.0833-.578.0834-.167.1666-.167.4114 0 .5781 1.245 1.3229 2.448 2.7292 3.609 4.2604C146.698 49.8699 141.76 88.3439 115 108.99c-2.198 1.698-4.484 3.229-6.849 4.552.25-.703.5-1.49.625-2.276.042-.125-.042-.292-.125-.334-2.24-1.323-4.896-2.276-7.177-3.057-1.9115-.625-4.8126-1.161-7.5938-.125-1.2032.453-2.3229 1.156-3.2813 2.151 0-.167-.0364-.292-.0781-.458-.125-.578-.2917-1.156-.5417-1.735.375-.994.6615-1.947.9115-2.854 0-.083 0-.125-.0417-.208.125-.125.2917-.25.3334-.292.375-.245.7864-.495 1.1614-.703.375-.203.7448-.453.9531-.786.2084-.37.2084-.907-.125-1.157-.2448-.166-.5364-.166-.7864-.041-.25.083-.5.291-.7031.453.2447-.412.1614-.99-.2084-1.323-.375-.328-.9531-.37-1.3698-.125-.4166.25-.7083.703-.75 1.203-.0364.62.3334 1.073.5 1.615.125.453.25.906.375 1.406-.1666.661-.4166 1.323-.625 2.026-.8281-1.943-2.1562-3.766-3.8177-5.255-1.2031-1.073-2.2812-1.9013-3.1927-2.4013-.125-2.3125-.5417-4.6302-1.2864-6.8229.125-.375.125-.6614.125-.9531 0-.7448.125-4.2187-1.5365-3.5573-.2917.125-.5.4531-.5.7865-.0365.3281.0833.6614.1667.9531-.1667-.1667-.3698-.375-.5782-.4583-.25-.0834-.5416-.0834-.7083.0833-.5365.5365 0 1.5729.4167 1.9427.375.375.8698.5833 1.3281.8281.1667.0834.4167.25.7031.375.7084 2.0677 1.125 4.2188 1.2865 6.4115-.0417 0-.0834-.0417-.125-.0417l-.0365-.0416s-.0416-.0417-.0416 0c-.0417-.0417-.0417 0-.0834 0-.0833 0-.125 0-.2083.0416-1.5365.7448-3.2396 1.6144-4.8125 2.7294-.25-.203-.5-.412-.75-.662-2.5729-2.3174-3.8177-4.5101-3.8594-6.6195v-.0833c.0833-.3281.2083-.6198.375-.9062.2083-.375.4583-.7032.625-1.0782.1615-.3698.2865-.7864.2031-1.1979-.125-.5417-.6198-.7448-1.1198-.5417-.2864.125-.5364.4167-.6197.7448-.2917-.4531-.8334-.9895-1.3698-.9479-.2084 0-.4167.125-.5834.3281-.5781.7448.125 1.7396.5834 2.2761.4166.5.8698.9531 1.3698 1.3646.0416 2.3177 1.3281 4.5937 4.026 7.0781.2031.203.4115.37.6198.578-.9115.662-1.7865 1.406-2.5729 2.276-.6615.703-1.2032 1.406-1.6615 2.193-2.9427-7.698-6.4271-12.9116-10.9531-16.3022-.125-.2917-.2083-.6615-.25-.7448-.1198-.3698-.0365-.6615-.0781-.9948-.0417-.8229-.3334-1.8594-.75-2.5208-.375-.5782-1.0365-1.0365-1.698-.9532-.625.0834-1.0833.6615-1.125 1.2813-.0416.5417.1667 1.1198.5 1.5729-.3333-.3698-.8281-.5364-1.2864-.5364-.5417.0416-1.0365.375-1.2031.8697-.3334.7448.0833 1.7344.7448 2.2344.75.5781 1.5781.6198 2.4062.4948.75-.125 1.4948-.3281 2.2865-.3698 4.5625 3.3906 8.0885 8.6875 11.0781 16.6299-.1667.328-.3333.62-.4583.948-.7032-.661-1.4532-1.281-2.2813-1.817-.2917-.375-.6667-.745-1.0781-1.037-.0417-.906-.5-1.859-1.4115-2.812-.25-.245-.5-.495-.7031-.704-.4167-.411-.8333-.786-1.1667-1.197-.0416-.167-.0781-.292-.0781-.4588-.0417-.3698-.0417-.7448-.125-1.1146-.0833-.375-.3333-.7031-.6667-.8698-.4948-.2083-1.1614.2084-1.0781.7865.0417.2083.125.375.25.5364-.2083-.1197-.5-.1614-.7083-.0416-.2865.1666-.4948.5-.2448.8279.0833.125.2031.167.2864.25.5834.292 1.2448.25 1.8698.37.375.5.8282.911 1.2865 1.328.25.245.4948.453.7031.703.625.662 1.0365 1.323 1.2031 1.943-.7031-.412-1.4947-.787-2.3645-.995-2.9844-.786-5.3125-.948-6.9271-.453-.2084-.661-1.2865-1.656-1.7031-1.943-.375-.291-.9115-.5-1.2865-.25-.3333.209-.4167.703-.2917 1.073.125.375.4167.709.7084.995-.4167-.25-1.0365.042-1.1615.495-.125.458.125.995.5365 1.203.25.167.5.203.7916.203-.0833.125-.125.25-.2083.417-.25.578-.25 1.656-.1667 2.854-.5833-.167-1.2031-.167-1.5364.292-.3334.411-.25.989.0416 1.447.2917.412.7084.704 1.1615.99-.6615.167-1.4531.662-1.7396 1.323-.0417.083-.0833.167-.0833.25-.125.745.8698 1.24 1.5312 1.323.625.042 1.125-.083 1.6198-.328.75 1.734 1.9948 3.39 3.6511 4.713-.0417 0-.0834-.041-.1667-.041-1.2031-.328-2.2396-.453-3.151-.328-1.1198-.417-2.2396-.87-3.3178-1.323-.4583-.954-.9583-1.907-1.4947-2.735-2.5313-3.844-6.474-6.453-10.5417-6.948-.125 0-.25.042-.3281.125-.0834.084-.0834.245 0 .328.3281.579.6614 1.162.9948 1.74.3281.536.6614 1.115.9531 1.698-5.0209-3.479-9.625-7.781-13.5677-12.8698-17.6771-22.7917-16.8907-55.2292 1.8229-77.073.1667-.1614.125-.4114 0-.5781-.1615-.1667-.4115-.2083-.5781-.0417C5.08329 40.0678-4.50004 72.5835 3.55204 101.708c-.45833-.083-1.24479-.291-1.66146-.333-.125 0-.25.042-.33333.125-.08333.083-.08333.25 0 .333.95312 1.693 2.11458 3.266 3.48438 4.672 1.49479 4.266 3.40625 8.443 5.68747 12.495-.4166.167-.83331.375-1.24477.578-.625.334-.875.787-.66666 1.245.16666.328.54166.411.66666.453.82817.208 1.65627.333 2.48957.453.125 0 .25.042.3698.042 1.3698 2.151 2.8229 4.302 4.4427 6.375 5.1042 6.578 11.0365 12.12 17.5938 16.547-1.8698 0-3.8177.041-5.8125.286-.2032 0-.5365.084-.7865.334-.125.125-.1667.333-.1667.536.0417.25.2084.5.4167.662.2917.208.7031.25 1.0781.291 2.1563.125 4.3542-.041 7.0105-.453.2083-.042.4166-.083.625-.083.125.083.25.161.375.203-2.1615.745-4.2344 1.531-6.2657 2.359-2.0781.125-3.4479 0-4.776-.125-1.3698-.125-2.7761-.245-4.9375-.125-.4948.042-1.0781.125-1.4115.5-.1614.203-.2031.412-.1198.662.0417.25.2448.494.5365.619.4167.167.8698.167 1.3698.167 2.3229-.125 4.5208-.292 6.9687-.661h.125c-2.6927 1.114-5.2656 2.317-7.7968 3.515h-.0417c-.375-.041-1.4115-.125-1.8281-.166-.7032-.042-1.3698-.125-2.0313-.209-.6666-.083-1.3698-.161-2.0781-.203-1.1198-.083-2.1563-.083-3.0677.287-.375.166-.8281.458-.9531.869-.0417.209-.0417.375.0416.579.2448.458.9532.5 1.4896.541 1.2448.078 2.6979-.041 3.9427-.166h.0834c.75-.084 1.2864-.125 1.8697-.25-1.4114.703-2.7812 1.447-4.1093 2.192-.0417 0-.0417.042-.0417.084h-.0417c-.9114.208-2.4479.744-2.9479.953-1.3229.495-1.8229.703-2.73436 1.114l-.91666.417c-.16146.036-1.48959.661-1.73959 1.526-.08333.25-.04166.542.125.786.32813.5.91146.62 1.78125.375 1.07813-.291 2.32292-1.078 2.86456-1.406l.0834-.041c.4948-.334.9948-.662 1.4531-.995.7864-.62 1.5729-1.281 2.3646-2.151h.0833c1.6563-.912 3.3594-1.818 5.1458-2.729-.25.328-.5.703-.7083 1.031-.125.208-.25.416-.375.541-.7031.99-1.3646 2.068-1.9896 3.224-.1666.292-.3333.584-.375.954-.0833.369-.0833.869.1667 1.197.2083.334.625.417.9531.209.0417 0 .0833-.042.125-.084.2083-.125.3333-.369.5-.578.7031-1.036 1.3698-2.192 1.9479-3.432.2917-.661 1-2.568 1.3282-3.807 2.6979-1.323 5.5625-2.604 8.4687-3.808-1.5781 1.573-3.9427 4.016-4.651 4.881l-.3698.416c-.75.87-1.4115 1.818-1.1667 2.771.0833.209.2083.375.4167.453.375.125.7916-.078 1.0781-.286l.0417-.042c.4166-.333.7916-.828 1.0781-1.281l2.8646-4.141c.5416-.786 1.5364-2.312 2.1146-3.39 2.2031-.87 4.4843-1.74 6.8489-2.563.25.162.5365.328.7865.453-.1667.167-.3282.292-.4532.453-1.1614 1.12-2.3281 2.401-3.4895 3.933-.0834.125-.2448.291-.3698.453-.4584.542-.9948 1.161-1.1198 1.739-.0834.412.0833.62.2031.704.375.291 1.1667-.042 1.5365-.292.2083-.125.4166-.245.625-.412 1.0364-.786 1.7395-1.942 2.4062-3.02l.125-.167c.125-.203.2448-.412.3698-.578.3333-.495.6667-.953 1-1.448.1615-.208.2865-.412.4531-.62 1.8282 1.031 3.7344 1.984 5.6459 2.854-.125.495-.25.995-.25 1.49 0 .536.0833 1.073.1666 1.573.0417.245.0834.495.125.745.1615 1.281.0417 2.645-.0833 3.968-.1667 1.532-.25 3.104.5781 4.344.8334 1.203 2.2396 1.74 3.5677 2.193.4167.166.875.291 1.2865.5.4167.161.7917.37 1.1614.536.6667.328 1.3698.703 2.0782.87.5781.286.9531 1.031 1.2864 1.776.3282.62.6198 1.281 1.1198 1.74.3698.328.7865.536 1.2031.744l.2917.167c1.6146.865 2.9844 2.193 3.9792 3.802.1666.292.375.62.7083.787.25.125.5365.125.7865.125.8698-.042 1.8698-.084 2.8229-.453.3333-.125.6198-.334.9114-.5.25.166.5834.208.8698.166.4584-.125.875-.495 1.0417-.953 0-.036.0417-.078.0417-.12.3281-.125.7031-.208 1.0781-.333.6198-.167 1.2448-.37 1.8646-.62.5833-.25 1.1198-.536 1.6198-.953.7031-.536 1.3281-1.198 1.7812-1.943.625.662 1.5365.953 2.4115.912-2.6146 4.302-3.9011 9.307-3.6927 14.312-.2084.334-.2917.62-.375.87-.2084.703-1.2865 4.052.4948 3.844.3333-.037.5833-.328.7083-.62.125-.286.125-.661.0833-.99.125.204.25.454.4532.579.2083.166.5.208.7083.083.6614-.375.4167-1.49.125-1.984-.25-.459-.6667-.829-1.0365-1.162-.125-.125-.3333-.328-.5416-.578-.2084-4.719.9114-9.432 3.276-13.526.5 1.859 1.6198 3.557 2.7396 5.208.3333.5.6667.995.9531 1.531 1.8281 2.938 2.4063 5.381 1.8698 7.407v.083c-.1667.292-.375.537-.625.787-.2865.286-.6198.536-.9115.869-.2916.287-.4947.703-.4947 1.115 0 .536.3697.87.9531.828.3333-.042.6614-.25.7864-.536.125.536.5417 1.197 1.0782 1.281.2083.041.4166 0 .6666-.167.7448-.536.3698-1.693.0417-2.359-.25-.578-.5833-1.156-.9167-1.693l.0417-.042c.625-2.234 0-4.802-1.9063-7.901-.2916-.5-.6666-.994-.9947-1.531-1.1615-1.781-2.3646-3.641-2.7813-5.625.0417-.083.0833-.167.1667-.25.1666-.042.2916-.083.4531-.167.5833-.25 1.0833-.619 1.5781-.953.375-.244.75-.494 1.1198-.703.2083.417.4167.787.6667 1.162.4948.828 1.0781 1.859 1.1198 2.895-.0417.167-.125.329-.2084.495-.2083.334-.4166.578-.5781.912-.1667.328-.2083.745 0 1.031.4531.786 1.1615-.161 1.2813-.661.2916.541 1.4531 1.286 1.6198.25.0833-.537-.4948-1.198-.8698-1.532-.2084-.166-.4167-.286-.625-.453 0-1.245-.7032-2.359-1.2448-3.229-.2448-.37-.4532-.745-.6198-1.115.2916-.125.6198-.291.8698-.5.0833-.078.2083-.161.2916-.286.375-.458.5-.995.5782-1.531.0416-.292.125-.537.2083-.787.125-.37.375-.703.625-1.036.25-.328.4531-.662.6198-1.073.3333-.167.7083-.292 1-.453.0781 1.239.1198 2.521.1614 3.76.0834 2.276.2084 4.636.375 6.912.6667 8.479 2.6146 14.604 6.0573 19.234.0417.333.0417.703.0417.786 0 .375-.125.662-.2083.995-.1667.787-.2032 1.86.0416 2.646.2084.662.7084 1.287 1.3698 1.406.625.084 1.2032-.328 1.4532-.906.2083-.5.1666-1.12-.0417-1.656.2083.411.625.745 1.0781.87.5417.125 1.0781-.084 1.4115-.5.5-.662.4166-1.693-.125-2.355-.5782-.786-1.3282-.994-2.1563-1.119-.75-.084-1.5364-.084-2.2812-.287-3.4427-4.552-5.3959-10.594-6.0573-19.073-.0834-.828-.125-1.698-.1667-2.526.7865 1.906 1.9896 3.599 3.4427 5.089 0 .041-.0416.041-.0416.083-.3334.953-.1667 2.109.5416 3.391.1615.291.3281.583.4948.87.2917.5.5833.994.7917 1.531 0 .125 0 .291-.0417.416-.0833.37-.1667.745-.1667 1.115 0 .375.0834.786.3698 1.036.4167.37 1.2032.12 1.2448-.458 0-.203-.0416-.37-.0833-.578.1667.208.4167.292.6667.25.3333-.083.6198-.375.5-.745-.0417-.125-.125-.208-.25-.333-.4584-.412-1.1198-.578-1.7032-.87-.25-.578-.5364-1.114-.8281-1.651-.1667-.292-.3333-.583-.5-.87-.5781-1.078-.7448-1.984-.5364-2.771 2.3229 2.193 5.2656 3.766 8.4637 4.469-.042.662.745 2.026 1.078 2.438.292.375.745.744 1.203.578.375-.12.578-.537.578-.948 0-.417-.203-.787-.411-1.12.333.333.995.208 1.245-.167.25-.411.166-.989-.167-1.322-.333-.37-.828-.495-1.328-.495-.417 0-1.412.208-1.907.536-.041-.041-.041-.041-.083-.041-6.0988-1.24-11.2447-5.917-12.7395-11.542v-.537c1.7396 2.443 4.2709 4.386 7.0938 5.417.3333.5.7917.912 1.2865 1.203.2083.125.4583.209.7083.209.2448 0 .4948-.125.5781-.375.0833-.209 0-.454-.125-.62-.125-.167-.3333-.292-.4948-.417.1198.083.6198-.036.7448-.078.25-.125.4583-.333.5-.625.0833-.37-.0833-.745-.375-.948-.5-.333-1.1614-.125-1.6198.245-.375.25-.6614.583-1.0364.786-2.9896-1.073-5.599-3.224-7.2605-5.953 0-.167 0-.375-.0416-.542-.0417-1.322-.125-2.645-.1667-4.01.3333-.167.625-.292.9115-.417 1.5781 1.245 3.5677 2.151 5.3541 2.401.375.042.7448.084 1.0782.084.75 3.599 3.526 7.031 6.849 8.312h.083c.287.625.828 1.74.912 1.865.375.661.661 1.239 1.245 1.776.536.5 1.369.911 1.989.5.417-.292.542-.912.375-1.365-.167-.5-.5-.869-.828-1.244.661 0 1.573-.245 2.031-.745.042-.078.125-.12.125-.203.334-.704-.458-1.448-1.12-1.698-1.078-.412-2.119-.084-3.114.25-.495.161-.953.286-1.453.453-.042 0-.042-.042-.084-.042-3.0673-1.198-5.6819-4.385-6.4267-7.776.7448-.042 1.4896-.125 2.2396-.333 1.1198 1.531 2.4891 2.771 4.0261 3.515.125.042.245.042.328-.041 1.287-1.115 2.12-2.813 2.406-4.88.25-1.735.084-3.474-.161-5.375-.167-1.448-.375-3.063-.792-4.594.209-.084.459-.167.667-.25.911.416 1.823.786 2.818 1.078-.662.786-1.12 1.693-.87 3.104.375 2.229 2.073 3.266 3.317 4.964.417-1.865.667-3.063.375-5.047-.083-.703-.083-1.532-.166-2.318.708.167 1.453.245 2.198.328.791.625 1.62 1.203 2.453 1.823.036.042.12.083.161.125-.161 1.734-1.286 4.177-.786 5.833.661 2.276 4.604 4.219 6.349 5.584.62-2.193-1.37-5.709-2.865-7.24-1.203-1.239-2.239-2.484-2.614-4.094 1.953 1.407 3.942 2.771 6.015 4.177l.209.125c.041 0 .041 0 .083.042.333 1.406.5 2.604 1.661 4.011 1.62 1.984 3.36 3.145 5.396 4.26-1.37-2.276-.75-4.964-2.781-6.99-.792-.786-1.578-1.203-2.531-1.448-.5-.125-.912-.083-1.37-.208 0-.083-.042-.167-.125-.25l-.208-.12c-1.74-1.203-3.485-2.359-5.146-3.557 1.37.412 2.614.37 3.859-.417.75-.453 1.537-.994 1.745-1.942.125-.703-.333-1.698-.125-2.11-1.245 1.073-2.073 1.901-3.693 2.193-.083 0-.166.042-.25.042.292-.209.375-.542.417-.828.411-2.526-.953-4.761-2.24-6.25 1.865-1.032 3.735-2.151 5.516-3.349 1.036.578 2.115 1.156 3.24 1.698.203.083.536.244.869.119.084-.036.167-.078.25-.119.084-.084.203-.167.245-.292.125-.25.125-.537.042-.828-.162-.37-.453-.62-.787-.828-.583-.412-1.161-.787-1.828-1.157.584-.375 1.125-.786 1.662-1.239 1.619.906 2.656 1.692 3.651 2.437 1.078.828 2.239 1.698 4.151 2.693.458.245.995.495 1.536.328.084-.042.167-.083.203-.125.125-.083.209-.245.292-.37.083-.291.042-.578-.125-.869-.245-.375-.661-.62-1.078-.87-1.948-1.115-3.818-2.11-6.057-3.021-.042 0-.042 0-.084-.042 2.74.417 5.438.787 8.094 1.037.203.166 1.203.911 1.531 1.156.542.375 1.084.828 1.62 1.245.542.411 1.078.828 1.661 1.239.954.662 1.782 1.198 2.782 1.407.411.083.953.041 1.323-.209.166-.125.291-.328.291-.536.042-.537-.536-.995-1.036-1.281-1.037-.745-2.323-1.407-3.526-1.985-.584-.292-1.037-.5-1.537-.708 1.453.125 2.907.208 4.318.25 1.037.333 3.151.786 3.151.786 1.412.292 1.912.375 2.948.495l.995.125c.166.042 1.578.208 2.281-.328l.083-.042c.25-.208.334-.5.334-.786 0-.25-.084-.459-.25-.662-.125-.375-.5-.619-1.037-.786Zm-22.656-2.813 4.604-1.989c.459-.203 1-.453 1.453-.453.292-.042.542.083.542.166-.208.703-1.078 1.073-2.036 1.365l-.537.167c-.911.286-3.484.948-5.562 1.448.625-.292 1.161-.542 1.536-.704Zm-37.7604-29.458.0417-.042c1.0833-1.156 2.2447-1.942 3.5312-2.437 2.6094-.995 5.349-.5 7.1775.12 2.156.708 4.604 1.573 6.677 2.776-.084.083-.162.161-.203.245-.25.333-.5.619-.834.953-1.078.994-2.073 2.067-2.942 3.145-.042.042-.084.125-.125.162-.334.458-.667.911-.917 1.411-.287.454-.537.948-.787 1.407-.458.786-.911 1.651-1.453 2.395l-.208.292c-.9949 1.406-2.073 2.979-3.6511 3.682-.0834.042-.2031.084-.3281.125-.2917-.828-.5834-1.656-.875-2.442-.125-.334-.2448-.703-.4115-1.078l.2448-1.61.0417-.166c.0416-.25.0833-.454.125-.704v-.083c.1666-.953.3333-1.901.125-2.937-.0417-.292-.125-.579-.2917-.787-.1615-.25-.3281-.453-.5781-.578-.5-.292-1.1615-.375-1.9115-.167h-.0417c-.6198.167-1.1198.703-1.3229 1.407-.1666.578-.2083 1.406.3698 1.948-1.3281.703-2.8594 1.651-4.1042 2.937-.3333.328-.6666.661-.9166 1.031-.4115.537-.7448 1.078-1.0781 1.698-.4532.948-.7448 2.026-.7865 3.141-.5417.125-1.0781.291-1.5781.541-.3334.162-.4167.162-.6198.245-.0834 0-.1667.042-.3334.084 0-.167-.0833-.37-.1666-.495-.2084-.334-.5-.578-.7448-.87-.125-.167-.2083-.37-.0833-.536.125-.167.4114-.084.5781.041.4583.287.8698.662 1.3698.745.5.083 1.1614-.292 1.0781-.786-.0833-.579-.8281-.704-1.4115-.704.5-.083 1.6615-.416 1.3698-1.161.25-.536.4584-1.115.6667-1.693.125-.333.25-.62.3281-.953.1667-.495.3334-.995.5-1.448l.2917-.828v-.042c.4114-1.197.8698-2.437 1.4114-3.64.4115-.906.8698-1.776 1.3698-2.521.0417-.042.0834-.083.1198-.167 0 0 0-.041.0417-.041.0833-.125.1667-.25.25-.334.2917-.494.6667-.906.9948-1.281Zm20.6254 20.109s-.042.037-.084.079l-.416.5c-.292.328-.579.661-.87 1.031-.5.62-1.078 1.364-1.537 2.234-.125.25-.208.459-.333.745l-.12.292c-.291.703-.583 1.406-1.041 1.942-.084.125-.162.209-.287.292-.333.328-.792.536-1.245.786l-.208.125c-1.911 1.032-3.609 2.355-5.2709 3.636-.8281-1.323-1.9062-2.479-3.2343-3.266l-.6667-.333v-.037c.0833-.208.1667-.458.25-.666.2083-.578.375-1.156.6198-1.651.25-.5.5-.995.7916-1.406 0 0 0-.042.0417-.042l.25-.333s.0417-.042.0417-.084c.2448-.328.4948-.661.8698-1.073.125-.125.2083-.25.3333-.375.953-.989 2.073-1.859 3.318-2.562.578-.334 1.203-.662 1.864-.912.042-.041.084-.041.167-.083.833-.286 1.62-.495 2.365-.62.25-.041.5-.083.708-.083h.495c1.286-.042 2.531.125 3.692.578v.042c.042.083.042.166.042.291 0 .25-.453.828-.536.953Zm.291.62-.541 1.115c-.542 1.036-1.037 1.943-1.537 2.771-.536.911-1.12 1.739-1.698 2.484l-.5.62c-2.031 2.318-4.479 3.932-7.01 4.469 1.614-1.24 3.318-2.568 5.187-3.558l.203-.125c.375-.208.792-.411 1.162-.703.083-.042.125-.083.208-.167.125-.125.25-.244.375-.369.542-.62.828-1.365 1.162-2.11l.125-.25c.125-.25.208-.453.333-.703.411-.786.953-1.531 1.448-2.109.292-.334.542-.662.833-.995l.25-.37Zm-19.7133 7.365c-.3698-.167-.7031-.334-1.0364-.5l-.0417-.042c-.9948-1.073-2.1563-1.943-3.4011-2.604v-.042c-.0833-.661-.125-1.323-.125-1.984 0-.542 0-1.078.0417-1.615.0417-.291.0417-.578.0833-.869.1667-1.448.4584-2.896.8698-4.344 0-.042 0-.042.0417-.084v-.041c.625-2.11 1.5365-4.011 2.5313-5.625.25-.37.5-.745.75-1.078.125-.162.2083-.287.3281-.412.0833-.125.1666-.25.2916-.25.0834-.041.25-.041.4584.042.1666.083.375.167.5364.25l.0417.042c.0833.041.125.083.1667.125.0416.041.125.083.1666.125.0417.041.125.078.1667.161.0833.083.1667.167.2083.25.25.333.4948.786.7448 1.281v.042c0 .042.0417.083.0417.083.125.334.2917.662.375.995.3333.906.6615 1.859.9531 2.813.0417.083.0417.125.0834.208.4166 1.281.7031 2.354.9114 3.391.3333 1.614.4167 3.062.3333 4.427-.0416.244-.0416.453-.0833.703-.0417.041-.0417.083-.0833.125l-.0417.083c-.0417.037-.0833.078-.0833.12-.3281.458-.5781.953-.8281 1.531-.25.542-.4584 1.162-.625 1.74-.0834.208-.1615.411-.2032.661-1.4531-.536-2.6562-.411-3.5729.292Zm2.3281 16.422c-.1666.041-.375.083-.5416.125.1666-.62.3333-1.203.4583-1.823 0 .578.0417 1.161.0833 1.698Zm-14.8958 2.562c.4531 0 .9115 0 1.3646-.041-.8281 1.614-1.2031 3.395-1.3229 5.171h-.125c.2448-1.651.2864-3.39.0833-5.13Zm-.0833-.864c-.1667-1.12-.4167-2.235-.75-3.313v-.042c.0416-.166.125-.286.1666-.453 2.073.167 4.1094-.166 6.3073-.994.125.333.2917.619.4584.911-1.0782.745-2.1615 1.573-3.073 2.521-.0833.083-.1666.166-.2083.25-.3281.333-.5781.703-.8281 1.12-.7865-.042-1.4115 0-2.0729 0Zm5.8906-5.631c-.9531.417-1.9115.704-2.8229.912.2916-.125.5416-.287.8333-.412.3281-.166.6615-.333 1.0365-.5.2864-.119.5781-.203.8698-.328.2083-.041.375-.125.5833-.166.3698-.084.7865-.167 1.1615-.25-.375.166-.75.375-1.125.5-.1615.125-.3698.203-.5365.244Zm2.2396-.286c.2916-.125.7083-.333 1.2031-.542.0417 0 .0833-.036.125-.036-.4167.411-.8281.781-1.1198 1.031-.4583.333-.9531.703-1.4114 1.037l-.0834.083c-.0416-.292-.125-.583-.2083-.828.4583-.25.9583-.5 1.4948-.745Zm-1.9479-.828c-.2084.041-.375.083-.5834.166-.3333.084-.6198.204-.9531.329-.375.166-.7083.333-1.0781.5-.3334.161-.6667.328-1.0365.494-1.0416.454-2.1614.704-3.2812.704-.0417 0-.125 0-.1667.041-2.4062-.208-4.8958-1.161-7.7552-2.812 1.1615-.787 1.8229-1.407 2.4062-1.99.8698-.781 1.573-1.489 3.3178-2.396.125-.083.2916-.125.4166-.208 1.4115-.703 2.9427-1.406 4.5209-1.943h.0416c.0834-.041.1667-.041.25-.083.2084-.042.375-.125.5781-.167 1.0417-.291 2.0782-.411 3.1563-.453.9115 0 2.6562.287 4.3125.828-.4115 2.313.25 4.011 1.5365 5.25-.375.209-.7032.417-1.1198.578-.0417 0-.0834.042-.125.084-.4167.166-.7865.333-1.1615.5 0 0-.0417-.042-.0833 0-.9948.161-2.1146.286-3.1927.578Zm-11.5365 6.578v.042c.0417.286.0833.578.0833.869v.495c0 1.448-.5416 2.938-1.5364 4.469-.25.328-.4584.661-.7448.99-.125.166-.25.291-.375.458-.6615.786-1.4115 1.531-2.1146 2.276-1.1615 1.198-2.3646 2.396-3.901 3.016-1.0782.458-2.323.541-3.4844.666-.7917.078-1.5781.078-2.0781-.333-.4115-.37-.5782-.995-.7865-1.656-.125-.454-.25-.948-.5-1.365 2.7396-.536 6.0208-1.198 8.3438-2.979.1666-.125.2864-.245.4531-.37.375-.333.7083-.703 1.0364-1.161.2917-.37.5834-.823.8334-1.282.4114-.703.7864-1.489 1.1614-2.401.0834-.203.1667-.369.2084-.578v-.041c.0416-.162.125-.287.1666-.454.1198-.291.2032-.578.2865-.869.0417-.084.0417-.167.0833-.25.5834-1.568 1.1615-3.224 2.0365-4.672.4948.208.9948.411 1.4896.578-.4532.828-.7448 1.656-.8282 2.484.0417.703.125 1.406.1667 2.068Zm.5781-1.984c.0834-.787.3334-1.573.7917-2.36.9115.287 1.7812.495 2.6562.578-.1666.375-.3333.828-.5416 1.24-.4948.995-1.3281 1.948-2.1979 2.609-.2084.125-.375.287-.5834.37 0-.125-.0416-.286-.0416-.411v-.167c-.0417-.62-.1198-1.24-.0834-1.859Zm-1.0781-16.511c-.7448-.536-1.6146-.62-2.2396-.578h-.3333c-.2031 0-.4115.042-.6198 0-.6667-.042-1.4115-.745-1.9531-1.198l-.1615-.125c-.8333-.745-1.5781-1.614-2.2864-2.443-.3698-.411-.7448-.869-1.1198-1.281 2.1198-.495 4.3177-.828 6.4739-1.036h.2084c.0416 0 .0833-.037.125-.037.9947.906 2.0729 1.693 3.276 2.313.875.458 1.7448.786 2.6562 1.036-.2083.084-.4166.125-.6197.209-1.0834.369-2.1198.744-3.1146.536-.125-.042-.2084 0-.2917.083-.0833.084-.125.203-.0833.328.2916.995 1 1.74 1.6198 2.485.9531 1.031 1.9114 2.151 3.1145 2.937.8282.537 1.573.99 2.2813 1.323-1.2448.453-2.4063.995-3.526 1.573-.75-1.489-1.6198-2.729-2.6146-3.64h.125c.0833 0 .125-.042.1614-.084.0834-.041.125-.166.125-.25-.0416-.864-.4948-1.651-1.2031-2.151Zm-28.5885 2.11c0-.537-.0417-1.032.0416-1.527.2084-1.697 1.2865-3.437 2.9896-4.76 0 0 .0417 0 .0417-.042 1.5781-1.198 3.4844-1.984 5.3125-2.729.4531-.166.9114-.375 1.3698-.375.2864 0 .6198.084.9531.167.125.042.2917.083.4115.083.9583.209 1.9531.125 2.9479.042 1.3281-.083 2.6146-.167 3.6927.411.5833.292 1.0781.787 1.5364 1.287.4167.453.8282.906 1.2448 1.406.7448.87 1.4948 1.734 2.3646 2.521l.1667.125c.4948.411 1.0781.953 1.7396 1.239h.0416c.1667.084.3334.125.5417.125h.9948c.5 0 1.2448.042 1.8281.5.4531.287.7448.74.8281 1.24l-1.0781.083c-2.4062.245-4.6875-.911-6.9323-2.031-.5781-.286-1.2031-.578-1.7812-.864-.4167-.167-.75-.334-1.1615-.375-.5833-.042-1.1614.166-1.6198.333l-.1666.083c-1.0782.37-2.3646.865-2.573 2.026-1.0781-.041-2.2812.125-3.6927.578-1.9479.62-3.401 1.365-4.5208 2.36-1.4948 1.281-2.4479 2.979-3.1146 4.427l-1.2864-1.203c-.7032-.662-1.323-1.323-1.3646-2.11 0-.286.0416-.536.0781-.869.0417-.12.0417-.245.0417-.329.125-.661.125-1.239.125-1.822Zm26.9739-18.24c0 .495.0834.99.2448 1.484.125.375.3333.745.5833 1.078.375.495.8698.87 1.4948 1.037.0417 0 .0834.042.125.042-.3333.119-.6666.244-1.0364.286-.3334.042-.6667.042-1 0-.4948-.25-.9948-.411-1.4896-.661-.375-.167-.75-.37-1.2448-.412-.5833-.458-1.0417-.995-1.2865-1.656-.125-.292-.2083-.578-.2916-.953-.0417-.245-.125-.537-.1667-.787 0-.083-.0417-.166-.0417-.286l-.0416-.209c-.0417-.166-.0417-.291-.0834-.453-.125-.786-.2083-1.656-.0416-2.484 0-.042.0416-.125.0416-.167 0 0 0-.041.0417-.083.0417-.203.0833-.37.1667-.578v-.042c.4166-1.114 1.2031-2.068 1.9062-2.979l1.5782-1.943c.0833-.083.125-.166.2083-.25l.0833-.125c.2084-.244.375-.411.4948-.453h.125c.0833 0 .1667.084.25.167.0417.042.0833.125.125.208.25.453.2083 1.031.125 1.651l-.4167 3.683v.208l-.0416.411-.2448 2.193c-.0417.375-.0833.786-.125 1.161-.0417.287-.0417.579-.0417.912Zm3.9011 4.63c.0364.25.2448.458.4948.417.1666-.042.2916-.209.4583-.334.125-.125.4114-.125.4531.042-.125.25-.0417.62.2083.787.25.166.625.125.8334-.084.0781-.083.1614-.208.2448-.291.3333-.245.75.166.9166.5.0417.083.0834.203.1615.286-.4115.042-.7865.042-1.1615 0-.7448-.083-1.4895-.328-2.1979-.578-.8281-.287-1.6562-.578-2.4896-.912h-.0416c.375-.083.75-.161 1.0781-.328 0 0 .0417 0 .0417-.041.3333.083.7916-.042 1.1198-.209-.0834.292-.1615.537-.1198.745Zm-6.349-1.156c.3698.042.7031.167 1.0781.37.4948.25.9948.458 1.5365.661h.0781c.1667.083.375.167.5417.25l.25.125h.0416c.9948.412 2.0313.787 3.0261 1.115.75.25 1.5364.5 2.3646.578.4583.042.9583.042 1.4531 0 .1667 0 .3333-.037.5-.078.0833 0 .1667-.042.2083-.042.2084-.042.4115-.083.6198-.125.375-.083.7084-.167.9531-.25l.7917-.25c.0417 0 .0833 0 .0833-.036.1667-.042.2917-.084.3698-.125.25-.084.3334-.084.75-.25.5365-.209 1.0782-.412 1.6615-.537h.0781c.5-.125 1.0417-.208 1.5365-.208h.375c-.4167 1.406-.6667 2.812-.8281 4.135-.0417.25-.0417.5-.0834.745-.3333.25-.75.5-1.2448.786 0 0-.0416.042-.0416 0l-.0417.042c-.2917.167-.5833.333-.9167.537-.1614.125-.3281.208-.5364.291-.5417.292-1.0782.537-1.6615.745-1.1198-.042-2.1979 0-3.276.25l-.1667.042c-1.2448-.167-2.4479-.584-3.6927-1.203-1.2031-.62-2.3229-1.407-3.3177-2.355-.5-.5-1-.994-1.4115-1.531-.2083-.291-.4166-.583-.6666-.87-.3282-.494-.6198-.994-.9115-1.531-.1667-.333-.3333-.703-.2083-.995.0833-.161.4166-.286.7083-.286Zm10.9948.167c.5365.244.6198.947.8698 1.484.0833.167.2083.375.375.5-.2917.083-.5833.125-.9115.203-.125-.203-.25-.37-.3333-.578.0417-.537.0417-1.073 0-1.609Zm13.0677-7.948c.4583-.245.9531-.453 1.3281-.865.2917-.292.5-.703.5417-1.078 0 .042.0417.083.0417.125.1666.953 0 1.859-.1667 2.812 0 .084-.0417.125-.0417.209-.0416.166-.0416.328-.0833.495l-.0833.453-.0834.458c-.0833-.125-.125-.25-.25-.375-.1666-.245-.3698-.536-.6198-.745-.2916-.286-.6666-.495-1.1198-.661-.3333-.125-.6666-.125-.9166-.042-.2448.083-.4115.292-.5365.458-.25.329-.5416.662-.7864 1.032-.2084.333-.4584.661-.6667 1.036-.8698 1.49-1.6615 3.182-2.2396 5.047h-.5833c-.4115.042-.7865.042-1.2031.167.0416-.953.2916-1.865.7083-2.735.3698-.781.8698-1.484 1.4531-2.151.3281-.411.7031-.745 1.1198-1.114 1.4115-1.037 2.901-1.901 4.1875-2.526Zm-.9531-1.86c.125-.453.5-.87.9114-.995.1667-.041.3334-.083.4584-.083.2083-.036.375 0 .5364.042.1667.125.25.291.2917.458v.083c.0417.329-.125.745-.3698 1.032-.2917.333-.7083.5-1.2031.745-.0834.041-.1667.083-.2084.125-.0833-.042-.125-.042-.1666-.125-.375-.287-.375-.829-.25-1.282ZM75.625 137.037c.3281 0 .6198 0 .9531-.084.7864-.12 1.5729-.37 2.2396-.578l.5781-.203c1.3698-.5 2.7812-1.036 4.1927-.87h.125c.8281.167 1.6198.37 2.4063.703.0416 0 .0416.042.0833.042 1.2864 1.115 2.6562 2.109 4.0677 2.854.2917.287.5365.578.7865.912 0 .036.0416.036.0416.078-.4583.583-.8281 1.286-1.0781 2.192-.0833.292-.1667.542-.2083.787-1.7396-.578-3.5261-.828-4.4375-.828-1.2032 0-2.3646.166-3.5261.5-.2083.041-.375.125-.5833.166-.0833-.041-.1667-.083-.25-.125-.7448-.333-1.6198-.828-2.5729-1.447-1.1198-.787-2.0729-1.823-3.0261-2.896-.375-.417-.7916-.87-1.0781-1.365.3281.12.8281.162 1.2865.162Zm-.2084-.662c.4948-.125 1.0365-.286 1.5313-.453.25-.083.5-.167.75-.25.375-.125.7031-.203 1.0781-.286l.2083-.042c.4115-.083.8698-.125 1.3282-.167-.4167.125-.7917.292-1.1615.412l-.5417.208c-.9531.292-2.1145.62-3.1927.578Zm11.1198-2.318c0 .5.0417.995.0834 1.448-.0834-.036-.2084-.119-.2917-.161h-.0417c-.5416-.458-1.0364-.953-1.5364-1.49.2083-.125.4583-.25.6666-.416.4115.291.7865.458 1.1198.619Zm-.4166-.906c.1666-.083.2916-.167.4166-.292v.495c-.125-.078-.25-.161-.4166-.203Zm-1.1615 1.776c-.375-.125-.7865-.203-1.1615-.286h-.2916c.25-.125.5416-.25.7916-.417.2032.25.4115.458.6615.703Zm-14.1094-3.724c-2.2396.25-4.5208.625-6.7187 1.12-.25-.25-.5-.458-.7917-.661 2.2865.166 4.5677-.042 6.5156-1.323.0417-.042.0834-.042.125-.084.2917.328.5834.62.8698.948Zm-1.2864-1.448c-.0417 0-.0834.042-.0834.042-2.901 1.906-6.8021 1.286-10.2031.583-1.8281-.375-3.901-.911-5.3542-2.031-.3333-.245-.5833-.495-.7864-.703-.2917-.328-.5-.662-.7084-1.115v-.041c.125.083.2084.208.3334.286l.0416.042c.2084.208.4584.375.7032.541.1666.125.3333.204.5.329 2.6146 1.573 6.4739 2.317 9.2135 2.526 1.4479.083 3.1094.125 4.6875-.292.4948-.125.9531-.286 1.4531-.536 0 .083.1198.25.2032.369Zm-10.9948 1.12c-.8698.042-1.7396.083-2.5729-.042-.125-.041-.2448-.041-.4115-.083-.375-.083-.7083-.167-1.1198-.167-.5833 0-1.125.209-1.6198.417-.1667.042-.2917.12-.4583.162.5416-.662.9948-1.365 1.3698-2.11 1.4531.953 3.1979 1.448 4.8125 1.823Zm-6.1407-3.104c-2.1145 1.901-4.5625 3.432-6.9687 4.922-.9531.583-1.9115 1.12-2.8229 1.614-2.1979 1.198-4.4792 2.485-6.8021 4.636-.0417-.578.1615-1.162.4531-1.573.4584-.662 1.1198-1.12 1.7448-1.615 2.0313-1.489 4.0261-2.937 6.0573-4.427 2.3229-1.692 4.9375-3.599 7.9271-4.26.0781.25.2448.453.4114.703Zm-9.5 7.073c.9532-.537 1.9063-1.031 2.8646-1.651 1.8229-1.162 3.7344-2.318 5.474-3.682.5417-.417 1.0364-.87 1.5364-1.287.125.125.2917.292.4584.417-.5417 1.114-1.3281 2.151-2.2865 3.104-1.2448.536-2.4896 1.156-3.6094 2.026-.4947.411-.9531.828-1.3697 1.281-.7865.375-1.6563.787-2.6563 1.198-.7031.292-1.4479.667-2.1979.995-1.5313.703-3.0677 1.406-4.5208 1.781 2.1562-1.864 4.2708-3.021 6.3072-4.182Zm60.537-7.693c-.375.828-.662 1.86-1.037 2.854-.125.042-.208.125-.333.167-1.287.745-2.4482 1.615-3.443 2.687-.0833.125-.2083.209-.3333.334-.0834.041-.2084.083-.2917.12.0417-1.282-.0365-2.605-.3281-4.094-.2084-.953-.4584-1.943-.8334-3.146 1.0417-.328 2.1198-.745 3.1146-1.198.8699-.411 1.7449-.87 2.5729-1.406l.167-.083c.328-.209.62-.37.911-.454.167-.041.334-.041.5 0 .042 0 .042 0 .084.042.203 1.365-.125 2.896-.75 4.177Zm.041-4.88c-.416.125-.786.328-1.12.536l-.208.125c-.167.125-.375.204-.578.329.661-.745 1.286-1.49 1.906-2.313.25.411.459.823.542 1.24-.125.041-.333.041-.542.083Zm-.083-2.234c-1.203 1.531-2.323 2.979-3.7345 4.26-.375.167-.7448.328-1.1198.453 1.0364-.87 1.8283-1.984 2.5313-3.021l.208-.286c.537-.787 1.037-1.615 1.495-2.485.412-.744.828-1.531 1.328-2.234.162-.245.287-.453.453-.661.25-.329.5-.62.792-.912.62-.739 1.365-1.448 2.073-2.151.208-.161.375-.37.5-.536-.167.578-.375 1.119-.583 1.614-.209.495-.459.953-.704 1.365-.875 1.531-1.911 2.812-2.739 3.89l-.5.704Zm-18.797 2.234c-.125.37-.25.703-.4115 1.073-.0417-.042-.0833-.125-.1667-.125-.375-.162-.5-.162-.9166-.287.1666-.166.375-.375.5416-.536.2917-.042.625-.083.9532-.125Zm-.0834-.87c.2084-.25.4584-.495.6667-.745-.0833.25-.1667.453-.25.703-.125 0-.25.042-.4167.042Zm.9584-19.156c1.7812 1.573 3.151 3.599 3.9375 5.667.125.291.2083.541.2916.828.0834.291.2084.619.25.953.0834.291.125.578.125.911-.25.245-.5.537-.7083.828-.0417-.541-.1198-1.078-.2448-1.489 0-.042-.0417-.084-.0417-.125-.0416-.25-.125-.495-.2083-.703-.75-2.688-2.1146-5.131-3.901-7.24.1666.125.3333.245.5.37Zm-14.4011 9.062c0-.208.0417-.416.0834-.619.0833-.459.2083-.912.3333-1.365.0833-.208.125-.417.2083-.625.0834-.203.1667-.453.2865-.661.125-.245.2083-.495.375-.704.2916-.536.625-1.072 1.0364-1.572.25-.329.5-.662.7917-.948.7865-.87 1.6563-1.615 2.6146-2.276.1614-.125.3281-.25.4948-.334 1.4531-.989 3.0312-1.817 4.4844-2.5206.1197.0833.2447.2083.3697.3286.2084.166.4167.333.5834.5 2.8229 2.52 4.8125 5.833 5.7239 9.473.0834.329.125.579.1667.865.0833.458.125.87.125 1.287v.161c-.0833.125-.1667.292-.25.417-.4531.703-.8698 1.448-1.2448 2.276-.5364 1.198-.9948 2.479-1.4114 3.682-.7032.99-1.4532 1.943-2.2813 2.854-.25.042-.4948.042-.7448.083.0417-.125.0833-.208.125-.333 0-.042.0417-.125 0-.125-.0417-.042-.0833-.083-.125-.125-.25-.12-.5417 0-.75.167-.2083.166-.3698.375-.6198.495-.2083 0-.4166.041-.625.041-.0833-.041-.125-.078-.125-.12-.0833-.166-.0416-.375-.0833-.541 0-.162-.1615-.37-.3281-.328-.25.041-.2084.494-.4167.661-.125.083-.3333.042-.4583-.083-.1198-.125-.1615-.292-.2032-.412-.0416-.166-.0833-.375-.1666-.5-.0834-.083-.25-.125-.3334-.041-.0833.041-.0833.166-.125.25-.0833.411-.25.786-.4166 1.156-.0782-.412-.2032-.823-.3698-1.198-.0417-.125-.0834-.208-.125-.292-.0834-.119-.1667-.286-.3334-.286-.0416 0-.0416 0-.0833.042-.0833.041-.125.125-.125.166-.0417.12-.0833.287-.0833.453-.0417.37 0 .787 0 1.157h-.1667c-.0364 0-.0364-.042-.0364-.042v.042c-.3334 0-.6667 0-1-.042h-.5365c-.0833-.12-.1667-.245-.25-.328-.0833-.125-.1667-.209-.2083-.334-.0834-.083-.0834-.244-.1667-.328-.0417-.041-.125-.083-.1667-.083-.2448 0-.1614.495-.1614.661.0364.167.0781.292.1614.454.0417.083.0834.208.125.25.1667.25.375.453.625.661.2084.167.3698.375.5782.537.0833.083.1666.166.125.291 0 .25-.4115.292-.6615.209-.5833-.167-1.1615-.334-1.7448-.5-.2083-.042-.4167-.084-.5781-.042-.2084.042-.375.25-.2917.458.0417.125.1667.203.2917.245.9114.458 2.0312.625 3.026.417-.2916.411-.8281.536-1.2448.828-.125.083-.25.203-.3333.328h-.0781l-.125-.042c-.4167-.125-.8334-.411-1.1198-.786-.2084-.287-.375-.578-.4584-.906-.125-.375-.2083-.829-.25-1.245 0-.287 0-.578.0417-.907.0417-.375.0833-.786.125-1.161l.2083-1.859.0417-.292.0833-.578v-.125l.4115-3.641c.0417-.37.0833-.703.0417-1.073-.0417-.333-.0834-.661-.2865-.953-.0417-.083-.125-.166-.1667-.291-.1666-.204-.375-.37-.625-.412-.0833 0-.125-.042-.2083 0-.2448 0-.4948.125-.6614.292-.125.078-.2084.203-.2917.286-.0833-.208-.0833-.328-.0417-.495Zm-14.1458-6.661c.0781-.125.1614-.25.2864-.333.125-.079.25-.12.375-.204.0417 0 .0834-.041.125-.041h.0417c3.7761-.292 7.5104.703 10.5781 2.646.5.291.9584.619 1.3698.994.4167.329.8334.704 1.2032 1.032-.1667.416-.2865.869-.3698 1.364-.0417.084-.0417.167-.0417.25-.0417.209-.0833.417-.125.62-.0417.25-.0833.5-.0833.745v.87l-1.3282 1.656c-.625.828-1.3698 1.693-1.8281 2.687-.125.209-.2031.454-.2864.704-.0417.083-.0417.125-.0834.208-.0416.167-.0833.328-.125.495 0 .083-.0416.125-.0416.208-.125.745-.0834 1.531.0416 2.276-.5833-.083-1.2031-.25-1.7864-.375-.0834-.042-.1667-.042-.25-.083-.2448-.084-.4532-.162-.6615-.245-.2083-.083-.4167-.167-.625-.25-.3281-.125-.6198-.292-.9115-.453-.5364-.417-1.0364-.912-1.4114-1.328-.7865-.948-1.4948-1.943-2.3229-3.266-.4167-.661-.8282-1.365-1.2032-2.151-.4947-1.036-.9531-2.193-1.1197-3.391-.0417-.125-.0417-.25-.0417-.375 0-1.239-.2083-3.145.625-4.26Zm-.3333 8.687c-.3334-.744-.5417-1.531-.625-2.317l-.0417-.167c-.0833-.495-.1667-1.281-.2448-2.151-.0833-1.031-.125-2.068.0417-2.687-.125.911-.0417 1.901.0364 2.729 0 .083.0417.166.0417.25.1667 1.489.6667 2.854 1.2448 4.052.375.745.7916 1.489 1.2031 2.109.6667 1.037 1.2448 1.906 1.8698 2.735-1.5781-1.245-2.8229-2.855-3.526-4.553Zm-.75 5.422c.7083-.208 1.6197-.208 2.6145-.041.2917.041.5834.119.875.203.7448.208 1.4063.375 2.1146.661 0 0 .0417 0 .0417.042h.0417c.1666.125.375.208.5364.292h.0417c.0416.041.0416.041.0833.041.2083.084.4167.209.6667.328.1666.084.3698.167.5364.25.25.125.5.209.7917.292.2865.083.5365.203.8281.286.125.042.25.084.4167.125.125.042.2865.084.4531.125.2917.084.5834.167.9167.25v.042c.0833.37.125.703.2448 1.073.0833.375.2083.745.375 1.037.25.578.5833 1.072 1.0364 1.531-.25.12-.4948.328-.6198.62-.25.536 0 1.114.2084 1.572.2448.412.4948.865.7448 1.282-.4167.203-.8282.328-1.2448.453-1.4948.417-3.1094.333-4.4792.25-2.6979-.167-6.4323-.912-8.8802-2.401-.1667-.084-.3333-.209-.4583-.292-.25-.161-.4584-.328-.6198-.495-.2084-.208-.4167-.411-.625-.619-.1667-.209-.3334-.454-.4167-.662-.0417-.083-.0781-.208-.1198-.292v-.453c0-.166.0417-.291.0417-.453.0364-.291.1198-.625.2031-.911.0417-.042.0417-.084.0417-.125v-.042c.0833-.208.1666-.453.2916-.661.0834-.209.1667-.375.2917-.537v-.042c.0833-.166.1667-.291.2917-.458l.0416-.042c0-.036.0417-.078.0834-.078 0-.041.0364-.041.0364-.083.0417-.083.125-.167.1667-.25.0417-.042.0833-.125.125-.167.0833-.083.125-.166.2083-.244.0834-.084.125-.167.2084-.25l.1666-.167c.6615-.495 1.1615-.828 1.698-.99 0 .037 0 .037 0 0ZM55 118.422c-.3334.167-.6615.411-.9948.703-.1667-.453-.2917-.87-.5-1.323.5.245 1 .453 1.4948.62Zm-4.0261-4.094c.4167.62.7917 1.24 1.1198 1.943.2083.411.375.828.5833 1.24.2917.703.5834 1.447.7865 2.192-.0417.042-.0833.125-.125.167l-.0417.042c-.1614.166-.3281.369-.4531.578-.125.166-.25.375-.375.536-.125.208-.25.417-.3333.625-.0834.12-.1198.245-.1615.37-.875-1.448-1.6198-2.979-2.4114-4.594l-.5365-1.073c-.125-.25-.25-.495-.375-.745-.25-.458-.4948-.953-.7448-1.406-1.2864-2.276-2.9062-4.594-5.0208-6.083 3.151.953 6.0989 3.146 8.0885 6.208Zm-8.7552-5.463c-.1614-.25-.2864-.495-.4531-.745 2.0729 1.161 3.6927 3.229 4.9792 5.38.2916.495.5781.99.8281 1.49.2916.536.5416 1.073.7864 1.573l.5417 1.073c.8698 1.781 1.7031 3.473 2.6979 5.088 0 .042 0 .042-.0416.083-.0417.125-.0834.209-.0834.329v.041c-.0416.167-.0833.334-.125.542-.0416.203-.0416.37-.0833.536v.25c-.125-.083-.25-.166-.3333-.25-1.3282-.953-2.4896-2.317-3.4428-4.015-.8697-1.526-1.5364-3.183-2.1562-4.797-.2917-.745-.5833-1.531-.9115-2.276-.2083-.495-.4583-1.031-.7083-1.49-.0417-.083-.0833-.166-.125-.245-.3698-.869-.8698-1.739-1.3698-2.567ZM27.5729 23.7241c-16.349 22.0521-16.224 52.875.7916 74.8385 4.3542 5.6304 9.4584 10.2604 15.099 13.9424.5 1.037.9167 2.11 1.3281 3.146.6667 1.615 1.3282 3.307 2.2032 4.88.9947 1.782 2.2395 3.23 3.651 4.219.2448.167.4948.333.7865.5v.12c-4.1928-.745-8.3803-1.818-12.4896-3.141l-.125-1.245c-.2917-3.677-.7448-7.526-2.2396-11.083-1.7031-3.932-4.5625-6.828-7.9271-7.901-.125-.042-.2448 0-.3281.078-.0834.084-.125.209-.0834.334 1.1198 4.015 2.6928 7.901 4.6042 11.583.4583.87 1.9896 3.229 3.3594 5.255.4583.703.9948 1.49 1.3698 2.109.125.209.25.412.375.579-3.1146-1.032-6.1823-2.235-9.2136-3.558 0 0 0-.041-.0416-.041-.6615-3.266-1.4115-6.662-2.9844-9.761-1.8281-3.521-4.6094-6.083-7.7188-6.995-.7083-.208-1.0364 0-1.2031.209-.2916.37-.0833.911 0 1.114 1.9479 4.636 4.6875 10.177 8.8802 14.026-2.9896-1.448-5.8958-3.02-8.6302-4.713.125-.708-.6666-1.573-1.4948-2.485-.1666-.166-.2916-.333-.375-.411l-.25-.292c-1.4062-1.823-2.9843-3.849-5.02081-4.922-1.24479-.661-2.57291-1.244-4.02083-1.739-.45833-.125-.875-.292-1.32813-.412-7.84375-27.635.41146-58.4162 23.02607-78.2339Zm2.2396 79.4739c.0416.042.0833.042.0833.083 2.5729 1.323 4.6927 3.724 6.0573 6.948 1.0833 2.526 1.5781 5.255 1.9114 7.943v.083c-1.6197-5.541-4.3593-10.672-8.052-15.057Zm8.052 17.417c-.2916-.453-.6666-.995-1.1197-1.698-1.3282-2.026-2.8646-4.344-3.323-5.214-1.6979-3.224-3.0677-6.573-4.1041-10.094 4.1458 4.928 7.0521 10.761 8.5468 17.006Zm-.5416 2.937c-.0417.084-.0834.167-.1667.25-.0781.12-.1614.245-.2031.287-.4167.578-.9167 1.036-1.4115 1.489-.1666.167-.3333.292-.5.459-1.9062 1.901-4.1093 3.349-6.5989 4.302-.9948.369-1.9479.578-2.9844.823-.3333.083-.6667.166-.9948.25-.1667.041-1.0781.208-1.8698.375 4.5677-3.063 9.5833-5.672 14.7292-8.235Zm-15.1823 7.776c1.0364-1.984 2.901-3.307 4.4375-4.094 1.0781-.578 2.2396-1.036 3.3594-1.489l4.7708-1.943c.625-.25 1.2448-.5 1.9115-.666-5.0209 2.567-9.9584 5.13-14.4792 8.192Zm-4.1927-29.083c2.9062.911 5.4791 3.312 7.1771 6.62 1.2864 2.567 2.0364 5.338 2.6145 8.151l-9.7916-14.771Zm9.2916 15.182c-1.4479-1.156-2.776-2.521-3.9375-4.01-2.6145-3.354-4.4843-7.281-5.9375-10.755v-.042l9.875 14.807ZM3.67183 102.412h.08334c.33333.083.66666.166 1 .291.28646.084.61979.203.91146.287 1.41145.458 2.73958 1.036 3.9427 1.698 1.86457.994 3.40107 3.02 4.77087 4.755l.25.291c.0833.084.2031.292.4114.454.3334.375 1.2865 1.364 1.3698 1.823-.9531-.25-1.9062-.745-2.9427-1.532-1.4114-1.12-2.8229-2.276-4.15103-3.432-1.41146-1.203-2.82292-2.401-4.31771-3.557-.36979-.292-.78646-.625-1.20313-.912-.08333-.083-.20833-.166-.28645-.208.07812 0 .11979 0 .16145.042Zm.875 2.526c-.58333-.704-1.11979-1.412-1.61979-2.151.375.286.78646.536 1.16146.822.41667.292.82813.625 1.20313.954 1.20312.953 2.40625 1.984 3.5677 2.937 1.32817 1.156 2.73957 2.359 4.19267 3.474.7032.537 1.3698.953 2.0313 1.245-.6198-.125-1.3698-.375-1.8646-.625-.9531-.412-1.8698-.906-2.7396-1.448l-.25-.162c-1.5781-.994-2.98435-2.151-4.27081-3.437-.45833-.495-.95833-1.031-1.41146-1.609Zm1.98959 3.015c1.03646.953 2.19791 1.823 3.40104 2.568l.25004.167c.9114.536 1.8281 1.073 2.8229 1.489.7448.328 1.9479.745 2.8229.745.3698 0 .6615-.083.8698-.167 2.8229 1.735 5.8073 3.349 8.8802 4.839h-.0417c-.6666-.167-1.3698-.25-2.0781-.328l-.2865-.042c-3.9427-.542-7.9687 0-11.5781 1.448-1.98957-3.479-3.69269-7.036-5.06248-10.719Zm4.52088 11.625c.2916-.12.5416-.245.8333-.328 3.4844-1.406 7.3854-1.906 11.1614-1.364l.2917.041c.7448.084 1.4479.162 2.1563.37.25.083.5364.125.8281.167.2083.041.4583.083.6667.125.0833.041.2031.041.2864.083-3.026.865-6.4687.948-9.8333.99-1.7396.041-3.5261.083-5.224.208-.3333 0-.6666.042-.9583.083-.3698.042-.7031.084-1.0781.167.2916-.25.5833-.417.8698-.542Zm1.0833 1.49-.1667-.042c-.6666-.078-1.3281-.203-1.99477-.328.54167-.083 1.07817-.167 1.66147-.208.3333-.042.6614-.084.9948-.084 1.6198-.125 3.2812-.166 4.8958-.166 3.2813-.037 6.6823-.12 9.7083-.907-.2447.204-.4531.412-.7031.579-.5416.411-1.1198.703-1.7448.911-1.3281.495-2.776.661-4.1041.828-2.4896.203-5.0209-.083-7.4688-.417-.4583-.083-.7917-.125-1.0781-.166Zm5.3906 6.536c-1.4114-1.859-2.776-3.724-3.9844-5.666 2.3282.291 4.6927.536 7.099.333 1.4115-.167 2.8594-.375 4.2708-.87.7084-.25 1.3282-.578 1.9115-.995l.1667-.125c.2864-.203.5364-.453.7864-.661.25-.203.5-.412.7448-.62 2.8229 1.24 5.7292 2.401 8.6302 3.354-.9531.203-1.8229.537-2.651.865l-4.7761 1.906c-1.1198.453-2.3229.912-3.401 1.531-1.8229.948-4.1458 2.646-5.1458 5.25-1.2865-1.364-2.4896-2.812-3.6511-4.302Zm20.7083 18.495c0-.042 0-.042 0 0Zm-2.2031-1.406c-5.1406-3.354-9.9583-7.406-14.2708-12.084.2083-.036.5364-.119.8698-.161 1.0364-.167 1.7864-.333 1.9948-.375.3281-.083.6614-.167.9948-.245.9948-.25 2.0312-.5 3.0677-.87 1.7864-.661 3.4062-1.614 4.8958-2.77.6667-.542 1.3281-1.079 1.9115-1.698.1666-.167.3333-.334.4948-.453.5416-.5 1-.995 1.4531-1.573.0416-.042.125-.167.2083-.334.1667-.25.625-.953.8281-1.198.0417-.041.0834-.041.125-.083 4.2344 1.365 8.5469 2.443 12.8646 3.224.0417.125.0834.25.125.375-3.0312.703-5.6875 2.646-8.0104 4.344-1.9896 1.489-4.0208 2.937-6.0573 4.427-.7031.495-1.4114 1.031-1.9062 1.776-.5834.87-.75 1.864-.4167 2.693 0 .041.0417.041.0417.041v.042h.0416c.0417.042.0834.042.1667.078h.125c1.8646-.203 3.901-1.115 5.849-2.068.7447-.328 1.4531-.661 2.1562-.989.5417-.209 1.0365-.459 1.5365-.662-.5782.907-.9532 1.86-1.0365 2.813-.0833.536-.0417 1.114-.0417 1.614 0 .579.0417 1.115-.0416 1.651 0 .125-.0417.209-.0417.334-.0417.328-.125.661-.0833.989 0 .167.0833.334.125.5-.8698.287-1.7865.537-2.6563.87-.0416 0-.0416 0-.0833.037-1.6198-.037-3.3594-.204-5.2292-.245Zm4.0261 1.531c-.1667.125-.3334.245-.4167.328l-.2448.209c-.125-.084-.2917-.167-.4167-.25.4167-.162.8698-.287 1.2865-.454l-.2083.167Zm.375 1.156c.375-.578.7448-1.156 1.0364-1.734.0417 0 .0417 0 .0834-.042.8697-.291 1.7864-.583 2.6979-.87.2916.537.7448.99 1.2031 1.448l1.4531 1.365c-.25.536-.5 1.115-.7083 1.698l-.0833.161c-.0834.209-.1667.459-.25.662-1.823-.787-3.6511-1.693-5.4323-2.688Zm14.0677 19.282c-.0417-.042-.0417-.042 0 0-.7084-.209-1.3698-.542-2.0365-.829-.4167-.208-.7864-.416-1.2031-.578-.4583-.166-.8698-.333-1.3281-.5-1.3282-.453-2.573-.911-3.2761-1.942-.7083-1.079-.625-2.443-.5-3.974.125-1.323.2917-2.73.0834-4.094-.0417-.25-.0834-.495-.125-.745-.0834-.495-.1667-.995-.1667-1.448 0-.411.0833-.828.2083-1.239.0834-.292.1667-.584.25-.829.0834-.25.2084-.458.2917-.703l.0833-.208c.25-.578.4948-1.198.7448-1.776 0-.042 0-.083.0417-.083 0-.042.0416-.084.0416-.084.6667-1.448 1.5782-3.187 3.073-4.51 1.0781-.912 2.4479-1.656 4.3125-2.234 1.4948-.495 2.6979-.662 3.776-.537.3333.042.625.083.9115.208-.9532.662-1.823 1.485-2.448 2.48-.3697.619-.7031 1.281-.9947 1.942-.2084.417-.4167.87-.6198 1.287-.5834 1.073-1.0417 1.651-1.9115 2.067l-.4948-.125c-.375-.083-1.2031-.25-1.7031.25-.3333.287-.4583.823-.375 1.282 0 .041.0417.083.0417.125-.4948.125-.9948.244-1.4948.411-.6198.208-1.2448.495-1.7396.953-.25.167-.4584.412-.6667.662-.125.166-.2448.37-.3698.62-.375.786-.2916 2.276-.0833 3.062v.042c.2448.989.5364 2.026 1.1198 2.937.7448 1.198 2.0729 2.026 3.6927 2.318l.0417.036c.9531 1.448 2.4479 2.235 3.9843 2.073.4532-.041.9532-.166 1.5729-.375.6667-.208 1.2865-.495 1.9532-.828-.125.333-.25.662-.3334.995v.042c-.0416.208-.0833.411-.0833.578 0 .786.375 1.781 1.2448 2.151.7083.291 1.5781.166 2.4062-.412.0834-.041.1667-.083.2084-.166.25-.209.5-.417.7031-.62.25-.25.5-.458.7917-.662.125-.125.2916-.208.4114-.291.2917-.209.5834-.37.875-.662.0417-.041.0834-.083.0834-.125.125-.166.2448-.286.3281-.453.375-.62.5-1.281.5-2.026v-.667c-.0417-.411-.0833-.781-.125-1.156-.0417-.37-.125-.786-.3333-1.114-.0417-.084-.0834-.125-.125-.167-.1615-.208-.4115-.375-.6198-.495-.25-.167-.4167-.292-.5-.417-.0417-.041-.0417-.083-.0417-.125-.0417-.125 0-.286.0417-.453.2916-1.198.625-2.484 1.0833-3.64.0781-.209.1615-.417.2448-.62.2083-.537.4583-1.078.5833-1.656.6615-2.688-.4583-5.834-3.0729-8.646l-.0833-.125c-.5365-.578-1.0782-1.156-1.1615-1.901-.0417-.167-.0417-.375-.2083-.542-.1198-.12-.2865-.203-.4948-.203-.2083 0-.4583.125-.5833.286-.2032.25-.2032.584-.2032.829v.458l-.125.042c-.2083.036-.4583.078-.6666.161-.2917-.083-.5782-.161-.8698-.203.1666-.745.9948-1.078 2.1562-1.49l.1667-.083c.4583-.167.9114-.333 1.3281-.292.3333.042.6198.167.9531.334.5834.244 1.1615.536 1.7448.869 2.2813 1.157 4.6875 2.355 7.2604 2.11l.4584-.042c1.0781.828 2.0729 2.193 2.8594 3.844-.0417.042-.0834.042-.1667.083-1.8229.953-2.6146 1.698-3.4427 2.485-.7031.661-1.4115 1.323-2.7813 2.192-.0833.084-.1666.167-.1666.287 0 .125.0833.208.1666.291.9584.579 1.8698 1.079 2.7813 1.49-.8698 1.49-1.4531 3.146-2.0313 4.714-.0416.125-.0833.291-.1666.416-.0834.292-.2084.578-.2917.87 0 .083-.0417.125-.0833.203 0 .042 0 .042-.0417.084-.0833.208-.1667.416-.2083.583-.0417.12-.125.245-.1615.37-.25.619-.5 1.198-.7917 1.698-.2916.536-.6198 1.031-.9531 1.489-.4583.578-.9531 1.073-1.5364 1.49-2.1563 1.609-5.1875 2.192-7.9219 2.729l-.4584.083h-.0416l-.4584.084c-.7031.161-1.4895.328-2.2395.244-.0834-.166-.2917-.203-.4948-.244Zm9.5-10.636c.0833.458.4166.703.7448.912.0416 0 .0833.041.0833.041.1667.125.375.25.5.37.2083.208.25.583.2917.953.2031 1.406.2864 2.938-.6667 3.891-.25.203-.4948.37-.7448.536-.1667.125-.3333.209-.4583.334-.3334.203-.5782.453-.8282.703-.2916.245-.5416.495-.875.703-.6197.453-1.2864.578-1.7812.37-.4167-.167-.6667-.578-.7865-1.037.1615.084.3698.125.5782.125.1666-.041.2916-.083.375-.125.6614-.328 1.2031-.823 1.5729-1.484.1666-.25.3333-.459.5-.703.25-.334.5-.667.6666-1.037.3698-.745.4948-1.573.5782-2.276v-.37c.0416-.375.0833-.744.125-1.119.0416-.287.0416-.579.0416-.912.1667-4.219-.4583-8.729-1.8698-13.443l-.0781-.291c-.2083-.745-.4583-1.448-.5416-2.193v-.083c-.0417-.203-.0417-.412-.0417-.62 0-.162 0-.328.0833-.412.0417-.041.0834-.041.0417-.041.0417.041.0417.125.0417.25.0833.906.7447 1.609 1.3281 2.229l.0833.125c1.1615 1.245 3.8177 4.552 2.9011 8.068-.125.536-.3282 1.036-.5782 1.573-.0833.208-.1666.411-.25.619-.4583 1.24-.7864 2.485-1.0781 3.766-.0417.167-.0833.37-.0833.578.125-.083.125-.042.125 0Zm-15.4375-3.349c.125-.083.2083-.208.3333-.25.2917-.245.625-.411.9948-.536.5417-.209 1.1615-.375 1.8281-.537.4115-.125.8698-.208 1.2865-.375-.4584.537-.9584.912-1.4115 1.24l-.0416.042c-.0834.041-.2084.083-.2917.166-.3333.209-.5781.417-.7448.662-.125.166-.2083.375-.2083.578-.0417.458.25.995.6614 1.245-.2448.619-.4114 1.322-.3698 2.026.0417.369.125.703.1667 1.036l.3281 1.484c.0417.167.0834.334.125.5-1.2031-.333-2.1562-.994-2.7396-1.906-.4948-.781-.7864-1.734-1.0364-2.687v-.042c-.125-1.281.625-2.193 1.1198-2.646Zm10.6666 5.542c.0417-.083.0834-.167.125-.245.2448-.5.4948-.995.4532-1.573 0-.208-.0834-.375-.125-.542-.2032-.494-.5782-.822-.8698-1.072l-.0834-.084c-.2083-.166-.4166-.291-.6198-.411-.25-.167-.4583-.292-.7083-.5-.0833-.042-.1667-.125-.25-.162-.1614-.125-.2864-.208-.4114-.375-.0834-.166-.2084-.291-.3334-.411-.2083-.208-.4166-.375-.625-.542-.2448-.245-.4948-.453-.7864-.745-.3334-.369-.6198-.703-.6615-1.073.2031-.083.3698-.208.5365-.333.25.125.4583.25.6666.417.3698.203.7448.453 1.1198.62.25.125.5365.166.7865.25.125.036.2083.036.3333.078.125.041.25.083.4167.125.0781.041.1198.041.2031.083.5833.292 1.0833.828 1.4948 1.615.2083.369.375.744.5417 1.114.125.25.25.542.3698.787.0416.083.0833.208.1666.291.125.25.2917.495.4584.745 0 0 0 .042.0416.042-.7083.661-1.4948 1.323-2.2396 1.901Zm2.7396-1.24c.2031.292.4531.537.7448.787-.2083.208-.3333.245-.6667.286-.1197.042-.2864.084-.4947.125-.1667.042-.2917.084-.4167.125.2917-.411.5833-.87.8333-1.323Zm-8.2604-2.192c.125 0 .3333 0 .4583-.084.125-.041.25-.083.3334-.166.0364-.042.0781-.042.0781-.084.1667-.161.3333-.37.4583-.578.0417-.042.0834-.125.125-.167.1667-.203.2917-.286.4167-.328.0417.042.0833.084.125.084-.0417.041-.0833.125-.0833.203 0 .041-.0417.125-.0417.166 0 .084 0 .209-.0417.334 0 .245-.0416.411-.125.578l-.0416.042c-.0417.041-.0417.083-.0834.125-.0833.125-.1666.244-.2083.411-.0417.125-.0417.25 0 .375 0 .042 0 .083.0417.12.0416.083.0416.166.125.25.25.416.6198.703 1.0364.87-.6198.125-1.2448.125-1.7448-.125-.0364-.042-.0781-.042-.1198-.084 0 0-.0416 0-.0833-.041l-.0417-.042c-.1666-.12-.375-.245-.6666-.287-.125-.041-.25-.041-.3698-.041-.1667 0-.3334 0-.4167-.084-.0833-.083-.125-.291-.0833-.453v-.125c.0833-.333.25-.703.5-.786.2031-.042.3281-.042.4531-.083Zm-.2917-.579c.0417-.041.0834-.083.1667-.083.0417.042.0833.042.125.042h-.0417c-.0833 0-.1666 0-.25.041Zm.875-1.906c-.0833 0-.2083 0-.2916.042-.2084 0-.375.042-.5417 0-.0833 0-.1667-.083-.2865-.125 0 0-.0416-.037-.0416 0-.0834-.037-.2084-.078-.2917-.12.3333-.292.6615-.625.9948-1.036.1667.333.4583.661.7031.953.125.125.25.245.375.37-.25-.042-.4114-.084-.6198-.084Zm.6198.745h.0417c-.1667.125-.2917.292-.375.458h-.0417c.125-.125.25-.291.375-.458Zm1.5365 2.151c.0833.333.2083.62.3333.953.0417.083.0417.167.0834.25-.4167-.042-.7917-.292-1-.661 0-.042-.0417-.084-.0417-.125 0-.084.0833-.167.2083-.25.1667-.042.2917-.125.4167-.167Zm-.1667-1.156v-.084c0 .042.0417.042 0 .084Zm.9115 3.39v.125c0 .084-.0834.209-.1667.292-.3281.412-.9531.62-1.4479.412-.3333-.125-.625-.412-.7917-.745.7917.25 1.6198.125 2.4063-.084Zm0-2.729c-.0417-.125-.0834-.208-.125-.291.2083.166.4166.291.625.416.25.167.4583.287.6614.453.125.084.25.209.375.375.2084.203.375.495.375.828.0417.287-.0833.579-.2083.823-.2083-.494-.5417-.906-.8281-1.323l-.125-.203c-.125-.166-.25-.291-.3334-.458-.0416-.042-.0833-.083-.0833-.125-.125-.161-.2083-.328-.3333-.495Zm.375 3.558c.125-.167.25-.37.2916-.579.0417-.291 0-.578-.0833-.828-.0417-.166-.125-.328-.1667-.495l.0417.042c.375.495.7865.99.7865 1.573v.037c-.2032.083-.4948.166-.6615.208l-.2083.042c0 .041-.0417.041 0 0Zm.7031 1.489s.0417-.042.0833-.083c.125-.084.25-.167.375-.287.5-.375 1.0782-.828 1.7032-1.328-.25.334-.5417.667-.8334.953h-.0416c-.0417.042-.0782.125-.1615.167-.5833.62-1.2448 1.156-1.8698 1.531.125-.125.1667-.25.2083-.375l.0417-.083c.125-.162.2917-.328.4948-.495Zm-1.5312-9.307c-.2917-.125-.5834-.292-.875-.495-.2865-.167-.5365-.333-.8698-.458l-.0417-.042c-.2083-.083-.4167-.167-.6198-.203-.0417 0-.0417-.042-.0833-.042h-.0834c-.5-.083-1.2031.042-2.1198.37l-.0364.042h-.125c-.0417-.042-.0417-.084-.0833-.125-.0417-.245.0416-.537.2083-.703.2448-.209.6614-.167 1.0781-.084l1.0365.25c.5781.125 1.1614.25 1.6562.537.3334.208.5834.536.875.911.0417 0 .0417 0 .0834.042Zm-4.6094-.25h.0833c.1667 0 .375-.084.5-.084.4167-.083.8281-.119 1.2448-.203-.7031.37-1.5365.578-2.4479.823-.8698.209-1.7448.459-2.4896.828-.3333.167-.625.334-.8698.584-.0417 0-.0833.041-.0833.078-.2917.25-.5.542-.7084.828.0417-.161.0834-.286.125-.37.125-.25.25-.458.4167-.661.2083-.25.4531-.459.7448-.662.375-.25.7917-.458 1.2865-.625.7083-.245 1.4948-.411 2.1979-.536Zm.2083 2.443c-.0417.041-.0417.041-.0833.083-.1667.167-.2865.37-.4115.495-.0416.083-.125.166-.1666.25-.1667.244-.3334.536-.4584.786-.1666-.167-.2916-.417-.2916-.583 0-.162.0833-.287.2083-.412s.2917-.25.4583-.369c.2084-.125.375-.209.4948-.25.125.041.2083 0 .25 0Zm-1.0781 4.218c-.0833-1.114.5-2.234 1.0781-3.187.0417-.037.0417-.078.0833-.12.125-.208.3334-.458.5417-.625.0417-.036.0833-.078.125-.078.0833.042.1667.042.2448.078.25.083.5417.042.75 0h.0833c-.0833.125-.2083.208-.3333.25-.0417.042-.0833.042-.125.083-.0833.042-.125.042-.1667.084-.1666.083-.3281.166-.4531.25-.0833.041-.125.119-.1667.161-.5416.542-.5833 1.365-.5833 1.948 0 .203 0 .661.2917.906.25.25.5833.25.8281.292h.2917c.125.042.25.125.4166.208h.0417c.0833.662.5365 1.282 1.1615 1.573v.042c.4114.286.9948.411 1.4531.328.1667-.042.3281-.083.4531-.125l.75-.245c.0417 0 .125-.041.2083-.083-.0833.161-.2083.286-.2916.453-.25.208-.4584.453-.625.745l-.0417.083c-.0417.083-.0833.125-.0833.167-.0417.041-.0834.083-.2031.125-.25.12-.4167.245-.625.37-.2084.125-.375.291-.5834.333-.4114.161-.9531.078-1.4062 0-.4584-.083-.9167-.167-1.3282-.333-.25-.125-.5-.25-.6666-.412-.0417-.042-.0834-.083-.125-.125-.0417-.042-.0834-.125-.125-.208-.0834-.209-.1615-.453-.2031-.703l-.3334-1.49c-.25-.125-.3333-.411-.3333-.745Zm2.9062 4.88c.25.042.5365.084.8282.084h.0416c.5417.166 1.6615.041 2.2396-.203.4583-.209.9583-.542 1.4531-.912.4167-.291.8282-.661 1.1615-1.078.0417-.042.0833-.083.125-.125.4167-.411.7083-.453 1.2448-.578.125-.042.2917-.083.4167-.125.1666-.042.3281-.078.4531-.12.0416 0 .0833 0 .0833-.041-1.4896 1.406-3.3177 2.52-5.1875 3.14-.5781.208-1.0364.292-1.4479.333-.7083.042-1.4115-.125-2.0365-.536.25.12.4167.12.625.161Zm8.8802-2.895c-.0833.5-.2083.994-.4166 1.406-.1667.333-.375.625-.625.911-.1615.25-.3698.495-.4948.745-.3333.578-.7865.995-1.3281 1.24-.0834.041-.125.041-.2084.083-.0833 0-.2083-.042-.2916-.125-.0834-.078-.1667-.245-.1667-.37.0833-.411.2917-.87.4583-1.281.0417-.125.0834-.208.1667-.333v-.042c.5-.286.9948-.62 1.4531-.99.5365-.375.9948-.786 1.4531-1.244Zm-1.5781-16.256c1.3698 4.631 1.9896 9.016 1.8229 13.157 0 .286 0 .578-.0416.864 0 .209 0 .459-.0365.703-.2917-.286-.5833-.578-.875-.906-.0833-.083-.1667-.208-.2083-.292l-.0417-.041c-.1614-.209-.2864-.453-.4531-.703-.0417-.042-.0833-.125-.125-.209-.1667-.328-.3333-.703-.5-1.031-.1667-.375-.3698-.786-.5365-1.161-.5-.907-1.0781-1.526-1.7864-1.901-.0834-.042-.1667-.084-.25-.084-.0417-.041-.0834-.041-.125-.041-.4532-.084-.7448-.495-1.1198-.99-.2865-.417-.6198-.828-1.0781-1.078-.4532-.25-.9948-.412-1.4948-.537.0416-.041.0833-.041.125-.083.6666-.495 1.0364-1.156 1.4531-1.901.25-.417.4583-.87.6667-1.328.2864-.62.5781-1.281.9531-1.859.7448-1.157 1.8229-2.151 3.0677-2.771.125.62.2917 1.239.5 1.859l.0833.333Zm14.2709 26.391c-.6615 1.74-2.073 3.229-3.7761 3.932-.5781.25-1.2031.412-1.8229.578-.2917.084-.5833.167-.8698.25-.4583.167-.9167.287-1.3698.537-.25.125-.5.292-.75.417-.0833.078-.2083.119-.2864.161-.25.125-.4584.25-.7084.375-.7448.328-1.5781.412-2.5729.412-.2083 0-.3698 0-.4948-.042-.1667-.083-.2917-.287-.4583-.537-.9948-1.698-2.4479-3.062-4.1927-4.01l-.2865-.167c-.4167-.208-.75-.375-1.0833-.661-.3698-.333-.6615-.912-.9531-1.531-.2084-.459-.4532-.912-.7448-1.323.7448.041 1.4531-.125 2.1145-.25l.25-.042c.25.37.4167.87.5365 1.406.2083.745.4167 1.49 1 1.985.7031.619 1.6979.583 2.5729.5 1.2448-.084 2.4896-.209 3.6927-.703.7032-.292 1.3282-.662 1.9063-1.12.8281-.62 1.5364-1.365 2.2396-2.068.75-.786 1.5364-1.573 2.2395-2.401.125-.161.25-.286.375-.453.25-.292.4584-.62.6667-.953 1.0781-1.651 1.6146-3.266 1.6563-4.839v-.25c.125-.041.25-.125.4166-.203.2084-.125.4167-.25.6198-.417.1667-.125.3334-.291.5-.411.7448-.662 1.4115-1.531 1.8281-2.359.0417-.042.0417-.084.0417-.084.2448.828.4115 1.615.5365 2.485.0416.286.0833.578.125.864.2083 1.74.1666 3.521-.125 5.214 0 .083-.0417.208-.0417.291 0 .084-.0417.209-.0417.329-.0833.458-.2083.953-.4531 1.364-.1667.333-.4583.667-.75.953-.2917.334-.5781.662-.7864 1.078-.2084.37-.3334.787-.5 1.198-.125.167-.1667.334-.25.495Zm2.7812 1.823s-.0417.042-.0417.083c-.8698.167-1.9062-.083-2.4895-.828.125-.291.2916-.536.375-.828.0833-.167.125-.37.1666-.536.125-.417.25-.745.4115-1.079.1666-.328.4583-.619.7083-.947.2917-.334.5781-.667.8281-1.079.2917-.536.4584-1.156.5834-1.739h.1666c-.0416.828-.0416 1.614-.0416 2.401 0 .125.0833.25.2031.333.2917.125 1.4948-.291 2.9896-.87-.4167.537-.8281 1.032-1.2031 1.573-.9115 1.073-1.8646 2.276-2.6563 3.516Zm1.9531-.953c-.3333.208-.6666.417-.9583.62.5833-.828 1.2031-1.651 1.8281-2.48.0417.37.1667.745.3334 1.115-.4584.208-.8334.458-1.2032.745Zm4.0209-4.922c-.2448.37-.5365.745-.7032 1.198-.125.292-.1666.583-.2083.87-.0833.453-.1667.911-.4583 1.198-.2448.291-.5782.416-.9532.583-.2083-.542-.3281-1.037-.2916-1.531.5416-.662 1.0833-1.365 1.5781-2.068.4167-.167.8333-.375 1.2448-.542-.0833.125-.125.209-.2083.292Zm3.2395-2.276s-.0416 0-.0416.042c-.125.041-.2917.125-.4584.208-.1666.083-.375.167-.5781.245-.4166.166-.8333.375-1.2864.583-.0417 0-.0417 0-.0834.042-.375.161-.75.328-1.1614.495-.3334.166-.7084.286-1 .453-1.4063.578-2.6927 1.078-3.2761 1.203 0-.703 0-1.406.0417-2.073 0-.203.0417-.37.0417-.578.125-1.818.5416-3.641 1.4531-5.214.1667-.328.375-.62.5781-.906.1667-.208.3333-.417.5417-.62.0416-.083.125-.125.2083-.208.8698-.912 1.8646-1.656 2.8646-2.401.1615-.125.3281-.25.5365-.37.125-.083.2083-.167.3333-.25.4948-.333.9531-.661 1.4531-1.036.4115-.287.9531-.823 1.4479-1.365.3334-.287.6667-.662.9584-.948l.0416-.042c.4532-.208.9115-.416 1.3282-.661.6197.495 1.4062.906 2.2395 1.281-.0416.042-.0833.125-.0833.167 0 .745-.125 1.651-.375 2.729-.1667.786-.3333 1.531-.5781 2.318-.0834.328-.2084.619-.2917.948-.6667 2.031-1.7448 3.932-3.5677 5.296-.0833.084-.375.209-.7917.412-.125.083-.3281.167-.4948.25Zm5.8907 2.276c-1.5782-.208-3.4011-.995-4.8542-2.109.375-.167.6198-.292.6198-.334l.2083-.125c1.9948-1.526 3.0729-3.635 3.7344-5.828.2917-.042.625-.125.9167-.167.0781.579.1614 1.157.2448 1.693.5 2.568 1.3698 4.802 2.6145 6.662-1.1197.291-2.3229.375-3.4843.208Zm9.9998-1.156c-.208 1.448-.703 2.771-1.495 3.718.25-1.156.542-2.312.954-3.39l.208-.537c.167-.333.292-.703.417-1.078.041.417 0 .828-.084 1.287Zm-.661-1.078c-.084.208-.167.411-.209.578l-.208.536c0 .042 0 .042-.042.084-.5 1.328-.869 2.692-1.078 4.098-1.245-.703-2.3643-1.697-3.281-2.937-.125-.167-.2448-.333-.3698-.5-1.2448-1.776-2.1198-4.01-2.6146-6.573-.125-.583-.2083-1.161-.25-1.74-.0416-.291-.0833-.578-.0833-.869-.125-1.49-.125-2.979 0-4.469.7031.292 1.4531.5 2.2396.703.875.25 1.8698.458 2.7396.375.3745-.042.7445-.125 1.0785-.292l.458 1.865.208.865.084.333c.161.703.369 1.448.661 2.151.125.292.292.62.458.911.287.537.537.99.704 1.532.25 1.073-.084 2.234-.495 3.349Zm.37-5.172v-.042c-.167-.286-.334-.578-.454-.828-.291-.62-.458-1.323-.625-2.026l-.083-.37-.208-.87-.495-2.067c.042-.042.042-.042.083-.084.042-.041.084-.083.125-.125.245.495.453 1.037.662 1.573.041.125.083.245.125.37 0 .042.041.125.041.167.084.291.167.578.209.869.286 1.115.495 2.318.62 3.433Zm11.994 0c-.25-.209-.541-.37-.791-.578-.537-.375-1.078-.787-1.578-1.157 1.083.078 2.203.078 3.281 0h.041c-.583.245-.994.703-.953 1.735Zm1.698-2.896c0 .167-.083.333-.166.417-.084.078-.245.078-.37.078-1.495.125-3.031.125-4.526-.037h-.042c-.786-.083-1.573-.208-2.323-.375-.828-.166-1.62-.37-2.364-.62-.787-.25-1.537-.494-2.24-.828-.375-.166-.786-.333-1.161-.536-.209-.083-.459-.208-.667-.333-.083-.042-.125-.084-.203-.084-.209-.578-.459-1.198-.709-1.693-.041-.083-.083-.125-.125-.208.417-.995.167-2.318-.208-3.432-.042-.125-.083-.208-.125-.333-.042-.209-.12-.37-.203-.579 0-.041-.042-.083-.042-.125-.083-.286-.208-.536-.333-.786-.208-.495-.417-.948-.667-1.365.667-.166 1.287-.369 1.953-.661 4.355.25 8.631 2.026 11.662 4.963.036.042.036.042.078.084.208.208.417.411.625.661 1.161 1.323 2.531 3.433 2.156 5.792Zm-2.239-6.823c-.084-.083-.167-.167-.209-.208-2.901-2.771-6.843-4.594-10.994-5.047h-.042c.625-.334 1.203-.703 1.786-1.162.828-.661 1.657-1.406 2.407-2.271l.369-.458c1.745.495 3.49.912 5.23 1.323 1.953 1.49 4.192 3.104 6.765 4.635-1.745 1.157-3.484 2.235-5.312 3.188Zm5.89-3.563c-1.823-1.072-3.484-2.192-5.021-3.307.292.125.542.292.834.412.536.291 1.12.583 1.781.828 1.161.5 2.24.995 3.198 1.531-.25.167-.5.333-.792.536Zm3.693 1.204c.25.166.458.328.542.536.041.083.041.208 0 .292-.042.041-.042.083-.084.083-.083.037-.25-.042-.375-.083-.994-.5-1.989-.995-2.901-1.532.287-.166.537-.375.787-.578.745.412 1.411.823 2.031 1.282Zm-.745-3.271c-.5.375-1.036.745-1.536 1.12-1.078-.579-2.24-1.162-3.526-1.698-.542-.25-1.037-.495-1.537-.745-.041 0-.041-.042-.083-.042 2.239.495 4.484.953 6.682 1.365Zm.703-.537c-3.026-.536-6.099-1.156-9.166-1.901.208-.041.369-.041.536-.041l.292-.042c.541-.083 1.036-.167 1.578-.292 1.573-.328 3.234-.828 5.062-1.531.167-.042.37-.125.579-.203.583-.167 1.244-.375 1.703-.703.083-.084.166-.125.208-.209.286-.333.286-.619.208-.786-.166-.453-.916-.578-1.494-.62-1.579-.083-3.073.662-4.443 1.323l-.167.083c-.203.125-.411.209-.661.287-.5.25-1.078.458-1.62.703-1.162.5-2.406.995-3.401 1.615-1.662-.412-3.36-.829-5.021-1.282.5-.661.995-1.364 1.453-2.151.042-.083.083-.166.125-.25 2.818-.494 6.927-1.817 8.672-3.927-2.448.906-4.771 1.281-7.135 1.198l.953-1.984c.166-.334.291-.703.25-1.078 0-.125-.084-.203-.125-.287.703.084 1.37.12 2.073 0 3.359-.583 6.015-2.896 9.666-1.864-1.578-1.735-3.692-2.235-5.849-1.49-2.864.995-5.229 1.906-8.547 2.276-.5-.083-.953-.125-1.453-.125 3.651-2.354 7.136-4.63 10.292-6.781 1.161-.25 3.443.411 4.313.495 1.828.208 3.651.291 5.354-.537 1.453-.703 2.698-1.656 4.271-2.068 1.286-.333 2.906 0 3.859-1.036-2.448.37-4.938-.333-7.386 0-2.614.333-6.265.786-9.5 2.484 2.865-1.989 5.521-3.932 7.803-5.672.041-.041.125-.083.166-.119l.203-.167c1.703.37 3.365.245 5.063.042 1.87-.209 3.448-.995 5.187-1.615 1.495-.495 3.568-.62 4.771-1.614-3.318-1.365-8.88-.412-12.943 1.489 2.198-1.818 4.105-3.474 5.558-4.922l.541-.578c.084-.083.084-.167.084-.25 1.781-.62 3.526-1.281 5.104-2.401 2.365-1.651 3.318-5.047 4.562-7.526-4.067 1.6511-8.296 6.495-10.828 10.302-1.286 1.281-2.948 2.771-4.854 4.38 3.068-2.771 5.057-6.781 4.938-11.041-1.495 1.776-2.698 4.01-4.151 5.953-.954 1.286-1.745 5.172-2.198 6.25.083-.042.125-.084.208-.167-.083.042-.125.083-.208.167-.084.083-.167.125-.25.208-.042.042-.084.078-.125.12-.042 0-.042 0-.042.042l-.042.041-.953.745c-.041.042-.125.083-.166.125-1.99 1.531-4.193 3.146-6.641 4.839 1.203-1.282 2.161-2.855 3.323-4.094 2.656-2.854 4.271-5.542.911-8.646-.333.536-.041.911 0 1.615.084 2.937-1.369 4.093-3.031 6.161-.911 1.12-1.656 2.318-2.156 3.682-.25.703-.334 1.49-.417 2.235-2.531 1.781-5.265 3.599-8.172 5.505 1.162-.995 2.198-2.115 3.11-3.563.833-1.281 1.083-2.729 1.786-4.093.583-1.115 1.495-2.193 2.115-3.224-2.24 1.323-6.099 3.515-7.052 6.036-.912 2.36-.5 4.469-1.537 5.875-.661.458-1.37.87-2.031 1.323 0 0-.042 0-.042.042-.208.041-.458.041-.666.083-.537.083-1.079.208-1.615.375.083-.125.167-.292.208-.417.042-.041.042-.083.042-.125 0-.041.042-.083.042-.083s.041-.078.041-.12c.037-.083.037-.166.078-.25v-.083c.084-.287.125-.578.167-.87.042-.083.042-.125.083-.203.709-1.948-.166-4.969-2.072-6.083.083-.084.125-.167.208-.292l.495-.62c1.036-1.281 2.323-2.896 3.281-4.88 2.734-1.531 5.391-3.229 7.922-5.214 27.135-20.9318 32.198-59.9839 11.203-87.0412-.287-.375-.578-.7031-.87-1.0781 4.646 3.7239 8.839 7.9844 12.531 12.7448 25.766 33.2604 19.584 81.2085-13.776 106.9015-.083.286-.208.369-.375.494Zm-8.713-2.604c.5-.25 1.078-.458 1.578-.703.583-.25 1.12-.458 1.661-.703.209-.125.453-.208.662-.333l.166-.084c1.329-.661 2.74-1.323 4.11-1.239.536.041.911.166.953.208 0 0 0 .036-.083.12-.334.333-1.037.541-1.62.745-.203.083-.453.125-.62.208-1.786.661-3.401 1.156-4.979 1.489-.542.125-1.037.209-1.537.292h-.291Zm17.26 7.323c.375.203.709.412.875.662.084.083.084.203.042.286 0 .042-.042.083-.125.083-.292.125-.792-.166-.995-.25-1.828-1.031-2.948-1.859-4.068-2.646-.375-.286-.708-.536-1.119-.828 1.947.787 3.609 1.657 5.39 2.693Zm3.615-3.479c.828-.745 1.823-1.448 2.281-1.776 1.12-.745 2.281-1.365 3.401-1.865.208-.12.458-.203.62-.203.125 0 .125.083.125.12 0 .167-.125.458-.328.667-.209.203-.459.369-.709.494-1.119.62-2.239 1.198-3.317 1.657-.209.078-.417.161-.625.286-.495.208-.995.458-1.448.62Zm3.151 2.484c1.12.537 2.364 1.157 3.359 1.901.667.417.75.662.709.787-.125.125-.459.166-.792.083-.953-.167-1.823-.786-2.531-1.281-.579-.417-1.079-.828-1.615-1.24-.5-.416-1.078-.87-1.661-1.245-.042-.041-.084-.083-.125-.083 1.036.333 1.578.583 2.656 1.078Zm11.989-.495c-.328.329-1.286.329-1.823.245l-.994-.125c-1-.12-1.495-.203-2.865-.495-.375-.083-1.203-.25-1.953-.453 1.286-.291 2.453-.416 3.734-.416h.125c.625 0 2.037 0 2.99.25.583.166.911.411.911.703 0 .125 0 .208-.125.291ZM40.7291 13.8803c-1.3281.125-2.5312.6198-3.5312 1.3646 1.0416-2.1927 3.1979-3.8073 5.8125-4.0521 3.9427-.375 7.4687 2.5208 7.8802 6.4531.2917 2.7709-1.0781 5.3334-3.3177 6.7396.7083-1.2396 1.0364-2.6875.9114-4.1771-.4114-3.8437-3.8593-6.7031-7.7552-6.3281Zm10.7865-8.31769h-.1667c1.2031-1.85938 3.2344-3.14063 5.6042-3.30729 3.9792-.25 7.3854 2.77083 7.6302 6.74479.25 3.88539-2.6927 7.28129-6.5938 7.60939.7865-1.2396 1.2032-2.7292 1.1198-4.3021-.2083-3.96875-3.6093-6.98958-7.5937-6.74479ZM101.682 17.8491c.287-3.9688 3.735-6.948 7.672-6.6563 2.615.1615 4.776 1.7344 5.896 3.8854-1-.7031-2.245-1.1562-3.568-1.2396-3.901-.2916-7.307 2.6459-7.552 6.5365-.125 1.5313.287 2.9375.995 4.1771-2.198-1.3646-3.651-3.8854-3.443-6.7031ZM87.6979 9.20323c.125-3.96875 3.4844-7.07291 7.4687-6.94791 2.4063.08333 4.4375 1.32291 5.7244 3.14583h-.167c-3.9792-.125-7.3022 2.97917-7.4272 6.94795-.0416 1.5729.4167 3.0625 1.2448 4.302-3.9427-.25-6.9687-3.5572-6.8437-7.44787ZM71.1406 12.8022c-2.8646-2.7708-2.9063-7.28126-.125-10.13542 2.7812-2.854172 7.3021-2.895838 10.1667-.1198 2.8645 2.77084 2.9062 7.28125.125 10.13542-2.7813 2.8542-7.3021 2.8958-10.1667.1198Z"/>
  </g>
</svg>
