<svg xmlns="http://www.w3.org/2000/svg" fill="none" viewBox="0 0 200 198">
  <mask id="a" width="200" height="198" x="0" y="0" maskUnits="userSpaceOnUse" style="mask-type:luminance">
    <path fill="#fff" d="M0 0h200v198H0V0Z"/>
  </mask>
  <g mask="url(#a)">
    <path fill="#000" d="M199.984 84.0575c.016-8.1563-1.177-16.2657-3.515-24.073-.068-.2448-.349-.3854-.594-.3177-.214.0729-.354.2657-.333.4948.172 1.9479.281 3.9792.281 6.0677 0 36.7237-29.938 66.6247-66.729 66.6247-2.985 0-5.969-.192-8.922-.593.739-.459 1.422-.969 2.057-1.547.104-.089.156-.245.104-.386-1.021-2.63-2.687-5.213-4.166-7.406-1.229-1.823-3.355-4.193-6.464-5.141-1.391-.401-2.844-.526-4.271-.333.089-.141.162-.281.229-.422.282-.594.511-1.208.704-1.838h.015c.969-.599 1.865-1.229 2.693-1.844.052-.052.104-.125.12-.193.213-.021.385-.021.495-.021.489.021 1 .089 1.489.162.458.052.932.104 1.37-.052.443-.162.776-.636.635-1.073-.104-.297-.354-.511-.666-.578-.302-.068-.599-.089-.917-.052.51-.214.792-.756.703-1.282-.12-.526-.542-.932-1.088-1.036-.542-.068-1.073.141-1.422.547-.438.505-.422 1.14-.651 1.734-.193.49-.386.964-.599 1.458-.594.438-1.23.875-1.896 1.313.562-2.313.651-4.719.213-7.068-.229-1.437-.619-2.843-1.125-4.192 1.459-2.073 2.615-4.3546 3.443-6.74.281-.1927.526-.4375.734-.7188.495-.6302 2.917-3.5781 1.058-4.0885-.37-.0729-.74.0677-.969.349-.229.2812-.385.5989-.49.9479-.02-.2604-.088-.5417-.213-.7865-.12-.25-.386-.4062-.667-.3906-.791.1094-1.036 1.3542-.948 1.9687.125.5625.318 1.1042.599 1.5938.089.1615.209.4948.334.7917v.0156c-.776 2.2656-1.844 4.4067-3.183 6.3697-.031-.052-.052-.088-.088-.141 0-.015 0-.031-.016-.031h-.016c0-.036-.02-.036-.036-.036-.016-.037-.036-.052-.073-.073-.052-.052-.12-.068-.208-.068-1.969-.437-3.969-.719-5.974-.844-.068-.349-.141-.703-.193-1.052-.651-3.7028-.297-6.406 1.11-8.2653.031-.0365.052-.0677.052-.1042.281-.2083.593-.3854.927-.5417.422-.1771.843-.3021 1.265-.5104.422-.1771.756-.5104.969-.9114.229-.5261-.052-1.0365-.615-1.2136-.354-.1042-.739-.0156-1.02.2136.073-.5834-.068-1.4063-.563-1.7188-.208-.125-.474-.1615-.719-.0885-.984.2448-1.057 1.5781-1.02 2.3645.036.7032.125 1.3907.265 2.073 0 0-.021 0-.021.0156l-.015.0208c-1.5107 2-1.9326 4.8594-1.245 8.7554.052.312.12.614.172.927-1.245-.031-2.495.036-3.7398.25-.9844.156-1.9531.417-2.8802.786 2.599-8.6142 3.0573-15.4059 1.4375-21.333v-.0208c.0729-.2812.1771-.5417.2813-.8229.1614-.3854.3854-.599.6145-.9323.4948-.7344.9479-1.7865 1.0365-2.6823.0729-.7552-.1927-1.599-.8229-1.9479-.5834-.3333-1.3542-.1563-1.8281.3489-.474.5105-.6667 1.2448-.6146 1.948.0156-.6146-.2657-1.1927-.7552-1.5417-.4948-.3177-1.125-.3542-1.6355-.0521-.7708.4375-1.0885 1.5417-.8437 2.4531.2656 1.0209.9479 1.5625 1.7396 2 .7031.4063 1.5104.7032 2.1771 1.1927v.0209h.0208c1.651 5.9635 1.1771 12.8802-1.5469 21.6874-.3698.156-.7187.333-1.0521.526-.1614-1.052-.4062-2.073-.7395-3.0728v.0208c-.0157-.5468-.0886-1.0885-.2136-1.6145v-.0365c.5625-.8229.7917-1.9323.651-3.3698-.0364-.3698-.0885-.7344-.1406-1.0885-.1198-.5938-.1927-1.1927-.2291-1.7865.0729-.1615.1406-.3021.2291-.4427.2448-.3333.4584-.6823.6354-1.0521.1719-.3646.1928-.8073.0157-1.1927-.2969-.526-1.1407-.6146-1.4219-.0521-.0886.1927-.1406.4063-.1615.6146-.0833-.2656-.3125-.4583-.5937-.5104-.3698-.0677-.7761.1094-.7917.5469 0 .1406.0365.2812.1042.401.3021.6354.8958 1.0365 1.3541 1.5625.0157.6667.0886 1.3333.1928 2 .052.3542.1041.7031.1406 1.0729.1042 1 0 1.8229-.2656 2.4531v-.0156c-.3334-.8802-.8073-1.7031-1.3698-2.4583-2.0365-2.6458-3.9323-4.3333-5.6563-5.0156.2656-.7396-.0156-2.2813-.1771-2.8282-.1198-.5052-.4375-1.0312-.9635-1.0677-.4375-.0364-.8438.3125-.9688.7344-.1041.4219-.1197.8802-.052 1.3177-.2084-.4896-.9115-.6302-1.3334-.3177-.4219.3177-.5469.9323-.3541 1.4063.1093.2812.302.526.5468.7031-.1562.0677-.2968.1406-.4375.2239-.5989.3542-1.3177 1.25-2.0573 2.3386-.3854-.5313-.9322-.9323-1.5104-.7917-.5468.1406-.8802.7031-.9323 1.2604-.0521.5625.1407 1.1094.3542 1.6146-.6875-.2604-1.7083-.401-2.375-.0312-.0885.0312-.1563.0885-.2292.1562-.5937.5781-.0833 1.6511.4584 2.1563.4583.4218 1.0208.6875 1.6145.7916-.526 2.125-.526 4.3487 0 6.4737-.0312-.036-.0677-.088-.1041-.12-.7917-1.072-1.6511-1.88-2.5104-2.369-.7032-1.11-1.3698-2.2138-1.9844-3.3545.2604-1.1041.4219-2.2083.5052-3.3489.3698-4.9844-1.2813-9.8438-4.4271-13.0052-.1406-.1407-.3489-.1407-.4896-.0157-.052.0521-.1041.125-.1041.2084-.125.7239-.2136 1.4427-.3021 2.1614-.0834.7188-.1719 1.4011-.2969 2.0886-2.0573-6.4948-3.0937-13.2656-3.0937-20.0729-.0678-31.4115 22.2083-58.83337 52.917-65.23962.25-.052083.406-.260417.369-.510417-.036-.244792-.229-.4166669-.474-.4166669C80.4115.328287 50.4792 21.995 38.0208 52.4741c-.3177-.3854-.8802-1.0677-1.1927-1.3698-.1406-.1406-.3541-.1406-.4948-.0156-.052.0521-.0885.125-.1041.2083-.2969 2.1094-.3334 4.2292-.125 6.3386-1.5782 4.7344-2.7396 9.5937-3.4427 14.526-.474-.125-.9636-.2083-1.4584-.3177-.7343-.1198-1.2656.125-1.3698.6354-.0677.3854.1771.7188.2813.8386.5781.7239 1.1927 1.3906 1.8437 2.0208.0886.0885.1771.1927.2657.2813-1.1615 11.5989.0885 23.302 3.6875 34.37-1.6511-1.313-3.3698-2.505-5.1667-3.594-.2448-.193-.5573-.281-.875-.245-.2135.052-.3854.172-.5104.365-.1406.25-.1927.562-.1042.844.1198.406.4219.682.7344.932 1.776 1.505 3.7969 2.875 6.3437 4.281.2136.12.4063.208.5782.333.0573.141.1093.297.177.438v.016c-2.3541-.771-4.6718-1.49-6.9375-2.141h-.0208c-1.4219-.979-2.776-2.089-4.0208-3.281-1.3021-1.23-2.6875-2.37-4.1615-3.386-.4583-.317-1.0208-.63-1.5469-.489-.25.052-.4583.229-.5468.453-.1198.281-.1042.614.0364.88.2084.422.6302.734 1.0521 1.036 2.0573 1.474 4.2188 2.823 6.4323 4.032l.0156.021.0886.031c-3.0573-.802-6.0782-1.505-9.0625-2.12l-.0209-.021c-.3177-.297-1.1406-1.068-1.4583-1.333-.5625-.49-1.1042-1.016-1.6146-1.505-.5104-.495-1.0729-1.021-1.6354-1.526-.9323-.808-1.7917-1.495-2.8437-1.792-.4219-.125-1.02088-.156-1.4063.088-.17708.12-.29687.297-.33333.511-.07292.557.45312 1.068.93233 1.453 1.0156.932 2.3333 1.74 3.4948 2.474l.0677.036c.5833.386 1.177.719 1.8125 1.016-1.6875-.297-3.3594-.578-4.9896-.823-.0365 0-.0729.016-.1042.037h-.0208c-.94794-.422-2.61461-.985-3.16148-1.141-1.47396-.474-2.02084-.615-3.10938-.88l-1.05208-.261c-.16146-.052-1.72396-.406-2.494791.172-.25.177-.4062513.459-.4218753.755-.05729202.636.3854163 1.125 1.3177063 1.495 1.11979.453 2.71875.594 3.40625.667h.10417c.65104.068 1.26562.088 1.90104.088 1.15625 0 2.31771-.109 3.45834-.302.0365.021.0521.037.0885.052 2.0365.303 4.1302.667 6.2344 1.073-.4375.12-.875.282-1.2969.422-.2656.089-.4948.172-.6875.224-1.3177.422-2.5989.896-3.8645 1.458-.349.141-.6823.334-.96359.579-.30208.265-.63542.703-.65104 1.125-.03646.401.26041.755.66667.786h.01562c.05208.021.08854.021.14063.021.28121-.021.56251-.073.82811-.177v-.016c1.3698-.458 2.6875-1.021 3.9688-1.703 1.2812-.703 2.4948-1.51 3.6562-2.406 3.2292.666 6.5 1.443 9.8386 2.338-2.4271.313-6.0625.839-7.2553 1.105l-.5989.119c-1.2292.266-2.4271.636-2.849 1.636-.0833.208-.0677.453.0573.646.224.354.7344.474 1.125.474h.0677c.599 0 1.2136-.193 1.7917-.365l5.2187-1.651c1.3855-.438 2.7553-.932 4.1094-1.511 2.4792.688 5.0261 1.49 7.6094 2.355.1042.312.2448.609.3698.911-.2292.016-.4583.031-.6875.068-1.8958.229-3.7761.578-5.6406 1.073-.2084.052-.4219.104-.6302.14-.7553.157-1.6146.334-2.125.771-.3334.297-.3542.563-.3021.735.1614.494 1.0208.724 1.5104.791.2656.037.5469.052.8125.068 1.401 0 2.8073-.526 4.0937-1l.2084-.068c.2448-.088.4896-.177.7187-.265.599-.209 1.2136-.401 1.8281-.579.2657-.067.5469-.171.8073-.26.8959 2.12 1.8802 4.193 2.9375 6.208-.4583.318-.8645.704-1.2135 1.125-.3542.474-.651.964-.9167 1.49-.1198.245-.2448.474-.3854.703-.7031 1.229-1.7396 2.297-2.7396 3.37-1.1614 1.208-2.2812 2.526-2.3906 4.156-.1042 1.599.776 2.969 1.6198 4.266.2604.422.5417.844.7865 1.265.25.417.4427.839.6354 1.261.3177.755.7187 1.474 1.2135 2.156.2969.615.1198 1.51-.0729 2.391-.1563.75-.3177 1.526-.1927 2.208.1042.51.2812.984.5104 1.458l.1563.313c.8072 1.859 1.125 3.917.8802 5.932-.0886.386-.0521.792.1041 1.156.1563.25.3542.459.599.615.7708.547 1.6666 1.177 2.7396 1.458.3698.089.7396.157 1.125.193.1198.318.3698.578.6666.719.4896.213 1.073.156 1.5104-.141.0365-.015.073-.052.1042-.068.3906.12.7552.282 1.1458.438.6667.281 1.3334.51 2.0209.703.6458.172 1.3333.26 2 .26.9687 0 1.9167-.156 2.8281-.489h.0208c.1042.963.698 1.823 1.474 2.385h-.0208c-5.125 1.985-9.5365 5.438-12.7188 9.912-.3333.109-.6302.281-.8958.495-.6302.474-3.7917 2.63-2.1406 3.651.3333.171.7187.135 1.0156-.073.3021-.209.5469-.474.7396-.792-.0521.266-.0521.547 0 .807.0521.266.2656.495.526.563.7917.125 1.3698-1 1.4583-1.63.0521-.563 0-1.141-.1406-1.704-.0312-.177-.0677-.526-.1041-.859 2.9687-4.229 7.0624-7.526 11.8437-9.51-.7917 1.932-.9687 4.14-1.125 6.281-.0521.667-.1094 1.318-.1771 1.948-.4062 3.739-1.5104 6.229-3.3542 7.635-.0208.016-.0364.052-.052.084-.3386.125-.6875.229-1.0573.265-.4375.052-.8959.052-1.3542.141-.4531.052-.8594.281-1.1771.614-.3646.454-.2448 1 .2656 1.334.3178.192.7032.229 1.0365.067-.2292.547-.3333 1.37.0729 1.808.1719.192.4167.281.6667.281 1.0156.036 1.4375-1.229 1.6146-2 .1562-.682.2656-1.37.3177-2.068.0156 0 .0156 0 .0312-.021 2.0052-1.505 3.1823-4.14 3.6198-8.067.0729-.651.125-1.302.1771-1.969.1771-2.312.3698-4.719 1.3542-6.682.0885-.037.1927-.073.2812-.104h.0157c.1614.067.3177.135.4947.171.6459.125 1.2969.193 1.9636.214.4739.016.9531.068 1.4062.141-.0885.474-.1562.963-.2083 1.453-.125 1.052-.2812 2.317-.9479 3.245-.1615.109-.3333.213-.5104.265-.3855.125-.7552.266-1.1094.422-.349.193-.6667.51-.7031.896-.1042.963 1.1093.646 1.5468.26-.1041.667.4063 2.073 1.2292 1.282.4427-.402.3906-1.37.2656-1.896-.0729-.261-.1406-.526-.2135-.808.8125-1.067.9687-2.474 1.0937-3.63.0521-.474.1198-.948.2084-1.406.3541.109.7187.161 1.0885.177.1406 0 .2813-.016.4427-.036.6146-.12 1.0886-.526 1.5261-.912.526-.526 1.1927-.875 1.9166-1.036.4375-.12.8438-.297 1.2448-.506.4063.105.7917.193 1.1615.282-.7917 1.119-1.5834 2.244-2.375 3.349-1.4219 2.02-2.9167 4.104-4.2865 6.213-5.0729 7.755-7.5 14.334-7.5885 20.599-.1563.245-.3177.49-.4896.719-.2656.333-.5469.474-.8438.719-.6874.578-1.4218 1.458-1.7395 2.297-.2813.703-.2448 1.583.2448 2.109.4739.489 1.2656.526 1.8645.172.5938-.349.9844-1 1.125-1.698-.1979.578-.0729 1.208.2969 1.698.3854.442.9844.651 1.5625.51.8802-.208 1.474-1.193 1.4948-2.125.0156-1.052-.474-1.755-1.1094-2.401-.5781-.578-1.2656-1.104-1.7708-1.755v-.016c.0677-6.213 2.4375-12.724 7.5-20.463.5104-.771 1.0208-1.526 1.5469-2.281 0 0 0-.016.0156-.016-.5625 2.177-.7187 4.458-.4375 6.687-.0365 0-.0729 0-.0885.016-.9323.599-1.5469 1.703-1.8282 3.297-.0677.37-.1041.724-.1562 1.088-.0729.615-.1927 1.23-.3542 1.829-.0885.104-.1927.224-.2969.312-.3177.245-.6145.526-.8958.844-.2812.318-.4062.719-.3333 1.14.1406.579.9323.912 1.3541.438.1407-.156.2448-.349.3125-.542.0209.282.1771.526.4427.646.3334.162.7709.109.9115-.312.0365-.141.0365-.282.0156-.422-.1041-.683-.5781-1.245-.8593-1.88.177-.646.2968-1.297.3698-1.964.052-.349.0885-.719.1562-1.068.2292-1.302.7031-2.198 1.3906-2.724.5417 3.495 2.0521 6.776 4.3229 9.479-.5104.542-.7031 2.245-.7031 2.839 0 .526.1563 1.125.6302 1.318.4063.156.8802-.089 1.1406-.438.2657-.354.3334-.807.4219-1.229.0729.51.7031.844 1.1979.667.4896-.177.7709-.735.7344-1.266-.0677-.526-.3646-1-.7864-1.297-.3542-.26-1.3178-.755-2.0052-.786-.0157-.037 0-.089-.0365-.125-4.4271-5.141-5.724-12.547-3.25-18.406.1042-.157.2292-.318.3542-.474-.1407 3.317.7343 6.578 2.4947 9.385-.0364.651.0886 1.302.3334 1.896.0885.245.2448.474.4375.651.2135.177.4948.208.7396.088.1927-.14.3177-.369.2968-.614-.0156-.229-.0677-.474-.1562-.688.0521.177.5417.391.7031.407.2813.067.5938.015.8229-.178.3021-.26.4219-.682.3021-1.067-.1979-.599-.9166-.86-1.5469-.88-.4739-.016-.9687.052-1.4427 0-1.8437-2.964-2.651-6.474-2.302-9.948v-.052l.3541-.49c.8438-1.177 1.6875-2.354 2.5104-3.563.3855.089.7396.178 1.0521.245.5313 2.125 1.6354 4.245 3.0052 5.63.2813.282.5625.547.8802.792-1.7552 3.615-1.6354 8.386.3334 11.703.0156.037.052.052.0885.073-.1562.719-.4375 2.052-.4583 2.209-.1198.822-.2292 1.51-.1042 2.348.125.808.5781 1.724 1.3854 1.756.5625.021 1.0573-.422 1.25-.948.1927-.526.1563-1.084.1042-1.646.5625.453 1.5312.859 2.2656.698.0886-.016.1771-.052.2656-.083.7396-.386.5417-1.563.1771-2.214-.6354-1.089-1.7604-1.453-2.8646-1.859l-1.5312-.579c0-.036 0-.072-.0156-.088-1.8438-3.089-1.9688-7.547-.349-10.969.6667.459 1.3854.844 2.1563 1.141-.0834 1.969.302 3.932 1.125 5.724.0729.12.1927.192.3177.192h.0156c1.8489-.104 3.7292-1.02 5.3229-2.598 1.375-1.349 2.3906-2.948 3.4636-4.735.8072-1.354 1.7031-2.88 2.4062-4.495.2448.089.5104.177.7396.245.5104.969 1.0885 1.917 1.7187 2.807-1.0885.266-2.0885.74-2.8073 2.089-1.1614 2.177-.3906 4.193-.4427 6.474 1.599-1.313 2.6042-2.208 3.6927-4.12.3855-.667.9271-1.37 1.3855-2.088.526.614 1.0729 1.192 1.6718 1.734.2813 1.052.5782 2.109.8959 3.193.0156.073.0312.14.0677.213-1.2969 1.401-3.8802 2.735-4.5677 4.49-.9323 2.385 1.1614 6.687 1.7552 9.036 1.9896-1.505 2.6562-5.823 2.3906-8.14-.2083-1.875-.2969-3.631.4948-5.245.7344 2.489 1.5417 5.036 2.3854 7.614l.0886.245c.0208.037.0364.052.052.073-.6458 1.417-1.3177 2.557-1.2656 4.557.0729 2.792.7917 4.933 1.8125 7.266.3333-2.859 2.6723-4.792 2.2813-7.859-.104-1.073-.542-2.089-1.229-2.912-.334-.422-.7554-.687-1.0367-1.088.0521-.089.0729-.193.0365-.297l-.0886-.25c-.7031-2.193-1.3854-4.349-2.0364-6.474.9114 1.302 2.0208 2.052 3.5992 2.193.953.088 1.989.177 2.797-.526.578-.49.859-1.683 1.297-1.912-1.771.104-3.058.281-4.657-.562l-.224-.12h.016c.349-.021.667-.177.911-.443 2.058-1.875 2.355-4.734 2.235-6.859 2.302.354 4.635.614 6.989.771.495 1.197 1.037 2.406 1.651 3.614.11.214.282.563.651.703.089.037.193.052.282.052.14 0 .281-.031.406-.104.281-.156.474-.401.562-.703.12-.422 0-.839-.125-1.224-.229-.74-.489-1.458-.791-2.198.739.037 1.495.057 2.25.057.614 1.474 1.109 2.98 1.51 4.526.438 1.735 1.037 3.438 1.74 5.068.229.547.547 1.11 1.088 1.281.089.021.193.037.282.037.177 0 .333-.052.494-.141.261-.192.438-.51.453-.843.037-.474-.156-.964-.349-1.454-.932-2.265-1.984-4.474-3.197-6.614l-.037-.073c2.073 2.193 4.167 4.281 6.271 6.281v.021c.073.26.422 1.594.562 2.016.214.703.407 1.437.584 2.125.172.682.349 1.437.578 2.156.37 1.193.74 2.245 1.474 3.052.318.333.792.687 1.286.687h.016c.229 0 .458-.088.599-.265.401-.459.208-1.209-.021-1.792-.37-1.333-1.073-2.734-1.687-4.031-.313-.651-.563-1.125-.844-1.599 1.177 1.073 2.354 2.104 3.552 3.088.651.985 2.177 2.771 2.198 2.792 1.015 1.172 1.401 1.578 2.193 2.365l.755.776c.125.12 1.213 1.208 2.177 1.208h.088c.334-.016.636-.193.829-.453.14-.214.229-.458.229-.703 0-.406-.177-.86-.547-1.37-.719-.984-2-1.948-2.547-2.349l-.089-.073c-1.474-1.104-3.088-2.015-4.796-2.703-1.527-1.297-3.058-2.667-4.584-4.068.386.12.807.209 1.193.297.25.052.495.104.703.177 1.339.334 2.688.615 4.057.787.25.036.479.073.724.073.141 0 .297-.021.438-.037.406-.073.932-.265 1.213-.651.261-.364.177-.875-.177-1.14-.281-.193-.599-.313-.932-.386-1.406-.333-2.828-.562-4.266-.646-1.479-.073-2.968-.036-4.427.12-2.338-2.193-4.656-4.51-6.942-6.963 2.213 1.015 5.447 2.421 6.588 2.822l.599.214c.51.172 1.281.453 2.052.453.458.016.917-.12 1.287-.37.208-.14.333-.364.312-.63-.016-.437-.401-.844-.734-1.052-.526-.349-1.198-.51-1.792-.667l-5.307-1.349c-.125-.036-.266-.072-.422-.109 44.604-1.667 80.463-38.599 80.463-83.7655ZM134.141 184.333l.083.073c.531.401 1.74 1.318 2.406 2.209.406.562.495.968.318 1.229-.068.104-.177.161-.297.161-.495.052-1.318-.599-1.703-1l-.776-.776c-.771-.786-1.156-1.172-2.162-2.333-.26-.313-.859-1.016-1.385-1.682 1.245.593 2.422 1.297 3.516 2.119Zm-6.063-8.14c1.406.088 2.792.318 4.162.651.229.036.458.125.651.245.125.073.073.14.036.177-.193.192-.443.312-.724.349-.312.036-.63.021-.948-.037-1.333-.172-2.666-.437-3.984-.786-.214-.052-.458-.125-.724-.177-.49-.12-1.104-.261-1.615-.422 1.052-.068 2.089-.068 3.146 0Zm-2.094 4.265c.599 1.209 1.266 2.599 1.62 3.875 0 0 .016 0 .016.021.297.823.193 1.052.073 1.141-.177.016-.495-.162-.755-.458-.704-.771-1.042-1.875-1.318-2.787-.214-.724-.406-1.443-.584-2.125-.177-.682-.348-1.437-.578-2.156-.015-.057-.036-.125-.052-.177.615.823 1.157 1.719 1.578 2.666Zm-6.953-48.338c-.495.26-1.005.505-1.515.734-1.756.74-3.511 1.177-4.969 1.547l-.844.209c-2.057.526-3.989 1.015-6.042 1.177-.442-.11-.843-.214-1.265-.334 1.437-.052 2.864-.495 4.161-.916l.354-.105c1-.312 1.964-.734 2.917-1.14.86-.365 1.74-.735 2.615-1.031h.021c.281-.11.562-.178.838-.266.422-.104.844-.208 1.287-.281h.015c1.073-.209 2.146-.37 3.214-.453.265-.021.531-.073.791-.125-.489.349-1.015.682-1.578.984Zm-8.75 17.333c-.474.104-.948.193-1.406.318-.969.208-1.896.505-2.792.911-.265.141-.51.261-.776.401l-.281.162c-.734.422-1.437.807-2.193.963-.161.037-.302.053-.458.068-.526.021-1.057-.031-1.583-.135l-.261-.037c-2.3227-.369-4.6768-.369-6.9581-.369.1771-1.683-.0364-3.386-.6146-4.985h.0157l-.349-.734.0312-.037c.2136-.14.4428-.281.6511-.422.526-.349 1.0885-.734 1.6354-1.036.5261-.281 1.0729-.505 1.6354-.698l.0521-.021h.0156l.4427-.12c.0313 0 .0521-.02.0677-.036.4219-.125.8803-.229 1.4948-.349.1928-.036.349-.057.5417-.089 1.5103-.229 3.0413-.229 4.5523 0 .755.089 1.495.245 2.213.454.052.02.125.036.177.052.844.265 1.667.614 2.459 1.036.229.125.458.266.666.406l.052.032c.105.073.214.14.318.229l.068.073c1.125.786 2.094 1.786 2.812 2.948v.015c-.015.104-.067.193-.119.282-.339.385-1.094.562-1.266.614h-.109l-.735.104Zm.63.578-1.177.599c-1.156.542-2.192 1-3.177 1.37-1.021.401-2.057.735-3.13 1l-.844.193c-3.2809.667-6.4788.385-9.0101-.792 2.25 0 4.5677 0 6.8181.37l.26.036c.495.084.984.136 1.479.157h.261c.192-.021.369-.037.562-.089.859-.177 1.636-.614 2.391-1.036l.281-.157c.245-.14.49-.265.74-.385.838-.385 1.734-.667 2.651-.859.458-.105.932-.214 1.406-.318l.489-.089Zm-28.9006 1.162c-.4375-.073-.875-.141-1.3333-.229-.0521-.021-.1042-.037-.1563-.021l-1.3177-.333h-.0208c0-.032-.0156-.053-.0677-.068-1.0365-.651-2.125-1.229-3.2344-1.719-.1927-.088-.401-.177-.599-.245-.3489-.125-.6979-.25-1.052-.333-.4219-.109-.8438-.193-1.2657-.266-.401-.067-.8073-.156-1.2135-.26-1.1927-.302-2.3177-.844-3.2812-1.599-.0365-.037-.1094-.052-.1615-.073l-.0156-.016c-1.9323-1.791-3.4427-4.244-4.8125-7.562 1.1406.073 2.2812.036 3.4062-.104 1.2656-.125 2.3698-.245 4.4636.14.177.037.3333.068.5104.089 1.7552.297 3.4948.755 5.1823 1.349.0156 0 .0521.015.0677.036.0885.037.1771.068.2656.104.2083.073.401.157.6146.245 1.0729.438 2.0885 1.021 3.0052 1.719.7864.599 2.1042 2.021 3.1614 3.599-1.8645 1.74-2.4062 3.599-2.1458 5.547Zm-15.9166-.703c.6145-1.073 1.1458-2.214 1.5624-3.37 0-.016.0209-.037.0209-.052.1562-.089.3177-.177.4583-.266 1.6823 1.511 3.6719 2.584 6.0781 3.302-.0885.349-.177.719-.25 1.089-1.4218-.057-2.8802-.073-4.302.14-.125.016-.2292.032-.349.053-.4948.083-.9844.208-1.4583.385h-.0209c-.5937-.422-1.1771-.844-1.7395-1.281Zm.6874 1.718c-1.7916.844-3.302 2.125-4.6041 3.579l-.1042-.068c1.3698-1.302 2.5469-2.776 3.5469-4.37.3542.281.7552.563 1.1614.859Zm-8.802-6.614c.1562-.089.2968-.177.4583-.281.2813-.177.5417-.349.8385-.526.0886-.052.1771-.125.2657-.177 1.5468-.964 3.1302-2 4.8645-2.667.2813.526.5834 1.021.8803 1.495-.8959.349-1.7032.89-2.3698 1.593-.4948.563-.9323 1.157-1.3021 1.792-.0156.016-.0156.031-.0156.052-.1771.261-.3334.563-.5261.807 0 .016-.0208.037-.0208.053-.0156 0-.0156.015-.0156.036 0 .016-.0209.016-.0209.031-.0677.11-.1562.214-.2448.318-.9635 1.245-2.4218 2.213-4.302 2.859-.4219.141-.8646.266-1.3021.37l-.6146.156c-1.1042.23-2.2136.386-3.3386.547-1.7916.245-3.651.49-5.375.016-1.2291-.349-2.3541-1.068-3.4427-1.755-.7187-.453-1.4218-.964-1.5625-1.683-.125-.599.1563-1.265.4375-1.968.2292-.474.3855-.964.4896-1.49h.0209c2.7239 1.349 5.9739 2.964 9.1875 2.964.2083 0 .4218-.016.6302-.016.5625-.052 1.1093-.141 1.651-.297.5469-.161 1.0729-.333 1.599-.547.8958-.385 1.7604-.807 2.5833-1.312.1927-.125.3906-.229.5625-.354-.0313 0-.0313 0-.0156-.016Zm4.1458 1.734c.0156-.052.0677-.083.0885-.14.349-.594.7553-1.157 1.2136-1.683.6302-.651 1.401-1.156 2.2656-1.489.5417.823 1.1927 1.578 1.8958 2.26-.4062.229-.8437.474-1.2812.688-1.1458.541-2.3906.807-3.6563.786-.2448 0-.5104-.015-.7552-.052l.2292-.37Zm9.7344 1.141c.3125.073.6458.125.9844.193.401.073.8229.161 1.2083.265.3333.089.651.193.9844.318.2135.068.4062.156.5989.245.4011.172.7917.349 1.1615.562-.4427-.088-.8802-.177-1.2865-.302-.2083-.031-.4219-.088-.6146-.172-1.052-.281-2.0729-.651-3.0364-1.109Zm3.3698 1.932c.5833.156 1.1614.297 1.7916.401.3334.073.8125.198 1.3698.334l.1615.036c-.5469.073-1.1094.125-1.6511.125-.6354-.021-1.2656-.036-1.9166-.073h-.1406c.1406-.281.2656-.557.3854-.823ZM49.776 107.203c1.1563.172 2.3334.349 3.5625.49 2.3542.229 4.7605.474 7.1875.474.7396 0 1.474-.037 2.198-.089v.021c.0156.224.052.438.1198.646-1.2813.615-2.6511 1-4.0573 1.141-1.4427-.349-2.9323-.646-4.4427-.646-.6876 0-1.3542.067-2.0209.192-.9479-.192-1.9531-.442-3.0573-.739-.8073-.208-1.6718-.401-2.5468-.594-1.7761-.391-3.5834-.807-5.099-1.474 3.0781-.213 5.6614.193 8.1562.578Zm-8.8229-1.229c.3542-.489.8438-.859 1.4271-1.036.8073-.261 1.7188-.245 2.5781-.23 2.724.073 5.4479.125 8.1563.193 3.125.089 6.6562.177 9.6614 1.563-.052.302-.0885.599-.0885.896-3.0937.208-6.2187-.089-9.2604-.386-1.2136-.125-2.3906-.297-3.5313-.474-2.7239-.422-5.5312-.844-8.9427-.526Zm22.4375 1.703c-.0208-.474.0156-.969.1198-1.442 0-.016 0-.016.0208-.016.0157.156.0365.318.0678.458 0 .016.0208.032.0208.068.0521.318.1406.651.2448.948.0521.213.1198.406.2083.599 1.1979 3.068 4.0052 6.297 6.2396 8.26 1.1563 1.037 2.5833 2.177 4.2135 2.88.5105.209 1.0573.386 1.599.49-.0156.177-.0156.354-.0156.547-.0365-.021-.0729-.021-.1042-.021-3.776-.312-6.7135-3.401-9.1719-6.297-1.3177-1.547-2.7395-3.385-3.25-5.302-.1041-.364-.1562-.75-.1927-1.141v-.031c0 .016 0 .016 0 0Zm12.8438 14.88c-2.1094-1.302-4.2865-2.473-6.5573-3.51-.0521-.37-.1198-.74-.224-1.089 1.8594 1.683 3.9688 2.985 6.4792 3.193.0729 0 .125.016.1771.016.0364.474.0677.932.125 1.39Zm-10.349-8.427c-.7916-.526-1.5625-1.067-2.1614-1.75-.0886-.125-.1928-.229-.2813-.354-.2448-.333-.526-.614-.8437-.875-.5105-.385-1.125-.547-1.6511-.703l-.4948-.141c.9011-.192 1.7604-.489 2.5834-.875.5468 1.719 1.6875 3.313 2.8489 4.698Zm-11.5937-4.172h.0521c2.177.016 4.3177.615 6.3906 1.193.5104.141 1.0208.281 1.4271.578.2604.229.5104.474.7187.756.1042.119.1927.244.2969.369.7031.808 1.6198 1.417 2.4791 2 1.2136.808 2.3542 1.578 2.9167 2.808.2969.645.4011 1.385.4583 2.104.0678.666.0834 1.349.1198 2.036.0365 1.245.1407 2.49.3542 3.735l.0313.213c.125.682.302 1.563.6875 2.229 0 0 .0364.032.0364.052.0886.172.2084.334.349.454.1927.177.4062.317.6146.473.0885.073.177.125.2812.193.5833.406 1.0208.985 1.2656 1.636.1771.526.1407 1.104-.0885 1.609l-1-.63c-2.2135-1.401-3.4271-3.912-4.5833-6.349-.3178-.651-.6198-1.302-.9532-1.917-.1927-.401-.4375-.786-.7708-1.104-.474-.438-1.125-.646-1.5833-.786l-.1927-.073c-1.1771-.37-2.599-.808-3.5834.052-.875-.755-2.0364-1.401-3.5677-1.948-2.0885-.755-3.8281-1.068-5.4791-.964-2.125.125-4.0782.948-5.6042 1.755l-.2813-1.911c-.1562-1.021-.2656-2 .2292-2.719.1927-.25.401-.474.651-.687.0886-.089.1927-.177.2813-.261.4531-.458.8594-.968 1.2448-1.494.3177-.454.6666-.896 1.0521-1.297 1.3177-1.334 3.4114-2.105 5.75-2.105Zm18.2708 23.162.1042.068c.0521.036.1198.052.1927.052.1041 0 .2083-.052.2812-.141.5261-.734.6667-1.682.3698-2.542-.2812-.807-.8281-1.51-1.5312-2l-.2969-.213c-.1927-.12-.3698-.261-.5261-.401-.526-.474-.7239-1.563-.8645-2.354l-.0313-.224c-.1927-1.214-.3177-2.422-.3542-3.651-.0312-.615-.0677-1.245-.1197-1.86 2.1614 1 4.25 2.12 6.25 3.386l.1979.125c.0312.015.0833.031.1406.031v.021c.2448 1.437.6667 2.838 1.2604 4.156.4219.932.9688 1.823 1.599 2.63-.224-.067-.4375-.156-.6667-.224-1.1927-.39-2.3021-.755-3.0365-1.614-.0885-.089-.2135-.141-.3333-.125-.125.015-.2291.104-.2656.229-.4063 1.036-.3177 2.156-.2448 3.208.1042 1.547.2292 3.125.7187 4.615.2969.916.6667 1.807 1.0886 2.666h-.0156c-1.3386-.416-2.7084-.75-4.0782-1.015h-.0156c.349-1.735.4219-3.422.1771-4.823Zm7.1146-20.76c.0521-.089.0885-.172.1406-.282l.1042-.172c.0677-.14.1562-.281.2448-.442.4062-.75.9166-1.542 1.6145-2.157.0573-.036.1094-.088.1615-.125.0156-.015.0365-.031.0677-.031.1615-.14.3334-.265.5313-.37.0156-.015.0156-.036.0312-.036 1.1094-.667 2.4271-1 3.6406-1.281l2.6511-.646c.1198-.037.2292-.073.3489-.089l.1771-.036c.2448-.089.4948-.104.7396-.052h.0156c.0521.015.0886.052.125.088.0521.089.0886.193.0886.313 0 .088 0 .161-.0365.25-.0729.541-.526 1.031-.9844 1.526l-2.8125 2.896-.052.052-.0886.104-.3125.318-1.7239 1.718c-.2813.297-.599.594-.8802.927-.2084.245-.4219.495-.6146.756-.3334.437-.5782.932-.7709 1.458-.1614.422-.2291.875-.2291 1.313 0 .666.1927 1.333.5781 1.88.0208.036.0521.067.0729.088h.0156c-.3698-.109-.7396-.244-1.0729-.442-.3125-.193-.6146-.401-.875-.646-.2812-.547-.5833-1.037-.8437-1.578-.2136-.391-.4063-.829-.7917-1.177-.1927-.756-.2083-1.526-.0156-2.282.0885-.349.2083-.682.3489-1.015.125-.282.2657-.547.4063-.828Zm3.5989 10.473c.1771.089.3855.037.599.037.2083 0 .4375.156.3698.354-.3021.156-.4427.505-.3333.823.1197.318.4375.51.7708.453.125-.052.2656-.068.4062-.068.4375.016.5417.615.4375 1.037-.0364.12-.052.229-.0729.349-.3489-.229-.6823-.474-.9791-.755-.5834-.594-1.0938-1.261-1.5313-1.964-.5104-.792-1.0208-1.599-1.5104-2.437 0 0 0-.021-.0156-.021.3489.192.7343.333 1.125.442h.0521c.2083.313.7031.474 1.1041.558-.2291.125-.4219.302-.5625.51-.1562.229-.0885.526.1406.682Zm-4.1614-4.875c.2604.527.5416 1.068.8594 1.594 0 .021.0156.021.0156.037v.036c0 .016.0208.016.0208.016v.021c.1042.172.2084.364.3177.541l.1407.266s.0156.016.0156.031c.5989 1.021 1.2135 2.021 1.8437 2.985.4584.755 1.0209 1.458 1.6354 2.072.3855.365.7917.683 1.2448.964.1615.104.3177.193.4948.281.0677.037.1407.068.2084.104.2135.125.4062.209.6145.318.3542.172.7032.313 1.0052.438l.8386.317c.0364.016.0729.032.0885.032.1927.072.3177.125.4063.177.2604.125.526.208.8073.26.6146.162 1.1927.37 1.776.635.0156.016.0156.016.0313.016.0208 0 .0208.016.0364.016.5104.25.9844.51 1.4427.843.1198.073.2292.178.3177.23-1.25.911-2.4114 1.911-3.4791 3.015-.1927.214-.3907.407-.5625.599-.4584-.015-.9688-.067-1.599-.156h-.0208c-.0156 0-.0313 0-.0521-.021h-.0521c-.3489-.052-.7396-.088-1.125-.14v-.016c-.2083-.037-.4375-.052-.651-.089v-.015c-.6459-.104-1.2969-.266-1.9323-.474-.8959-.792-1.8959-1.459-2.9844-1.985l-.1406-.067c-1-1.021-1.8073-2.214-2.3698-3.511-.6146-1.333-1.0573-2.755-1.2656-4.213-.125-.735-.1771-1.49-.1927-2.245v-.016c-.0209-.385 0-.77.0156-1.177v-.015c.0364-.651.125-1.282.2292-1.917.0677-.401.1927-.839.4895-1 .2657-.141.6355-.016.8802.193.2657.302.4896.651.6511 1.02Zm15.4583 5.266c.3542-.073.7188-.14 1.0729-.229-.2291.141-.4583.297-.7031.453-.125-.068-.2292-.141-.3698-.224Zm-.5417.807c-.3541.209-.7031.438-1.0729.646h-.0208c0-.067 0-.156-.0313-.208-.1927-.406-.3177-.495-.5833-.859.2656-.037.5469-.073.8281-.11.2813.162.5782.354.8802.531Zm-6.5 2.839c-.2812-.12-.5989-.26-.9166-.422.0156-.245.0521-.489.0885-.734.4063-.407.7709-.86 1.0886-1.349.2656.578-.0677 1.224-.2448 1.838-.0521.229-.0729.459-.0157.667Zm16.8128-.667c.541.104 1.125.214 1.703.141.437-.068.859-.261 1.193-.578-.016.052-.037.088-.052.125-.49.911-1.23 1.594-2.021 2.312-.052.052-.12.11-.177.162-.141.12-.261.26-.401.385l-.37.349-.349.333c.015-.156.031-.296.031-.453.037-.354.021-.724-.052-1.073-.068-.474-.245-.911-.49-1.317-.177-.297-.442-.526-.776-.631-.26-.052-.526-.052-.786.037-.458.104-.917.229-1.375.385h-.016c-.406.125-.8227.282-1.2445.459h-.0209c-1.8594.75-3.6354 1.718-5.2864 2.875-.1563-.141-.3334-.261-.5104-.386-.3698-.265-.7396-.489-1.1407-.682.6667-.792 1.4948-1.422 2.4219-1.896.8438-.422 1.7604-.719 2.6875-.88.5625-.104 1.1458-.172 1.7083-.208h.0313c1.9009-.037 3.7599.244 5.2919.541Zm-.282-.963c-.088-.474.282-.985.704-1.266.401-.297.927-.401 1.422-.245.156.052.317.141.458.229.172.089.312.209.437.37.068.193.052.422-.052.594-.021.037-.036.073-.052.109-.229.334-.599.558-1.021.61-.474.073-.968-.031-1.547-.156-.088-.016-.177-.037-.26-.053-.036-.052-.073-.125-.089-.192Zm-15.411 9.192c-.1198.125-.2239.266-.3333.407-.0677-.162-.1406-.302-.2083-.459.1771.037.3698.052.5416.052Zm-.8229 1.053c-.3333.421-.6354.859-.8958 1.317v.016c-.0521-.104-.0885-.208-.1615-.313l-.0156-.02c-.1406-.735-.2448-1.49-.3177-2.282.2656.037.5469.073.8437.11h.0209c.1406.385.3125.77.526 1.172Zm-1.9323-.334c-.2656-.349-.526-.698-.8281-1.015l-.0156-.037s-.0156 0-.0156-.016l-.125-.125-.0157-.015c-.0208-.016-.0573-.052-.0729-.073h.0156c.3177.073.6146.125.9323.177.0521.37.0886.74.125 1.104Zm-4.1302-2.89c-.4375-.162-.8594-.282-1.2812-.422l-.6146-.193c-1.0365-.333-2.2344-.792-3.1302-1.547l-.0156-.016c.526.23 1.0729.438 1.6354.594.2812.089.5416.177.8073.281.3854.141.7708.303 1.1406.474l.2135.105c.4219.213.8438.458 1.2448.724Zm-.3177 9.229c-1.0364-.792-2.1562-1.443-3.3698-1.917-.2135-.083-.4062-.172-.6146-.245h-.0208l-.1562-.26c-.4896-.948-.8959-1.948-1.2292-2.969-.474-1.422-.5781-2.963-.7031-4.505-.073-.636-.073-1.281-.0157-1.917v.021c.2969.422.6667.771 1.0677 1.068.2657.213.5626.406.8646.578.7344.406 1.5261.719 2.3177.984l.6303.193c1.5104.458 3.0781.948 4.1979 2.016.0208.02.0573.036.0729.057l.0156.016c.6146.682 1.1458 1.421 1.599 2.229.0208.015.0208.052.0364.067.3334 1.776.8594 3.495 1.5834 5.162.0312.422.0833.859.0833 1.297v.088c-.8594.245-1.6667.63-2.3854 1.157-.2448.177-.4948.354-.724.546-1.0885-1.635-2.4739-3.057-3.25-3.666Zm5.8333-3.933.0209-.015c.3698-.636.7708-1.229 1.2291-1.792.349-.474.7188-.911 1.1042-1.349l.0208-.021c.2084-.244.4376-.474.6459-.703 1.125-1.156 2.3541-2.208 3.6719-3.156.0208-.016.0364-.036.0729-.036.0364 0 .0364-.032.0521-.032 1.8281-1.317 3.8281-2.39 5.937-3.161h.021c.453-.177.912-.313 1.349-.422h.021c.193-.052.385-.104.563-.141.14-.052.281-.067.421-.031.157.068.282.172.349.333.125.172.214.365.266.579h.016c0 .015.015.036.015.067.037.073.058.162.073.229.016.073.037.157.052.23.016.067.016.156.016.229.021.12.021.245.036.364-.015.547-.088 1.073-.208 1.599-.021.016-.021.037-.021.052-.015.037-.015.073-.015.125-.105.386-.214.771-.334 1.12-.333 1-.666 2.021-1.036 3.052-.021.089-.037.162-.073.229-.422 1.193-.912 2.37-1.49 3.511-.7028 1.474-1.5987 2.823-2.6924 4.036-.1719.193-.349.37-.5417.563l-.1406.031-.125.036c-.0521 0-.1198.021-.1719.053-.5989.192-1.1771.458-1.7396.739-.5833.313-1.1458.703-1.6875 1.068-.2135.14-.4218.281-.6354.422-.8229-1.349-1.9323-2.037-3.2135-2.068-.2084-.37-.3854-.74-.5625-1.141-.0157-.02-.0157-.036-.0157-.057-.1927-1.594-.5989-3.12-1.25-4.542Zm16.9218 4.985c-.141-.021-.265-.052-.406-.073-1.583-.229-3.177-.229-4.7449.021-.1563.015-.3125.052-.4896.083-.125-.031-.2292-.052-.3542-.083.9688-1.141 1.7917-2.407 2.4427-3.755.474-.948.917-1.985 1.406-3.266 1.141.406 2.318.755 3.495 1.036 1.037.23 2.094.386 3.167.49l.192.021c.365.015.756.083 1.105.224.161.073.317.177.437.317.021.016.037.053.057.068-.791 1.354-2.109 2.458-3.479 3.177-.896.406-1.843 1.104-2.828 1.74Zm6.094-5.985c-.422-.156-.859-.244-1.318-.281l-.26-.015c-.229-.021-.479-.053-.703-.089 1.088-.193 2.104-.437 3.177-.719-.037.505-.157 1-.349 1.453-.162-.14-.354-.26-.547-.349Zm1.213-18.072c2.896.875 4.917 3.125 6.079 4.859 1.385 2.021 2.901 4.406 3.901 6.807-.125.021-.23.052-.355.089-.437.14-.895.229-1.369.281-1.563.141-3.11.385-4.62.771-.068.021-.141.036-.208.073-.599.156-1.178.349-1.74.593h-.021c-.562.214-1.088.438-1.63.688-.932.385-1.88.807-2.849 1.104l-.37.12c-1.771.547-3.776 1.177-5.583.74-.125-.037-.25-.053-.37-.089.318-.896.615-1.786.896-2.682.12-.386.26-.792.349-1.193h.021l1.297-1.229.124-.125c.178-.193.37-.37.579-.526l.073-.068h.015c.776-.719 1.547-1.458 2.073-2.422.162-.265.245-.562.281-.88.037-.297 0-.615-.104-.896-.229-.594-.776-1.104-1.531-1.385-.016 0-.016-.016-.031-.016-.703-.245-1.479-.125-2.073.318-.547.385-1.11 1.083-.985 1.911-1.635-.265-3.5673-.458-5.4996-.192-.0156-.021-.0156-.021-.0365 0-.5104.052-1 .14-1.4948.26-.6979.177-1.401.443-2.0521.776-1.0572.542-2.0052 1.276-2.776 2.172-.5469-.245-1.1094-.438-1.6875-.594-.2448-.052-.474-.125-.7031-.213-.0677-.032-.1771-.068-.349-.157.1042-.156.1719-.349.2084-.541.052-.407-.0678-.844-.0678-1.25 0-.209.0678-.453.2605-.506.1927-.052.4062.209.4947.438.1928.542.2969 1.141.6823 1.542.3855.406 1.1771.547 1.4584.036.3177-.542-.2448-1.177-.7552-1.542.4739.245 1.7395.735 1.9323-.088v-.021c.5833-.312 1.1406-.646 1.7031-1 .3177-.193.6146-.385.9323-.594.4739-.317.9323-.614 1.4062-.932l.8073-.542.0365-.02s.0156 0 .0156-.016c1.1458-.734 2.375-1.526 3.641-2.208.927-.495 1.875-.917 2.859-1.25.073-.016.125-.032.193-.068.021 0 .036-.016.036-.016.141-.057.302-.088.443-.14.578-.177 1.141-.302 1.703-.407h.016c.015 0 .052 0 .073-.015 1.541-.266 3.14-.193 4.671.245Zm-3.494-11.792c.052.208.083.437.119.651.459 2.49.318 5.052-.385 7.489-.089.318-.193.615-.318.933h-.015c-.125.333-.266.666-.407.979-.14.302-.296.583-.474.865-.385.067-.77.135-1.156.244.297-.458.563-.932.787-1.442.021-.052.036-.084.073-.141.125-.245.208-.49.296-.734l.021-.016c1.104-2.807 1.615-5.807 1.459-8.828Zm-16.0056-2.912c.2084-.14.4375-.265.6823-.369.2448-.141.5104-.261.7917-.37.6146-.281 1.2656-.505 1.9323-.682.4375-.125.8802-.23 1.3177-.297 1.25-.214 2.5104-.282 3.7756-.25.214 0 .443.02.651.036 1.865.125 3.724.386 5.553.792.052.177.088.349.125.541.067.266.119.547.171.844.756 4.037.266 8.214-1.406 11.969-.12.297-.276.594-.437.875-.209.422-.459.823-.756 1.177-.036.052-.067.089-.119.141-.177.052-.339.119-.495.172-.88.317-1.74.703-2.583 1.161-1.2661.682-2.5109 1.49-3.6515 2.229-1.2656.401-2.5521.719-3.849.927h-.0156c-.25-.156-.4583-.317-.6875-.437.1042-.052.2084-.125.3177-.214.0521-.031.0886-.067.1042-.12.0156-.052 0-.125-.0365-.177-.1198-.26-.4739-.369-.7708-.349-.2812.037-.5625.037-.8438.037h-.0208c-.1927-.125-.3646-.266-.5573-.406-.0364-.052-.0573-.141-.0364-.209.0156-.192.1927-.354.2968-.51.1042-.156.125-.422-.052-.511-.2657-.119-.4896.302-.7917.302-.1771-.02-.3177-.177-.3333-.354-.0157-.177.0156-.349.1041-.51.0886-.172.1406-.365.1771-.542-.0156-.14-.1042-.245-.2448-.265-.1041.02-.2135.073-.2656.161-.3125.297-.7552.49-1.125.719.2135-.406.3698-.844.4739-1.281.0365-.125.073-.23.0886-.349.0364-.177.0521-.391-.1042-.459-.0364-.015-.0677-.036-.1041-.015-.0886 0-.1771.015-.2448.067-.1615.089-.2813.214-.4063.355-.2656.296-.5104.682-.7916.979-.0365-.037-.0886-.068-.1198-.104 0-.016-.0209-.037-.0209-.053 0 .016 0 .037-.0156.037l-.8437-.688-.4376-.369c0-.157.0157-.313.0157-.454 0-.156.0156-.296.0364-.458.0365-.12.0521-.26.0677-.401-.0156-.073-.0312-.14-.0885-.213-.2083-.157-.4896.317-.5625.442-.0833.141-.1406.313-.1719.474v.016c-.0364.104-.0521.208-.0521.318 0 .312.0313.645.0834.963v.016c.0364.281.0885.562.125.843.0156.12 0 .23-.0677.334-.1979.208-.5313-.016-.7032-.245-.4062-.526-.7916-1.052-1.177-1.578-.125-.177-.2813-.333-.474-.443-.2135-.067-.4948-.015-.5469.193-.0364.141 0 .302.0677.422.4948 1.036 1.3177 1.859 2.3594 2.37-.5312.14-1.0729-.068-1.6198-.089-.1562-.016-.3333.021-.4896.073-.0208-.021-.0364-.052-.0729-.073-.0364-.016-.0677-.104-.0885-.12-.2813-.422-.4219-.932-.4219-1.442 0-.365.0729-.735.1979-1.068.1563-.422.349-.823.6146-1.214.1927-.26.401-.505.6146-.75.2812-.317.5781-.635.8594-.932l1.4218-1.474.2136-.208.4375-.459.0885-.088 2.7917-2.875c.2812-.281.5469-.584.776-.896v-.021c.2084-.297.349-.646.4011-1.015.0208-.125.0364-.23.0364-.349 0-.282-.0885-.547-.2656-.776-.0521-.068-.1042-.105-.1719-.136-.2291-.161-.4948-.229-.776-.213-.1563 0-.2969.015-.4584.052.1094-.12.2136-.23.3178-.334.1614-.177.3177-.333.4948-.489.3645-.354.7708-.667 1.1927-.948.177-.125.3854-.266.5989-.386ZM81.9948 90.4793c.1562-.0521.3177-.0885.474-.1041.1562.0364.2968.052.4374.0885h.0209c.0521.0156.1041.0365.1562.0521h.0157c0 .0156.0208.0364.0208.0364 3.3906 2.2292 5.9531 5.4896 7.3229 9.2969v.0209c.2135.578.3906 1.156.5313 1.75v.021c.1406.562.2604 1.14.3489 1.719-.4219.281-.8437.578-1.2135.911-.0677.052-.1406.104-.2084.177-.177.141-.3541.297-.5104.453-.1927.177-.3854.37-.5416.584-.0209.031-.0365.031-.0573.067-.1927.209-.349.438-.5052.667l-2.2709.562c-1.0885.261-2.2812.542-3.3541 1.125-.2448.12-.474.245-.7032.401-.0677.037-.1406.089-.2083.141-.1615.104-.3021.208-.4427.333-.0521.053-.1042.105-.1563.157-.5989.578-1.1041 1.244-1.4948 1.984-.4531-.49-.875-.984-1.2968-1.49-.0521-.072-.1094-.161-.1615-.213-.1406-.229-.2812-.438-.401-.682-.1042-.214-.2448-.422-.3542-.631-.1719-.317-.3333-.651-.4896-.968v-.016c-.1771-.667-.2812-1.37-.3177-2.052-.0364-1.458.0365-2.896.1927-4.354.0886-.8752.2292-1.7554.4063-2.6304.2291-1.2813.6823-2.5261 1.3177-3.6667.0521-.125.1198-.2292.1927-.3542.7031-1.2083 1.7917-2.9635 3.25-3.3854Zm-6.0781 7.2657c.2291-.8438.5625-1.6667 1-2.4219l.0885-.1563c.2656-.4583.7031-1.2291 1.2136-2 .5937-.9323 1.2812-1.8802 1.8281-2.3021-.7031.7188-1.3021 1.5105-1.7761 2.3855-.052.0729-.0885.1614-.1406.2291-.7917 1.3334-1.3333 2.7917-1.6146 4.3177-.1771.875-.3177 1.7552-.3906 2.63-.1198 1.193-.1927 2.391-.2083 3.584-.5469-2.058-.5625-4.214 0-6.266Zm-1.9844 5.896c.2083.229.401.489.6146.755.5104.63.9635 1.297 1.3854 1.979l.0208.021s.0157 0 .0157.016c0 .02.0156.036.0156.036 0 .016.0208.037.0208.037l.0156.015v.016c.073.213.1771.422.2657.635.0156.016.0156.016.0156.031.0156.037.0364.073.0521.125.1041.23.2291.474.3541.704.0886.208.1927.401.3125.593.1407.266.3021.511.4584.792.1562.281.3541.542.526.786.0886.141.1771.266.2656.391.0886.141.1927.26.2969.401.1927.266.4063.542.6146.823l-.0156.036-.0157.021c-.177.349-.3541.698-.5104 1.068-.1614.37-.2812.74-.3906 1.125-.1562.646-.1927 1.333-.1042 2-.3125-.073-.6302-.036-.9323.12-.5573.302-.7343.948-.8385 1.495-.1094.541-.1771 1.067-.2135 1.593-.474-.104-.9115-.244-1.3698-.437-1.5469-.651-2.9011-1.755-4.0209-2.74-2.1823-1.927-4.9218-5.052-6.0468-7.979-.0678-.193-.1407-.391-.2084-.583-.0885-.281-.1614-.557-.2135-.839v-.021c-.0677-.312-.1042-.614-.1042-.927 0-.281.0156-.578.0677-.859.0209-.109.0573-.229.0729-.333.1042-.125.2084-.266.3177-.37.1042-.125.2292-.245.349-.349.2448-.25.5104-.458.7917-.651.0364-.016.0677-.037.1041-.073.0209-.016.0209-.016.0365-.031.2292-.141.4583-.282.6823-.407.1979-.104.4062-.192.6198-.26.0156 0 .0156-.021.0156-.021.1771-.068.349-.14.526-.193.0157 0 .0365-.015.0521-.015.0365-.037.0886-.037.125-.037.0365-.015.0521-.015.0886-.036.0885-.031.1927-.068.2969-.083.0729-.021.1406-.037.2135-.058.1198-.031.2239-.052.3333-.067.1198-.037.224-.053.349-.073h.0729l.0156-.016.1927-.016c.8438-.104 1.4948-.052 2.0365.157.0208 0 .0208.015.0365.015.8072.266 1.5833.865 2.3385 1.688Zm-2.8125-2.599c-.4375-.068-.8802-.068-1.3177-.031.1771-.474.3177-.948.4583-1.4431.2604.5101.5625 1.0001.8594 1.4741Zm-.7031-6.1929c-.0677.8073-.1771 1.6146-.3177 2.4219-.1042.4896-.2084.9635-.3125 1.4375-.2136.8281-.474 1.6355-.7553 2.4065-.0729.015-.1614.031-.2291.052-.0209 0-.0365.015-.0521.015-.2656.037-.5312.105-.7917.178-.2291.067-.4583.14-.6875.229-.2448.088-.4896.192-.7187.312-.1406.052-.2656.125-.4063.214.2136-1.844.599-3.6513.9844-5.5628l.2656-1.2968c.0521-.2813.125-.5834.1771-.8802.1042-.5625.2083-1.1407.2969-1.7344.4062-2.8073.5469-5.8802-.2656-8.5469 2.0573 2.9115 3.0937 6.7917 2.8125 10.7552Zm-4.3907-7.3698c.1928-1.0364.3334-2.1041.4532-3.1406.0364-.3177.0729-.6302.125-.9271.9843 2.3854 1.0208 5.2448.7031 7.9479-.0677.6302-.1563 1.224-.2656 1.8386v.0364c-.1042.6511-.224 1.2813-.349 1.8959l-.2656 1.2968c-.4375 2.125-.8438 4.1098-1.0677 6.1768-.0209.016-.0365.016-.0729.037-.1042.067-.2084.14-.2969.208l-.0208.021c-.1563.12-.3126.245-.4532.385-.1614.141-.2812.282-.4218.438-.073.052-.125.125-.1771.193-.0521-.141-.1042-.297-.1407-.438-.5104-1.719-.5989-3.651-.2968-5.776.2604-1.875.8073-3.7552 1.3333-5.5625.2448-.8385.5104-1.6979.7187-2.5781.1615-.5937.3021-1.1719.4063-1.7708.0521-.1042.0677-.1927.0885-.2813Zm44.625-86.27601C81.8698 9.34391 61.4375 35.9793 61.4375 66.2502c-.0156 7.5104 1.2344 14.9635 3.6927 22.052-.2656 1.2136-.6354 2.4219-.9687 3.599-.5261 1.8438-1.073 3.7396-1.3542 5.651-.3125 2.2292-.2083 4.2608.3177 6.0678.0885.318.2135.635.3542.932-.0209.037-.0521.073-.073.089-3.125-3.474-6.0052-7.1408-8.6406-10.9846l.7188-1.1406c2.1771-3.349 4.3906-6.9844 5.4479-11.0521 1.1562-4.4948.6146-8.8958-1.5313-12.0729-.0677-.1042-.1927-.1771-.3333-.1771-.125.0156-.2448.1042-.2969.2135-1.7083 4.2084-2.9531 8.5938-3.7604 13.0678-.1927 1.0729-.4219 4.0885-.6354 6.7552-.0677.9323-.1562 1.9323-.2083 2.7395-.0157.2813-.0521.5105-.0729.7344-1.9844-2.9635-3.8438-6.0312-5.5521-9.1927 0-.0156 0-.0364-.0157-.0521 1.599-3.2812 3.25-6.6875 3.9375-10.3698.7865-4.2448.0677-8.3177-1.9687-11.1614-.4583-.6302-.8802-.6823-1.1615-.5938-.526.1198-.7031.7344-.7552.9479-1.4062 5.2969-2.776 11.875-1.7031 18-1.599-3.1927-3.0208-6.4583-4.2865-9.8072.5625-.5417.4896-1.7917.3698-3.1563-.0208-.2656-.0521-.474-.0521-.599v-.4218c-.0208-2.4896-.0208-5.3177-1.0208-7.5782-.651-1.4583-1.4219-2.8437-2.3177-4.1614-.2812-.4011-.5833-.8229-.8802-1.2083C50.3542 24.3127 77.9896 3.23975 110.651 1.20329ZM59.6146 71.1772c0 .0209.0156.0209.0156.0365 0 .0208.0156.0521.0156.0729 1.3386 2.8386 1.5469 6.349.599 10.0156-.7552 2.8959-2.125 5.5834-3.6563 8.1094 0 0 0 .0156-.0156.0156l-.0364.073c2.2864-5.8282 3.3229-12.073 3.0781-18.323Zm-4.6771 20.3542c.0521-.5573.1094-1.2969.1771-2.2083.2135-2.6302.4375-5.6511.6146-6.6875.6875-3.8959 1.7552-7.7188 3.1979-11.4219.2448 7-1.1042 13.9479-3.9896 20.3177Zm-7.7292-15.8437c0-4.6146 1.0365-9.2657 2.0729-13.1927 0-.0209.0209-.0209.0209-.0521l-1.4063 19.3177v-.0209c-.4739-2-.7031-4.0156-.6875-6.052Zm4.5677-2.7188c-.5781 3.0729-1.8437 5.9479-3.1614 8.7396v.0156l1.4062-19.25v.0209c1.8802 2.6822 2.5104 6.4895 1.7552 10.4739ZM37.651 53.1408c.0209.0208.0365.0364.0521.0729.2292.2969.4584.5938.6875.8906.2292.3021.4011.5625.5938.8438.8802 1.2812 1.6354 2.651 2.2708 4.0729.9271 2.1042.9271 4.8594.9479 7.2812v.4219c0 .224.0157.4531.0521.6823.0521.5261.1927 2.0208-.0364 2.474-.6511-.8229-1.1563-1.8959-1.5105-3.2657-.4895-1.8906-.8958-3.8385-1.2812-5.7187-.4063-1.9635-.8281-3.9479-1.3542-5.9271-.125-.5312-.2812-1.0573-.4375-1.5625-.0364-.125-.0729-.2656-.125-.4062.0521.0364.1042.0885.1406.1406Zm-.8958-.1771c.1563.5104.3177 1.0052.4583 1.5104v.0209c.1563.5416.2969 1.0677.4219 1.6145v.0157c.4011 1.651.7552 3.2968 1.0886 4.9114.3854 1.8802.7916 3.8438 1.302 5.7552.2084.8438.5261 1.6511.9271 2.4219-.4739-.5417-.875-1.1406-1.1927-1.7708-.526-1-.9844-2.0209-1.3698-3.0729l-.1041-.2813c-.6875-1.875-1.1459-3.8073-1.375-5.7865-.1198-.7916-.1719-1.5833-.1927-2.3906-.0678-.9791-.0521-1.9635.0364-2.9479Zm-.3489 6.8802c.2604 1.5261.6666 3.0208 1.1927 4.474l.1041.2968c.4063 1.0886.8802 2.1407 1.4063 3.1615.4219.8073 1.1771 1.9479 1.9531 2.526.2448.2084.5417.349.8594.4011 1.2969 3.4219 2.776 6.7917 4.4062 10.0729l-.0156-.0156-.0156-.0209v-.0156c-.4948-.5781-1.0052-1.1406-1.5469-1.6666l-.2292-.2292c-3.0208-3.0521-6.7812-5.2604-10.927-6.4219.5989-4.2604 1.5468-8.4583 2.8125-12.5625Zm-3.849 13.0208c.3177.0678.6302.1563.9323.2448 3.9844 1.1407 7.6042 3.2813 10.5208 6.2136l.2292.2239c.5625.5469 1.1094 1.125 1.5989 1.7396.1927.2448.3855.474.599.6823.1719.1771.3333.3542.5104.5469.0677.0885.1406.1719.1927.2604-3.1979-1.2604-6.2031-3.5104-9.1041-5.6823-1.5261-1.125-3.073-2.2812-4.6563-3.3021-.2969-.2083-.5937-.3854-.875-.5781-.3333-.2083-.6875-.401-1.0364-.5937.3697.0677.7343.1406 1.0885.2447Zm-1.724.2292c.5469.2813 1.0573.5781 1.5677.9115.3125.1718.5938.3698.9115.5625 1.4583.9635 2.901 2.0312 4.3229 3.0885 2.8438 2.1406 5.7969 4.3333 8.9584 5.6302-.3334.0365-.6667.0521-1 .0365-.7188-.0209-1.4428-.1615-2.125-.3698-1.4584-.474-2.8282-1.2656-4.0938-2.0365-2.2865-1.4739-4.2708-3.3854-6.1667-5.3177-.2448-.2604-.5104-.5052-.7395-.7708l-.125-.1198c-.5053-.5104-1.0365-1.0365-1.5105-1.6146Zm8.1511 8.4219c1.3177.8073 2.7239 1.6146 4.2708 2.1198.7552.2448 1.5313.3854 2.3177.4062h.2292c.3698 0 .7396-.0208 1.1094-.0521.3697-.0364.7031-.052 1.052-.052h.0209c1.5989 2.9635 3.3177 5.8385 5.1614 8.6145-.9114-.4218-1.8802-.7552-2.8646-1l-5.4062-1.526c-1.3021-.3906-2.6198-.7031-3.9531-.9687-2.2136-.3855-5.3594-.4896-7.9427 1.125-.1563-2.0209-.2292-4.073-.2292-6.125 0-2.5417.125-5.0521.349-7.5417 1.8125 1.8229 3.6927 3.5937 5.8854 5Zm13.4948 12.1927c-.1042.0365-.1927.0729-.2969.1042-.125.052-.2448.0885-.3542.125-.7187.177-1.4583.2968-2.2135.3698-.2292.0156-.474.052-.7344.0833-2.8646.3698-5.7812.1406-8.5573-.6979-1.0729-.3542-2.1094-.7761-3.1302-1.2657-.3333-.1562-.6823-.3177-1.0156-.4531-.1771-.0729-1.0729-.5469-1.8281-.9323-.0157-.0156-.0157-.0156-.0157 0l-.0208-.0156c5.9896.4167 12.0156 1.4896 18.1667 2.6823Zm-18.2344-3.349c2.2292-1 4.7083-.8958 6.5677-.5833 1.3021.25 2.6042.5833 3.8854.9688l5.4115 1.5052c.6823.2135 1.4062.4062 2.1041.7031h.0209c-6.099-1.1927-12.0729-2.2292-17.9896-2.5938Zm-1.1771.8594c.2292.1042.5417.2604.875.4375 1.0365.5417 1.7761.9115 1.9688 1 .3541.1563.6875.3177 1.0208.4583 1.0365.4896 2.1094.9271 3.2135 1.2761 1.9688.5833 4.0261.8802 6.0782.8802.9322 0 1.8645-.0521 2.776-.1771l.7188-.0677c.7916-.0729 1.5677-.2135 2.3229-.4062.0677-.0313.2083-.0678.401-.1407.3177-.1198 1.1615-.401 1.5104-.4739h.0365l.1771.0364c2.7239 3.9636 5.6927 7.7392 8.9218 11.3022-.052.141-.1041.26-.1406.401v.016c-3.0885-1.386-6.6406-1.49-9.8021-1.579-2.7239-.067-5.427-.119-8.151-.192-.9323-.016-1.8958-.032-2.8125.265-1.0885.349-1.8958 1.105-2.1406 2.037v.083c0 .021-.0157.037-.0157.057 0 .016.0157.016.0157.032.0156.052.0521.104.0885.161.0156.016.0156.031.0313.052.0208.016 0 .016.0208.016 1.7396 1.073 4.1094 1.599 6.3958 2.104.8594.193 1.7031.385 2.5104.599.6146.156 1.1927.318 1.7553.437-1.0521.37-2 .948-2.7917 1.74-.4063.438-.7917.891-1.125 1.385-.349.49-.7396.964-1.1563 1.402-.0885.088-.177.161-.2656.244-.2812.25-.5469.511-.7552.808-.0885.161-.1771.333-.2292.494-.9479-.354-1.8958-.703-2.8437-1.02h-.0208l-.0886-.032c-1.2969-1.213-2.7187-2.494-4.2656-3.755-2.2344-6.422-3.6563-13.1093-4.2344-19.8801Zm5.5156 23.4061c.474.156.9323.297 1.4063.474h-.2448c-.1979-.021-.3906-.021-.5833 0l-.349.016h-.0208c-.0677-.177-.1407-.349-.2084-.49Zm.7032 1.719c.7031-.208 1.3698-.49 2.0364-.807l.0886.036h.0156c.9687.333 1.9323.682 2.901 1.031-.0729.688-.0521 1.37.0677 2.037l.3386 2.14c-.599.318-1.1771.651-1.7604.985l-.1771.125c-.2084.12-.4531.26-.6823.401-1.0208-1.932-1.9531-3.932-2.8281-5.948Zm-1.9323 23.844c-.2136-.453-.4063-.875-.6354-1.297-.2605-.459-.5417-.875-.823-1.318-.8281-1.26-1.5989-2.474-1.5104-3.838.0886-1.37 1.0886-2.547 2.2292-3.74 1.0208-1.073 2.0573-2.156 2.8125-3.458.1406-.245.2604-.49.401-.735.2292-.495.5104-.948.8438-1.37.2812-.349.6146-.666.9844-.932.2656-.193.526-.364.7916-.557.2292-.141.474-.281.7031-.422l.1928-.125c.5989-.349 1.2135-.703 1.8281-1.052.0364-.016.0521-.037.0885-.052l.0156-.016c.0365-.021.073-.036.1042-.052 0 0 0-.021.0208-.021 1.5105-.807 3.4792-1.718 5.6563-1.843 1.526-.084 3.1771.213 5.1823.932 1.5989.562 2.7604 1.229 3.5989 2.015.25.23.4584.495.6511.776 0 0 0 .016.0208.016-1.2656-.088-2.5469.089-3.7448.511-.7396.281-1.4583.614-2.1406 1-.4583.244-.9323.489-1.4062.697-1.2136.547-2.0053.756-3.0417.511l-.349-.401c-.2812-.318-.8646-1.021-1.5989-.917-.5104.073-.948.406-1.198.865-.0156.052-.0312.104-.0312.156h-.0208c-.4896-.245-1.0157-.458-1.5469-.651-.6823-.245-1.4011-.37-2.1406-.349-.3542 0-.6875.052-1.0209.156-.2604.073-.5104.156-.7343.281-.8438.438-1.7761 1.756-2.1094 2.563 0 .016-.0208.036-.0208.036-.4375 1.032-.875 2.12-.9792 3.261-.1615 1.51.4531 3.14 1.651 4.458v.052c-.125 1.88.6302 3.547 2.0365 4.438.5104.317 1.0521.562 1.6146.755.7239.245 1.4583.443 2.2135.578-.3333.198-.6667.406-.9635.651l-.0209.016c-.1562.14-.3125.302-.4531.458-.5312.682-.8437 1.792-.3698 2.667.4011.739 1.2656 1.192 2.3542 1.245.1042.02.1927.02.2969.02.3333 0 .6875-.036 1.0208-.052.3698-.036.7344-.057 1.1042-.057.1927 0 .3697.036.5625.036.3854.053.7916.053 1.177.021.0521 0 .1094-.021.1615-.021.2083-.036.401-.088.5937-.171h.0209c.7031-.282 1.2812-.792 1.7917-1.407.1562-.177.2812-.369.4218-.562.2448-.349.4532-.735.6667-1.089.2292-.349.3854-.755.4583-1.172.0156-.088.0156-.161.0156-.25-.0364-.296-.1041-.578-.2135-.838-.1042-.214-.1562-.458-.1562-.688 0-.052.0156-.104.0364-.14.0677-.141.1927-.261.3333-.349 1.073-.844 2.1771-1.735 3.3542-2.438.2136-.125.4063-.244.6354-.369.5625-.318 1.1042-.652 1.6146-1.037 2.3698-1.859 3.5156-5.318 3.1458-9.51l-.0208-.157c-.0677-.843-.1719-1.718.2656-2.406.125-.172.1928-.385.1928-.594-.0157-.192-.1198-.385-.2813-.489-.1927-.141-.4583-.193-.7031-.125-.3125.088-.5782.297-.7344.562-.1094.12-.1979.261-.2812.386l-.1094-.052c-.2084-.105-.4375-.214-.6667-.318-.1771-.281-.3854-.526-.6146-.771.6354-.51 1.5625-.281 2.849.141l.1927.052c.526.177.9844.333 1.3177.63.2604.266.4896.563.6458.911.3177.615.6355 1.25.9323 1.896 1.2136 2.526 2.4584 5.141 4.849 6.651l.4219.266v.016c.3697 1.421.3333 3.265-.0886 5.213l-.1719-.036c-2.1822-.407-3.375-.266-4.6562-.141-1.2865.156-2.5677.177-3.849.052-.125 0-.2448.052-.3177.141-.0677.104-.0885.229-.0312.349.4375 1.125.9114 2.161 1.401 3.125-1.7396.703-3.3541 1.718-4.901 2.703-.1407.088-.2604.172-.4011.26-.2656.177-.5468.354-.8437.526-.0729.058-.1406.089-.2136.125-.0156.016-.052.037-.0677.052-.1927.125-.4062.245-.5989.349-.125.073-.2604.162-.4011.214-.5833.349-1.1979.651-1.8125.927-.5781.266-1.1771.495-1.7916.651-.7552.214-1.5469.297-2.3177.281-2.9375-.067-5.9375-1.541-8.6459-2.896l-.4739-.229c-.0157-.015-.0365-.015-.0521-.031l-.4375-.214c-.7031-.333-1.4948-.718-2.0938-1.26-.1718-.177-.3333-.354-.4739-.547l-.0156-.036c-.474-.646-.8594-1.334-1.1771-2.052Zm25.4739-14.23.0157.157c.177 1.864.2291 6.458-2.8803 8.88-.4895.37-1 .682-1.5468.984-.2084.12-.4219.261-.6511.365-1.1927.755-2.3333 1.599-3.4427 2.495-.1719.119-.3333.281-.4531.453-.0365.036-.0573.073-.0729.125-.2084.458-.0886.875.0364 1.281.0157.037.0365.068.0521.125.0886.208.1406.417.1771.646.0156.318-.1615.651-.3698 1.021-.7552 1.333-1.7396 2.734-3.1458 2.911-.3334.016-.6875 0-1.0209-.036-.2083-.016-.401-.037-.5937-.037-.4063-.015-.7917 0-1.1979.052-.4011.037-.8073.058-1.2084.037-.8437-.037-1.4948-.37-1.7604-.875-.2448-.438-.1718-.969.0209-1.406.0885.192.2239.369.4218.474.1407.072.2813.125.4219.14.8073.156 1.6302.073 2.3854-.245.2813-.104.5834-.192.8802-.265.4219-.104.8438-.261 1.2657-.438.7916-.385 1.4583-1.015 2-1.594.0364-.036.0885-.088.125-.125.0364-.036.0677-.067.0885-.104.0156-.015.0365-.036.0521-.073.2969-.296.5781-.593.8437-.911.2084-.245.4375-.49.6302-.734 2.9896-3.547 5.448-7.844 7.3802-12.844l.125-.302c.2813-.771.6146-1.526 1-2.245.0157-.016.0365-.052.0521-.089.125-.192.2448-.364.3855-.541.0885-.141.2135-.245.3541-.318h.0156c.0365 0 .073.021.073 0-.0209.089-.073.162-.125.229-.5261.844-.4375 1.896-.3334 2.807Zm-22.0312 9.178c-.0156-.089 0-.178.0156-.261.0729-.265.1615-.51.2813-.755l.7031-1.51c.1406-.318.3021-.615.4739-.896.6875-1.037 1.9167-1.594 3.0573-2.016.0521-.021.0886-.036.1407-.052.2812-.109.5624-.161.8593-.177.0573-.016.1094-.016.1615-.016.0364.084.0885.157.1406.224.1771.214.3854.386.6302.511.0208.015.0521.015.0729.036-.1614.031-.3177.031-.4583.016-.0521 0-.1042 0-.1771-.016l-.2083-.036c-.1927-.037-.3854-.068-.5781-.089h-.0209c-.0885 0-.1771.021-.2604.037-.8125.119-1.4062.791-1.8125 1.296-.1406.178-.4219.563-.3489 1 .0677.37.3124.599.526.792.0885.052.1562.12.2292.208.0885.141.1718.282.2083.438l.0208.021c-.3906.666-.4062 1.474-.0573 2.156v.036c.198.527.5469.985 1.0365 1.282.1615.088.3177.156.4792.208l.8073.318.2291.088h-.0208c-.1771.068-.3698.141-.5417.193h-.0208c-.349 0-.7188.089-1.0365.229l-.0885.052c-.0677.037-.1563.068-.1927.089-.0886 0-.1719-.021-.2604-.052-.2657-.058-.5313-.089-.7917-.073-.2448 0-.4948-.037-.7396-.089-.474-.156-.875-.578-1.2135-.948-.349-.349-.6667-.755-.9271-1.172-.1406-.25-.25-.531-.3021-.807v-.036c-.0156-.104-.0156-.177-.0156-.229Zm10.7343 4.911c-.2968.052-.4583-.016-.7708-.172-.1406-.073-.3021-.14-.5104-.229-.1615-.073-.3021-.125-.4219-.193.5417-.14 1.0886-.333 1.599-.562-.0209.385.0156.791.1041 1.156Zm.5417-5.667c-.0677.459-.1719.881-.276 1.318-.0729.313-.1615.615-.2136.927-.0364.125-.0521.25-.0677.354-.0573.313-.0885.615-.1094.927 0 .021-.0156.037 0 .052-1.052.125-2.125.178-3.177.178.0885-.037.177-.089.2604-.12.5312-.266 1.0729-.531 1.4271-1.058.1041-.171.1927-.364.2448-.557.1197-.51.1041-1.036-.0209-1.526-.0156-.036-.0156-.073-.0312-.125-.0729-.265-.1615-.526-.2656-.792-.1042-.296-.2084-.578-.2813-.875-.0156-.104-.0677-.213-.0885-.317-.0678-.193-.1042-.401-.1042-.615v-.031c.0156-.193.0156-.391-.0156-.563-.0365-.296-.1094-.599-.1771-.88-.0729-.385-.1406-.771-.1771-1.156-.0521-.542-.0677-1 .1615-1.37.2239.037.4531.073.6979.073.1094.261.2135.526.3177.787.1614.442.3541.88.5625 1.302.1562.26.3333.505.526.75.0729.109.1615.198.2136.302.0677.14.1562.26.2604.385.0364.068.0729.141.125.208.2812.652.3698 1.422.2083 2.422Zm-3.776-4.718c.0208.192.0364.369.0729.541-.1406-.156-.3021-.312-.4583-.437-.0886-.068-.1927-.12-.2813-.177-.1771-.084-.3177-.209-.4375-.349-.0729-.089-.125-.193-.1771-.297-.0156-.021-.0156-.037-.0364-.052-.0521-.11-.1042-.214-.1719-.318v-.016c.5052-.036 1.0156-.109 1.526-.229v.016c-.0677.474-.0885.896-.0364 1.318Zm-.349 1.156c.0156.021.0365.021.0365.052-.2136.021-.4219.057-.6198.125-.0156-.016-.0156-.037-.0313-.052.2084 0 .4011-.052.6146-.125Zm-1.7604.161c-.0156-.021-.0156-.021-.0313-.021-.0729-.052-.1614-.104-.2447-.14.0677 0 .1197.021.1927.036.0156.037.052.089.0833.125Zm.0365.808c.1406.052.2812.067.4218.067.0521 0 .0886 0 .1407-.015.2656-.037.526-.089.776-.177.0677-.037.1563-.052.224-.052.1979-.073.3906-.073.5833-.016.0156.052.0364.104.0521.172-.0886.021-.1563.052-.2136.104-.0521.036-.1041.088-.1406.125-.0833.088-.1562.156-.2239.266-.125.171-.2813.312-.4792.401-.0156.015-.0313.015-.0521.015-.0521.021-.0833.037-.1406.058-.1719.031-.3334.119-.4531.223-.1094.089-.1928.193-.25.334-.0313.036-.0521.088-.0521.14-.0313.089-.0677.193-.0677.303-.0521.505.052 1 .3177 1.437-.6355-.318-1.1459-.703-1.4271-1.281-.0156-.037-.0313-.089-.0521-.125-.0156-.016-.0365-.031-.0365-.068 0-.021-.0156-.052-.0156-.073-.0677-.245-.1927-.474-.3489-.682-.0886-.104-.1927-.214-.3021-.297-.1563-.125-.2813-.25-.2969-.354-.0156-.12.0885-.313.2083-.453.0209-.037.073-.073.0886-.125h.0208c.3125-.229.6667-.453.9479-.37.1198.052.2292.109.3334.177.125.125.2812.208.4375.266Zm1.6354 1.948c-.125.333-.2448.682-.3334 1.031-.0208.088-.0729.192-.0885.281-.3177-.312-.474-.771-.4219-1.208 0-.037.0156-.089.0365-.125.1041-.068.2291-.089.3489-.068.1615 0 .3178.031.4584.089Zm.8958 1.75v-.261c0-.213 0-.406.0156-.614v-.178c.0209-.208.0209-.437.0521-.645.0209-.125.0573-.23.0886-.355.0729.266.1614.511.2656.771.1041.266.1927.547.2656.844.0521.193.0677.37.0833.563.0365.333-.0312.666-.2083.963-.1927.266-.4375.474-.7396.599.1407-.562.1927-1.125.1771-1.687Zm-.2448-2.875-.0208-.016.0521-.057c-.0157.02-.0157.057-.0313.073Zm-3.6354 2.052c.5052.703 1.3125 1.125 2.1406 1.474-.0156.036-.0521.088-.0885.125-.1042.083-.2083.14-.3333.156-.599.14-1.2136-.104-1.5469-.615-.2084-.333-.2813-.755-.1719-1.14Zm1.8958 2.437c.2292-.052.4375-.156.6146-.312.2292-.214.3854-.474.4896-.756.0729-.177.125-.369.1771-.546v.057c0 .698-.0156 1.385-.349 1.89-.0208 0-.0208.021-.0208.037-.2448-.089-.5417-.193-.7188-.245l-.2447-.088c.0156-.037.0312-.037.052-.037Zm.2813 1.74c.6667.015 1.4896.015 2.3541-.016-.4583.104-.8958.193-1.3697.276h-.0521l-.25.037c-.875.156-1.7552.177-2.6354.072.1614-.02.302-.072.4427-.161l.0885-.031c.224-.11.4896-.162.7344-.177h.0364c.0157 0 .0678-.016.1042-.016.1771 0 .3542.016.5469.016Zm4.2135-9.052c-.1562-.318-.2968-.651-.4218-.985-.1198-.333-.2605-.666-.4219-.984v-.037s-.0157 0-.0157-.015c0-.016-.0156-.052-.0156-.068-.1094-.213-.25-.422-.4062-.599-.0156-.036-.0365-.052-.0521-.068-.0156-.02-.0156-.036-.0521-.052-.3542-.406-1.0573-.739-2.0937-1.073h-.0313c-.0364-.015-.0729-.036-.1094-.052 0-.052 0-.104.0365-.156.1406-.25.3698-.406.6354-.474.3333-.021.6823.297.9844.667l.7552.89c.401.495.8385.985 1.0677 1.563.1615.385.1615.859.1406 1.37v.073Zm-3.1771-2.948c.4011.208.823.437 1.2292.646-.8594-.141-1.7396-.506-2.651-.912-.8802-.385-1.7761-.771-2.7084-.932-.3854-.084-.7708-.104-1.1614-.068h-.1198c-.4063.037-.7917.125-1.1615.266.1042-.089.2292-.177.3542-.25.2448-.12.5104-.224.7708-.297.3542-.089.7032-.104 1.0729-.068.5105.052 1.0209.156 1.5105.333.7708.261 1.526.594 2.25.964.0312.016.0677.036.1041.052.1771.104.349.177.5104.266Zm-5.3437-.563c.1614-.021.3177-.021.474 0 .4218 0 .8281.068 1.2343.193v.016c.6667.213 1.2969.458 1.9323.739.4375.193.875.386 1.3334.542-.6667.125-1.3542.177-2.0365.125h-.0365c-.125-.037-.2448-.052-.3541-.073h-.0157c-.3698-.052-.7395-.016-1.0729.088-.2291.073-.4219.193-.5781.37-.349.422-.4375 1-.2656 1.511-.6667.364-1.2448.875-1.6823 1.489-.1979.318-.3698.651-.5313 1l-.7031 1.511c-.0677.171-.1562.349-.2083.526-.8073-1.089-1.1927-2.318-1.0886-3.474.1042-1.021.5105-2.021.8959-2.985 0-.015.0156-.015.0156-.015s0-.021.0208-.021c.6823-1.177 1.9636-1.474 2.6667-1.542Zm3.1667 2.542c-.2292.036-.4584.088-.6719.161l-.3125.12c-.3177.125-.6354.245-.9323.386-.0521-.245.0156-.49.1562-.704.125-.119.2813-.192.4584-.208.2083-.036.401-.036.6146-.016.2083.016.4062.068.5989.141.0677.031.1406.068.2083.12-.052-.037-.1041-.016-.1197 0Zm-4.3959 9c.2136.229.4219.458.6667.651 0 .016.0208.016.0208.016.349.531 1.4063 1.125 2.0729 1.302.6146.14 1.2292.192 1.8438.192.5781 0 1.1614-.052 1.724-.14l.2083-.037c.651-.052.9114.052 1.4583.297.1406.057.2813.125.4375.193.1615.073.3333.161.474.213.0364.016.0729.037.1093.037-2.2135.224-4.4635-.021-6.5729-.719-.5104-.161-1-.391-1.4583-.667-.651-.442-1.1406-1.073-1.4062-1.807.1406.156.2812.313.4218.469Zm5.5729 3.443.0157-.021c.6302.073 1.2656.125 1.8958.125.7031 0 1.4062-.052 2.1094-.157-.3698.386-.8073.698-1.2813.928-.3698.161-.7552.302-1.1458.406-.3125.088-.6302.172-.9271.297-.6354.265-1.3177.333-1.9687.208-.073-.016-.1407-.031-.2136-.068-.1041-.073-.1562-.177-.1719-.297 0-.161.0313-.317.1042-.458.4063-.297.8229-.562 1.2656-.792.0886-.052.1927-.119.3177-.171Zm13.6146-15.37-.1093.281c-1.8959 4.875-4.3021 9.104-7.2032 12.563-.1927.244-.401.489-.6302.734-.1562.213-.3333.406-.526.578-.0886-.437-.125-.891-.1406-1.333 0-.141 0-.261.0156-.401v-.052c.0208-.303.0364-.615.0885-.912 0-.088.0156-.161.0156-.25.073-.401.1771-.838.2657-1.245.1041-.453.2135-.911.2812-1.349.1771-1.14.0886-2.073-.2812-2.828-.0365-.083-.0886-.172-.1407-.245-.0156-.052-.0364-.088-.0677-.119-.3333-.386-.3177-.933-.302-1.584.0208-.557.0364-1.119-.1928-1.646-.2291-.526-.5416-1-.9114-1.442.0521 0 .1042.021.1562.021.8802 0 1.6511-.297 2.4948-.688.4948-.208.9688-.469 1.4427-.719.6667-.364 1.349-.682 2.0729-.963 1.4376-.511 3.0053-.63 4.4948-.334-.3125.631-.5937 1.282-.8229 1.933Zm-11.2969 33.422c-.6666-.193-1.3177-.417-1.9531-.683-.2969-.125-.5937-.244-.9114-.349-.4896-.192-1-.333-1.5313-.442-.3125-.068-.6302-.104-.9271-.141-.125-.016-.2656-.031-.3906-.052-.276-.031-.5573-.089-.8385-.172-.8646-.229-1.6198-.703-2.5157-1.354-.1562-.089-.2812-.229-.3854-.37-.1041-.172-.0677-.453-.0156-.786.2448-2.125-.0729-4.282-.9323-6.245l-.1406-.333c-.2136-.407-.3698-.844-.4583-1.282-.1042-.547.0364-1.229.177-1.948.125-.526.2084-1.088.2448-1.635.6146.474 1.2813.88 2.0052 1.177l.2448.125c-.0156.49-.2291 1.016-.4583 1.563-.3177.77-.6302 1.557-.474 2.349.1927 1 1.073 1.63 1.8802 2.14 1.125.735 2.3021 1.474 3.6355 1.844.776.208 1.5833.297 2.3906.297 1.1094-.016 2.1979-.125 3.2864-.297 1.1563-.162 2.3542-.333 3.5105-.599.2135-.037.4427-.089.651-.141.4062-.104.8073-.208 1.2135-.349 2.0209-.687 3.5834-1.739 4.6563-3.073.0521-.067.1042-.119.1562-.208.1615.037.3178.068.4948.089h.0157c.2656.015.526.031.8073.031.2291 0 .4739-.016.7031-.031 1.0885-.089 2.1458-.355 3.1302-.828.0312-.016.0677-.032.1041-.053-.3333.86-.7395 1.688-1.1979 2.474-.1406.282-.3125.563-.4895.844-1 1.63-2.2136 3.104-3.599 4.422-.0729.068-.1615.141-.2292.208-.0729.073-.1771.162-.2656.23-.3854.369-.8229.666-1.3021.88-.401.156-.8385.276-1.2604.349-.474.088-.9531.208-1.4063.385-.4218.193-.8437.438-1.2135.719-.1771.104-.3177.213-.4896.318-1.8281 1.104-3.9375 1.421-5.9219.927Zm10.875 3.088c-.5104-.068-1.0208-.12-1.5312-.156-.4375-.016-.8438-.052-1.2448-.125 1.0365-.333 2.1406-.615 3.2292-.891h.0208c-.2135.386-.3698.771-.474 1.172Zm-3.8333-.594-.0677.037c-.8437-.443-1.5833-1.354-1.6146-2.354.2969-.141.5938-.297.875-.474.1771-.12.3542-.229.5104-.334.3542-.244.7188-.474 1.1094-.651.4011-.156.8229-.276 1.2604-.349.4792-.088.9532-.208 1.4063-.385.5989-.281 1.1614-.667 1.651-1.125.0521.021.1094.052.1615.109-.5834.667-1.125 1.365-1.6354 2.032-.0886.125-.1042.265-.0365.406.1406.312 1.4583.755 3.1615 1.245-.698.177-1.4011.349-2.0886.541-1.5625.37-3.1771.792-4.6927 1.302Zm9.0677-1.072c-.4896.14-.9479.317-1.3906.578-.276.177-.526.39-.7708.599-.3854.333-.7552.666-1.1927.734-.3907.073-.7917-.016-1.2292-.12.1406-.562.401-1.088.7708-1.547.9115-.224 1.8281-.453 2.724-.734.4739.125.9479.245 1.4062.37-.125.052-.2291.088-.3177.12Zm4.2709.161c-.0209 0-.0365-.021-.073-.021-.1562-.036-.3333-.068-.5104-.12-.2083-.052-.4375-.125-.6666-.177-.474-.125-.9636-.229-1.4948-.349-.0157-.021-.0521-.021-.0834-.021-.4427-.104-.8802-.208-1.3177-.348-.4062-.089-.7916-.214-1.1614-.297-1.6146-.459-3.0209-.881-3.6042-1.125.4583-.599.9323-1.193 1.4271-1.771.1406-.162.2812-.318.4375-.474 1.3542-1.495 2.8802-2.776 4.7083-3.526h.0156c.3698-.162.7396-.281 1.125-.391.2813-.068.5834-.135.8803-.193.1041-.015.2083-.031.3177-.052 1.3333-.208 2.7031-.192 4.0729-.156l.7031.037c.1563 0 .2969 0 .4583.015.6302.016 1.2813.052 1.9323.073.7188 0 1.4584-.073 2.1771-.198.474-.052.9844-.12 1.4583-.172h.073c.5052.12 1.0677.23 1.5781.313.2448.917.5989 1.792 1.0729 2.599-.0729.015-.1406.052-.1927.104-.6354.771-1.3542 1.474-2.125 2.109-.651.558-1.3386 1.105-2.0573 1.631h-.0156c-.3021.208-.599.421-.8959.614-1.9322 1.281-4.1145 2.229-6.6093 2.172-.3125-.031-.6302-.083-.9271-.172-.2656 0-.4792-.052-.7031-.104Zm11.3802-3.422c-.3646.49-.7344 1-1.0521 1.505-.1771-.083-.349-.172-.5469-.26.5625-.386 1.0938-.807 1.599-1.245Zm-7.8177 9.297c-1.2292-1.245-2.2448-3.12-2.7761-5.016.4583.105.7396.157.7552.157h.2657c2.7083 0 5.0416-1.105 7.1145-2.526.3021.156.599.317.8959.437-.3125.547-.6302 1.089-.9115 1.651-1.2812 2.526-2.0208 5.068-2.1979 7.458-1.1771-.531-2.25-1.25-3.1458-2.161Zm9.401 5.651c-1.1406 1.125-2.4583 1.896-3.7396 2.208.9636-.838 2.0156-1.614 3.1094-2.297l.526-.317c.349-.209.7032-.417 1.0521-.646-.2969.37-.6146.703-.9479 1.052Zm3.2135-5.719c-.1041.646-.1927 1.229-.4375 1.787-.4895 1.125-1.5468 1.88-2.651 2.583-.1927.12-.4062.245-.599.349l-.5468.318c-.0157.015-.0313.031-.0677.031-1.3177.807-2.5313 1.755-3.6563 2.807-.6146-1.489-.9114-3.088-.8594-4.703-.0156-.224 0-.453.0157-.682.125-2.349.8437-4.875 2.1458-7.406.2812-.558.5989-1.12.9323-1.667.1562-.26.3125-.542.5052-.823.901-1.37 1.8802-2.651 2.9896-3.859.4375.734.9323 1.437 1.4583 2.104.599.791 1.3021 1.614 2.1094 2.14.3333.23.7187.386 1.125.49l-.8646 1.932-.3698.875h-.0156l-.1406.334c-.349.739-.6303 1.494-.8438 2.281-.1042.37-.1771.724-.2292 1.109Zm.6875.172c.0157-.015.0157-.031.0157-.052.0521-.349.1041-.698.1771-1.016.2083-.755.4739-1.474.8281-2.177l.1719-.349.4062-.88.9323-2.104c.0521 0 .0833-.016.1406-.016.0521 0 .1406-.02.2083-.036-.1406.615-.2968 1.208-.5104 1.792v.015c-.052.141-.0885.261-.1406.401-.0156.058-.0312.125-.0677.177-.1042.297-.2448.599-.3698.881-.5469 1.119-1.125 2.244-1.7917 3.364Zm10.3125 7.948c-.1041-.333-.2135-.667-.3177-1-.2083-.698-.3854-1.385-.5781-2.068.8958.792 1.8438 1.526 2.8281 2.177h.0157s.0208.016.0364.016c-.6302-.193-1.3333-.088-1.9844.875Zm3.3905-1.401c-.104.125-.265.208-.4217.245h-.0156c-.1407-.016-.2813-.089-.4063-.177-1.3854-.891-2.6719-1.927-3.8646-3.068 0-.016-.0156-.036-.0156-.036-.6354-.615-1.2135-1.209-1.7604-1.844-.5938-.682-1.125-1.386-1.6302-2.084-.5104-.703-.9688-1.442-1.3906-2.213h-.0157c-.2135-.401-.4427-.807-.6354-1.208-.1198-.23-.2448-.474-.3489-.724l-.125-.224c.2291-.636.4062-1.282.526-1.948.0208-.089.0365-.177.0365-.266v-.015c1.0208-.599 1.6875-1.881 2.1093-3.073.0365-.12.0677-.23.125-.349v-.016c.0677-.214.1354-.406.2084-.635.0156-.032.0364-.089.0364-.12.1042-.302.1719-.599.2604-.917.1615-.542.2657-1.083.3542-1.63.6823.297 1.3854.526 2.1094.703l.0156.016c3.599 3.125 6.0628 7.494 6.7448 12.021 0 .036.021.067.021.104.031.297.068.63.104.984.12 1.964-.104 4.719-2.021 6.474Zm2.636-7.318c-.037-.119-.037-.229-.052-.333-.652-4.318-2.849-8.51-6.0786-11.651l-.0209-.016c.7761.12 1.5469.177 2.323.193 1.2085 0 2.4065-.125 3.5985-.37l.615-.14c1.177 1.562 2.391 3.125 3.604 4.635.735 2.875 1.651 5.698 2.719 8.453-2.266-.193-4.495-.453-6.708-.771Zm5.375-5.349c.156.297.296.594.458.891.281.599.578 1.229.963 1.896.667 1.213 1.25 2.354 1.74 3.443-.349-.021-.682-.037-1.036-.073-.875-2.141-1.563-4.209-2.125-6.157Zm4.479 9.651c.104.261.14.542.104.839-.031.104-.104.193-.193.245-.031.021-.083.021-.12.021-.104-.037-.192-.193-.265-.355-.542-1.083-1.037-2.156-1.474-3.244.349.036.719.052 1.073.052.297.807.614 1.614.875 2.442Zm-.542-3.406c-.531-1.208-1.177-2.474-1.917-3.823-.317-.583-.599-1.109-.843-1.635-.016-.037-.037-.052-.037-.089 1.599 1.917 3.219 3.792 4.87 5.615h-.021c-.682-.016-1.385-.031-2.052-.068Zm7.219 9.807c.177.407.333.808.318 1.125 0 .12-.053.23-.162.297-.052.037-.104.037-.156.016-.318-.104-.563-.667-.667-.875-.687-1.615-1.265-3.281-1.703-4.984-.125-.474-.266-.948-.406-1.438 1.036 1.875 1.969 3.844 2.776 5.859Zm.104-8.052 5.292 1.349c.541.125 1.14.282 1.562.563.281.177.422.422.37.51-.635.453-1.651.193-2.672-.177l-.599-.208c-1-.354-3.62-1.495-5.745-2.459.724.157 1.355.318 1.792.422Zm-3.724-1.666c-.193 0-.37 0-.562-.021-2.25-2.453-4.464-5.052-6.641-7.719l.021.016c.192.125.349.229.489.317l.297.178c.511.281 1.021.562 1.547.822 1.724.823 3.516 1.511 5.359 2.053.178.072.386.14.615.213.615.245 1.318.49 1.932.49.104 0 .214-.016.318-.037.474-.068.651-.333.703-.526.141-.505-.406-1.12-.88-1.542-1.281-1.125-3.094-1.494-4.708-1.828l-.209-.031c-.265-.052-.494-.109-.755-.177-.599-.125-1.213-.318-1.849-.474-1.349-.349-2.719-.734-4.005-.844-1.156-1.437-2.318-2.927-3.458-4.437.911-.245 1.807-.526 2.703-.875.088-.037.177-.073.265-.11 2.74 1.443 7.183 3.037 10.084 2.355-2.547-.756-4.938-2.021-6.99-3.704l2.156-1.088c.339-.177.724-.401.917-.755.052-.104.089-.209.089-.313.526.542 1.14 1.016 1.807 1.365 3.286 1.724 7.114 1.51 9.573 4.844-.193-2.542-1.703-4.37-4.021-5.157-3.125-1.073-5.781-1.859-8.891-3.718-.369-.391-.755-.74-1.156-1.073 4.724.422 9.203.734 13.37.963 1.177.578 2.703 2.636 3.39 3.302 1.422 1.365 2.948 2.683 4.954 3.104 1.718.349 3.427.349 5.057 1.053 1.338.562 2.495 1.911 4.026 1.682-2.375-1.313-4.026-3.542-6.359-4.891-2.495-1.443-5.922-3.474-9.808-4.161 3.813.192 7.365.281 10.511.281h.562c1.193 1.458 2.703 2.458 4.318 3.406 1.739 1.031 3.64 1.417 5.536 2.089 1.599.541 3.48 1.823 5.146 1.786-1.948-3.37-7.38-6.245-12.14-7.317 3.109-.089 5.833-.261 8.067-.563l.844-.12c.104-.015.172-.073.224-.156 1.953.646 3.885 1.26 5.995 1.349 3.125.141 6.218-2.125 8.958-3.438-4.604-1.265-11.474.068-16.198 1.683-1.984.265-4.375.437-7.114.526 4.515-.349 8.89-2.474 11.609-6.229-2.474.526-5.005 1.651-7.552 2.369-1.688.474-4.953 3.297-6.042 3.912h.261-.261.016-.349v.021h-.198c-.016 0-.052-.021-.068-.021-.036 0-.052 0-.088.021h-1.547c-2.703 0-5.709-.073-8.943-.214 1.88-.297 3.761-1 5.589-1.312 4.182-.703 7.38-1.933 6.567-6.844-.645.245-.63.755-1.088 1.385-1.88 2.526-3.865 2.526-6.729 3.229-1.526.349-2.985.928-4.318 1.756-.703.437-1.25 1.067-1.849 1.63-3.354-.177-6.938-.406-10.698-.703 1.724-.089 3.412-.422 5.042-1.016 1.583-.562 2.76-1.651 4.286-2.333 1.266-.563 2.724-.88 3.99-1.386-2.813-.354-7.573-1.02-10.104.49-2.355 1.401-3.407 3.51-5.25 4.052-.881-.068-1.74-.141-2.636-.229-.015 0-.036 0-.073-.016-.208-.125-.437-.265-.646-.385-.531-.281-1.072-.526-1.635-.74.156-.067.297-.14.438-.208.036-.016.088-.037.125-.073l.067-.031.11-.073c.083-.052.156-.104.244-.156l.052-.052c.266-.193.49-.407.719-.652.073-.036.141-.067.214-.119 1.896-1.229 3.177-4.37 2.25-6.62h.015c.12-.031.245-.068.37-.083l.844-.214c1.755-.422 3.932-.964 6.078-2.016 3.406.526 6.849.787 10.313.787 37.312 0 67.671-30.318 67.671-67.5887 0-.5052-.015-1-.036-1.4896 1.516 6.3178 2.271 12.8073 2.271 19.3021.015 45.7972-37.281 83.0472-83.12 83.0472Zm-6.359-8.037c.599.141 1.213.313 1.828.453.651.177 1.281.355 1.88.495.26.052.51.12.771.172l.213.036c1.599.334 3.23.667 4.375 1.652.282.229.506.489.683.786-.052.036-.104.057-.157.057-.494.068-1.265-.213-1.88-.442-.213-.084-.437-.157-.651-.224-1.792-.547-3.547-1.23-5.25-2.021-.531-.245-1.021-.526-1.515-.787l-.297-.177Z"/>
  </g>
</svg>
