<svg xmlns="http://www.w3.org/2000/svg" version="1.0" viewBox="0 0 375 374.999991">
  <defs>
    <clipPath id="a">
      <path d="M126.546875 185H173v73h-46.453125Zm0 0"/>
    </clipPath>
    <clipPath id="b">
      <path d="M193 222h55.796875v40.5H193Zm0 0"/>
    </clipPath>
    <clipPath id="c">
      <path d="M168 112.5h30V142h-30Zm0 0"/>
    </clipPath>
  </defs>
  <path d="M212.78125 177.964844c-6.195312 1.226562-12.628906.449218-14.375.179687-.058594 2.578125-.78125 5.128907-.691406 7.644531 1.714844-1.738281 6.558594-1.859374 6.558594-1.859374 9.171874.242187 8.507812-5.964844 8.507812-5.964844Zm0 0"/>
  <path d="M197.175781 186.988281c-.484375-2.90625.601563-6.027343.78125-8.90625-.089843-4.4375-1.925781-9.382812-4.421875-9.203125-2.527344.179688-3.550781 6.445313-4.121094 10.015625-.300781 1.796875-.539062 4.015625-.691406 5.757813.332032 2.519531-.121094 5.1875-.390625 7.644531-.390625 3.269531-.722656 6.539063.03125 9.808594.058594.238281-.363281.328125-.421875.089843-.960937-3.359374-.542968-6.75-.121094-10.136718-.03125-.121094.421876-2.667969-4.332031-6.925782-.871093-.78125-1.5625-1.800781-2.011719-2.878906-.542968-1.292968-.722656-2.699218-.902343-4.082031-.484375-3.6875-1.292969-7.34375-1.566407-11.035156-.210937-2.878907-.058593-8.394531-.058593-8.394531s.148437-11.457032 0-12.894532c-.152344-1.441406-1.023438-5.640625-3.550781-5.546875-2.523438.089844-2.976563 12.894531-3.066407 13.972657-.089843 1.078124 0 0-.390625 8.785156-.390625 8.789062.390625 16.734375.390625 16.734375s-.03125.058593-.058593.148437c.179687 2.339844.027343 4.710938-.152344 7.046875-.027344.242188-.449219.273438-.449219 0 .058594-1.828125.121094-3.625.058594-5.425781-.722657 2.367188-1.863281 6.566406-1.472657 9.144531.539063 3.75 9.863282 24.261719 8.539063 31.699219-1.351563 7.4375-13.832031 35.085938-13.832031 35.085938l23.910156-2.699219s6.703125-21.859375 8.75-26.238281c2.074219-4.378907 6.375-10.136719 6.195312-18.445313-.148437-7.824219-6.675781-19.761719-6.644531-23.121094Zm-6.707031 36.558594c.117188-.152344.300781-.179687.449219-.0625.152343.121094.179687.300781.0625.449219-.09375.152344-.300781.183594-.421875.0625-.152344-.121094-.179688-.300782-.089844-.449219Zm-.484375 1.226563c.152344-.207032.421875-.238282.632813-.089844.179687.152344.242187.421875.089843.632812-.148437.179688-.421875.238282-.628906.089844-.183594-.152344-.242187-.453125-.09375-.632812Zm-.570313 1.472656c.179688-.273438.570313-.332032.84375-.121094.269532.210938.328126.570312.121094.839844-.183594.269531-.574218.328125-.84375.121094-.269531-.210938-.332031-.570313-.121094-.839844Zm-6.042968 22.96875c-.183594 0-.332032-.121094-.332032-.300782 0-.179687.121094-.328124.300782-.328124.179687 0 .332031.121093.332031.300781 0 .179687-.152344.328125-.300781.328125Zm.390625-1.140625c-.242188 0-.453125-.179688-.480469-.417969 0-.238281.179688-.449219.417969-.480469.242187 0 .453125.179688.484375.421875 0 .238282-.183594.449219-.421875.476563Zm.449219-1.4375c-.328126.03125-.601563-.242188-.628907-.570313-.03125-.328125.238281-.601562.570313-.628906.332031-.03125.601562.238281.632812.570312 0 .328126-.242187.628907-.574218.628907Zm3.160156-3.121094c-.242188.691406-.753906 1.171875-1.386719 1.441406.152344-.148437.300781-.359375.363281-.601562.300782-.867188-.152344-1.796875-1.023437-2.097657-.871094-.300781-1.804688.148438-2.105469 1.019532-.089844.238281-.121094.480468-.089844.691406-.332031-.570312-.449218-1.289062-.210937-1.980469.421875-1.230469 1.773437-1.890625 3.007812-1.46875 1.234375.417969 1.863281 1.769531 1.445313 2.996094Zm-.210938-4.554687c-1.382812.089843-2.558594-.960938-2.648437-2.3125-.089844-1.378907.964843-2.546876 2.316406-2.636719 1.382813-.089844 2.554687.960937 2.648437 2.308593.089844 1.378907-.964843 2.550782-2.316406 2.640626Zm3.847656-7.917969c-.601562 1.140625-2.015624 1.617187-3.15625 1.019531-1.144531-.601562-1.625-2.007812-1.023437-3.148438.332031-.628906.902344-1.082031 1.5625-1.230468-.179687.148437-.328125.332031-.449219.539062-.421875.8125-.089844 1.800782.722656 2.21875.8125.421875 1.832032.089844 2.222657-.71875.121093-.210937.183593-.449218.183593-.6875.269532.65625.269532 1.378906-.0625 2.007813Zm0 0"/>
  <path d="M206.4375 156.34375s-10.105469 1.859375-15.15625 4.765625c-5.023438 2.910156-9.867188 8.488281-9.867188 8.488281.722657-5.90625 4.542969-9.238281 6.828126-11.15625 2.253906-1.917968 4.632812-1.980468 8.359374-3.417968 4.089844-1.589844 3.25-6.835938 3.25-6.835938s-6.257812 1.675781-11.007812 3.566406c-3.550781 1.410156-7.730469 4.859375-9.414062 6.417969-.210938 3.089844-.148438 5.878906.058593 8.996094.273438 3.6875 1.085938 7.347656 1.566407 11.035156.210937 1.558594.421874 3.210937 1.203124 4.589844.660157 1.199219 1.652344 2.128906 2.617188 3.085937 1.382812 1.382813 2.707031 2.820313 3.097656 4.679688.117188-1.167969.238282-2.308594.238282-3.476563-.601563-1.382812-2.132813-4.890625-2.976563-7.410156C184.152344 176.464844 188 171.90625 188 171.90625s4.242188-6.148438 6.707031-7.226562c2.105469-.929688 6.167969-.808594 9.625-3.210938 3.488281-2.425781 2.105469-5.125 2.105469-5.125Zm0 0"/>
  <g clip-path="url(#a)">
    <path d="M126.738281 198.746094c0 .179687.300781.359375.390625.148437.722656-1.257812 3.460938-1.136719 4.722656-1.976562.390626-.273438.664063-.601563 1.023438-.902344 1.113281-.867187 2.226562-1.167969 3.519531-.867187.390625.238281 7.066407 4.648437 9.894531 6.746093-.300781-.058593-.601562-.058593-.902343-.03125-1.625-.300781-3.160157-.988281-4.84375-.6875-.78125.148438-1.683594.328125-2.316407.808594-.992187.78125-1.292968 2.007813-2.496093 2.578125 0 0-.117188.0625-.089844.089844.03125 0 2.4375.691406 4.691406.121094.902344-.242188 1.683594-.691407 2.46875-1.199219.902344-.601563 1.410157-1.140625 2.285157-1.320313.421874.058594 1.324218-.03125 1.324218-.03125.179688.03125.328125.0625.507813.121094.421875.300781.8125.601562 1.234375.929688 2.375 1.828124 4.453125 4.136718 6.046875 6.746093-.300781-.238281-.632813-.417969-.933594-.566406-.691406-.570313-1.203125-1.171875-1.773437-1.921875-.453126-.597656-.902344-1.167969-1.476563-1.648438-1.320313-1.109374-2.945313-1.679687-4.660156-1.800781-.121094 0-.242188.121094-.148438.242188.117188.179687.269531.390625.390625.570312.902344 1.347657 2.074219 2.457031 3.515625 3.265625.753907.421875 1.503907.691406 2.316407.929688.632812.179687 1.144531.332031 1.65625.570312.570312.421875 1.171874.8125 1.683593 1.320313 1.140625 2.070312 1.984375 4.257812 2.433594 6.566406-.390625-1.019531-1.894531-2.578125-1.953125-2.609375-.121094-.089844-.210938-.207031-.332031-.296875-1.59375-1.410156-2.042969-3.78125-3.757813-4.980469-3.007812-2.097656-7.730468.210938-10.976562.300782-.0625 0-.121094.058593-.0625.121093 1.65625 1.046875 2.589844 2.816407 4.363281 3.746094.027344.179687.058594.390625.121094.570313.507812 3.058593 2.496093 4.917968 3.304687 5.699218.875.839844 1.777344 1.617188 2.890625 2.097656.328125.152344.691407.269532 1.050781.359376 1.054688.242187 2.855469.902343 3.457032 2.101562.453125 1.378906.84375 2.757812 1.085937 4.167969-.511719 1.527343-1.144531 2.996093-1.867187 4.46875 0-.359375-.027344-.660157-.148438-.960938-.273437-2.070312-1.203125-4.289062-2.4375-5.847656-1.984375-2.519531-5.441406-2.367187-7.457031-4.679687-.089844-.117188-.300781-.089844-.300781.089843.121094 2.28125.511718 4.019531 2.226562 5.550781.960938.867188 2.433594 2.609376 3.667969 3.027344 3.878906 1.289063 4.179687 3.390625 4.179687 3.417969-.242187.449219-1.535156 2.878906-1.925781 3.597656-.269531-1.078125-1.050781-1.828125-1.925781-2.816406-1.472656-1.679687-2.675781-2.96875-4.597656-4.167969-3.21875-2.011718-7.039063-3.78125-10.949219-2.761718-.179687.0625-.148437.300781.03125.363281 2.285156.839843 2.796875 2.878906 4.449219 4.316406 1.265625 1.109375 2.976562 1.859375 4.421875 2.699219.78125.449218 2.074219 1.46875 3.398437 1.320312 3.15625-.300781 3.578125-.449218 4.179688.027344.8125 1.050781.84375 2.371094.871094 2.371094-1.320313 2.878906-2.554688 5.96875-2.796876 9.054687-.207031 2.730469-.417968 7.136719 1.414063 9.449219.210937.238281.664063.117188.542969-.242188-.664063-1.886718-1.203125-3.777343-1.355469-6.6875-.179687-3.359374.875-6.328124 1.867187-9.355468.691407-.238282 2.316407-1.078125 2.554688-1.257813.0625-.03125.089844-.0625.121094-.121093 4.390625 1.078124 7.128906 0 11.429687-1.351563 5.742188-1.828125 6.105469-8.125 6.105469-8.15625.417969-1.257813.570312-2.25-.394531-.777344-1.382813 2.097657-1.171875 3.058594-5.53125 4.707031-3.039063 1.140626-6.976563 1.140626-9.65625 3.058594-.660157.480469-1.082031 1.230469-1.683594 1.679688-.359375.269531-2.164063 1.078125-2.496094 1.347656-.121093.089844.8125-3.238281.8125-3.265625.332031-.511719.632813-.992187.933594-1.5 1.351563-1.019531 2.554687-1.949219 4.148437-2.640625 1.566407-.6875 2.675782-.417969 4.210938-.867188 1.414062-.421874 2.285156-1.171874 3.066406-2.429687 2.195313-3.511719 4.601563-6.328125 4.183594-10.648437 0-.148438-.242188-.359376-.363281-.207032-1.742188 1.769532-3.425781 3.65625-5.292969 5.304688-1.382812 1.230468-3.277344 1.921875-4.601562 3.179687-.871094.839844-1.140626 1.441407-1.472657 2.578125-.453125 1.589844-1.292969 2.761719-2.347656 3.871094-.300781.238281-.601563.449219-.871094.6875 1.566407-2.996094 2.585938-6.175781 2.976563-9.386719 1.265625-1.378906 1.988281-2.367187 2.738281-4.105469.269531-.660156.601563-1.289062.960937-1.890624 1.386719-.269532 2.769532-.089844 4.152344-.539063 1.230469-.390625 2.375-1.050781 3.398438-1.828125 1.53125-1.199219 2.675781-2.878906 2.617187-4.828125.027344-.089844.089844-.179687.148438-.300781.421875-1.289063-.539063-2.550782-.839844-3.75-.03125-.179688-.363281-.300782-.421875-.058594-.421875 1.980469-1.054688 3.808594-1.957031 5.636719v.03125c-.660157.210937-1.292969.449219-1.953125.660156-1.023438.386719-2.074219.75-2.949219 1.4375-1.5625 1.230469-2.375 2.699219-3.335937 4.558594-.03125-.628907-.242188-1.558594-.210938-1.648438.960938-3.960937 5.234375-5.578125 3.308594-9.835937-1.203125-2.609375-6.167969-7.4375-6.167969-7.46875 1.023437-3.269532 4.574219-5.785156 7.191406-7.824219.148438-.121094-.0625-.332031-.183593-.332031-4.238282-.03125-7.398438 2.550781-10.285157 5.429687-2.855469 2.847657-1.082031 6.054688-.449219 9.355469v.449219c-1.292968-1.828125-2.859374-3.386719-4.570312-4.769531-1.6875-2.308594.027344-5.007813-.0625-7.707032-.121094-2.9375-.78125-5.726562.332031-8.605468.058594-.148438-.121093-.480469-.332031-.359376-1.171875.71875-1.925781 1.441407-2.433594 2.757813-.632812 1.652344-1.714844 3.449219-1.988281 5.25-.359375 2.609375 1.386719 5.128906 2.980469 7.195313.089844.179687.179687.359374.300781.539062-1.925781-1.46875-3.941406-2.816406-5.894531-4.195312-.8125-2.039063-.363282-4.257813-1.054688-6.328126-.480468-1.351562-1.382812-2.488281-2.527344-3.449218-.117187-.121094-.300781-.03125-.300781.148437-.089843 1.742188.390625 3.328125 1.023438 4.949219.871093 2.21875 1.984375 3.660156 2.074219 3.808594.03125.148437.089843.300781.121093.480468-2.917969-2.070312-6.285156-4.019531-8.449219-6.839843-1.535156-2.039063-2.347656-3.714844-4.542968-5.15625-.148438-.089844-.390625-.058594-.359375.179687.359375 3.390625 5.625 6.628906 5.625 6.597656.628906.628907 1.292969 1.167969 2.042969 1.710938.03125.027344.089843.058594.121093.089844-1.414062-.660156-3.039062-.929688-4.453125-.121094-.480468.269531-.808594.691406-1.230468 1.019531-.632813.507813-1.503907.75-2.078126 1.257813-.71875.660156-1.019531 1.261718-1.082031 2.28125Zm34.828125 19.972656c1.351563-2.101562 3.1875-3.628906 5.742188-4.5 1.175781-.390625 2.796875-.75 3.761718-1.707031-.542968 2.21875-2.105468 3.777343-4.273437 4.917969-1.683594.867187-3.515625.6875-5.230469 1.289062Zm-3.308594 13.464844c2.136719-1.742188 4.332032-2.789063 6.253907-4.828125 1.894531-2.039063 3.339843-4.679688 4.722656-7.136719.421875.027344.332031.6875.03125 1.917969-.390625 1.648437-1.382813 2.546875-2.316406 3.929687-.933594 1.316406-1.472657 3.355469-2.675781 4.4375-1.804688 1.527344-3.972657.867188-6.015626 1.679688Zm-1.054687.328125c.394531-.628907.664063-1.410157 1.144531-2.640625.992188-2.636719 3.550782-3.445313 5.5625-5.097656 1.445313-1.167969 2.679688-3.328126 4.242188-4.195313.242187-.121094.421875-.210937.601562-.269531-1.625 2.515625-2.976562 5.335937-5.171875 7.40625-1.894531 1.796875-4.273437 2.878906-6.167969 4.707031-.027343 0-.058593.03125-.089843.03125-.027344 0-.058594.027344-.121094.058594Zm-2.285156 6.867187c1.175781-1.019531 1.265625-1.710937 3.160156-2.578125 2.464844-1.171875 5.441406-1.261719 8.058594-2.070312 1.773437-.539063 3.910156-1.140625 5.082031-2.699219 0-.027344.03125-.027344.03125-.058594-.359375 1.109375-.722656 2.277344-1.292969 3.117188-1.113281 1.652344-3.128906 2.25-4.871093 2.878906-3.128907 1.109375-6.257813 1.710938-10.167969 1.410156Zm-4.300781-4.019531c-2.285157-1.648437-4.808594-2.15625-7.367188-3.386719-2.015625-.988281-3.398438-2.847656-5.742188-3.179687-.0625 0-.03125.058593 0 .089843 2.285157.539063 3.636719 2.371094 5.652344 3.390626 1.171875.597656 2.496094.898437 3.730469 1.40625.992187.421874 2.585937 1.320312 3.488281 1.859374-.0625 0-1.566406.089844-2.40625.273438-2.105468.476562-3.398437-.542969-5.023437-1.5-1.984375-1.140625-3.546875-2.101562-4.839844-4.019531-.996094-1.5-2.40625-2.097657-2.4375-2.277344 0-.09375 4.03125.269531 4.601563.328125 2.34375.328125 4.601562 1.859375 6.527343 3.207031 1.171875.8125 2.707031 2.28125 3.816407 3.808594Zm3.398437-3.566406c-.238281-.300781-.539063-.539063-.929687-.75-1.175782-.570313-2.617188-.601563-3.730469-1.53125-.960938-.839844-1.953125-1.769531-2.828125-2.699219-.570313-.597656-2.222656-3.65625-1.804688-4.167969.089844-.117187 1.144532.929688 2.679688 1.5 3.726562 1.378907 5.710937 4.078125 6.613281 7.648438ZM156.875 200.875c-.542969-.421875-1.113281-.808594-1.65625-1.109375-.179688-.089844-.359375.03125-.238281.238281.539062.960938.902343 1.742188 1.230469 2.640625-.902344 1.46875-2.285157 2.910157-2.644532 4.585938-.453125-2.878907-1.925781-5.785157.390625-8.335938 1.414063-1.558593 3.457031-3.085937 5.203125-4.289062.722656-.476563 4.539063-1.675781 4.210938-.988281-.421875.871093-2.195313 1.199218-3.820313 2.9375-1.382812 1.410156-2.074219 2.429687-2.675781 4.320312Zm2.886719 16.824219c-.332031-2.101563-.871094-4.078125-1.355469-6.269531-.691406-3.117188-.691406-5.96875-1.773438-9.027344-1.171874-3.328125.242188-.867188 1.683594.480468 1.386719 1.289063 2.917969 2.578126 3.761719 4.347657 2.585937 5.191406-1.082031 6.507812-2.316406 10.46875Zm-14.976563-3.960938c-.03125-.207031-.210937-1.046875-.152344-1.109375 0 0 2.976563 2.519532 4 3.269532 2.707032 1.917968 4.632813 3.777343 5.925782 6.835937-1.113282-.660156-2.527344-.539063-3.699219-1.109375-3.066406-1.4375-5.382813-4.558594-6.074219-7.886719Zm9.230469.75c-.449219-.117187-.929687-.148437-1.382813-.148437-1.53125.058594-3.1875 1.050781-4.660156.507812-1.292968-.867187-2.496094-1.796875-3.367187-3.085937-.09375-.152344-.484375-.242188-.453125.058593.058594.570313.152344 1.109376.242187 1.648438-1.566406-.839844-2.46875-2.339844-3.941406-3.296875 3.308594.449219 6.855469-1.800781 10.015625-.152344 1.742188.902344 1.894531 2.519531 3.035156 3.929688.183594.210937.363282.390625.511719.539062Zm3.609375 6.6875c.089844 2.28125-.269531 4.46875-.871094 6.566407-.121094-1.558594-.511718-3.355469-1.503906-4.464844 0-.03125-.601562-2.039063-1.894531-4.019532-1.203125-1.828124-3.15625-2.9375-4.992188-4.167968.480469.117187.960938.148437 1.503907.089844 1.140624-.089844 2.195312-.539063 3.339843-.421876.570313.0625 1.109375.242188 1.652344.421876.84375.6875 1.742187 1.378906 2.40625 3.296874 0 .179688.332031 1.832032.359375 2.699219Zm-3.878906-12.683593c0-.03125.03125-.03125 0-.03125-.242188-2.1875 1.535156-3.777344 2.527344-5.546876.839843 2.429688 1.050781 4.796876 1.5625 7.527344.601562 3.417969 1.683593 6.65625 2.105468 10.136719-.691406 1.378906-1.351562 2.789063-2.164062 4.015625.601562-5.488281-.632813-11.0625-4.03125-16.101562Zm-6.195313-7.109376c-.902343-.988281-1.59375-2.21875-2.042969-3.296874-.996093-2.429688-.273437-3.929688.71875-6.117188.300782-.628906.992188-4.199219 2.285157-4.347656-.359375.027344-.539063 2.636718-.539063 3.058594 0 1.046874-.089844 2.066406-.0625 3.085937.03125.722656.300782 1.410156.332032 2.191406.0625 1.347657-.238282 1.738281-.660157 2.96875-.242187.75-.121093 1.917969-.03125 2.457031Zm-9.234375 2.128907c.84375.273437 1.476563-.207031 2.226563-.539063 1.113281-.507812 2.226562-.507812 3.367187-.660156-.148437.0625-.300781.121094-.449218.242188-2.585938 1.589843-4.421876 2.367187-7.429688 2.097656.542969-.210938.785156-.417969 1.265625-.957032 1.140625-1.171874 1.953125-1.921874 3.667969-2.101562.84375-.089844 1.625.089844 2.375.332031-.628906.058594-1.261719.179688-1.832032.328125-1.113281.328125-2.046874 1.199219-3.191406 1.257813Zm2.40625-8.996094c.03125.8125.089844 1.589844.210938 2.339844-.421875-.867188-.8125-1.886719-1.230469-2.636719-.453125-.75-.8125-1.53125-1.054687-2.402344 0-.027344-.570313-2.308594-.332032-2.578125.332032-.390625 1.503906 1.441407 1.6875 1.859375.539063 1.082032.660156 2.21875.71875 3.417969ZM127.820312 197.125c.695313-.777344 1.625-.929688 2.40625-1.589844 1.476563-1.257812 3.007813-1.769531 4.902344-.988281.152344.058594.300782.121094.453125.210937-.664062-.179687-1.324219-.179687-2.015625.238282-.933594.539062-1.472656 1.5-2.496094 1.980468-.960937.449219-1.863281.328126-2.828124.71875-.78125.300782-1.621094.808594-.421876-.570312Zm0 0"/>
  </g>
  <g clip-path="url(#b)">
    <path d="M242.015625 246.246094c.03125-.597656-.269531-1.257813-.242187-1.890625 0-.417969.089843-.835938.03125-1.257813-.210938-1.289062-1.171876-2.128906-2.285157-2.667968.03125 0 .058594.027343.121094.027343.691406.183594 1.382813.300781 2.074219.390625-.03125.03125 4.570312 1.648438 6.855468.179688.152344-.089844.0625-.269532-.089843-.296875-1.984375-.632813-3.429688-.300781-5.441407-.210938-2.796874.089844-5.6875-.992187-8.390624-1.769531.117187-.058594.238281-.089844.359374-.152344.121094-.027344 1.59375-.058594 3.367188-.628906 1.324219-.417969 2.527344-.929688 3.550781-1.828125.089844-.089844.058594-.238281-.0625-.238281-1.171875-.242188-2.285156-.210938-3.425781.179687-1.625.597657-2.769531 1.976563-4.421875 2.488281-1.835937-.511718-3.640625-1.082031-5.503906-1.53125.179687 0 .332031-.027343.480469-.058593 2.074218-.03125 4.480468-.238281 5.925781-1.738281.960937-1.050782 1.535156-2.609376 2.253906-3.808594.574219-.960938.632813-1.800782.480469-2.851563-.027344-.179687-.300782-.148437-.390625-.027343-1.203125 2.097656-3.277344 3.085937-5.140625 4.46875-1.714844 1.289062-2.496094 3.65625-4.753906 3.777343-1.710938-.359375-3.457032-.539062-5.203126-.421875.09375-.058594.183594-.148437.273438-.207031 2.34375-1.261719 5.203125-1.742187 5.53125-4.917969.332031-3.210937.363281-6.417968-1.773438-8.996094-.058593-.089843-.300781-.121093-.300781.058594.0625 2.609375.269531 6.027344-1.234375 8.277344-.027344.027344-5.441406-.628906-7.636718-.0625-3.578126.929688-2.4375 4.351562-4.421876 6.898438-.058593.058593-.722656.421874-1.140624.691406.691406-1.5 1.171874-2.761719 1.171874-4.320313 0-.867187-.300781-1.707031-.570312-2.519531-.183594-.507812-.363281-1.019531-.574219-1.527344.664063-1.46875 1.476563-2.757812 2.496094-3.988281.121094-.152344-.117187-.269531-.238281-.210937-.902344.417968-2.136719.449218-2.738282 1.347656-.058593.0625-.058593.152344-.121093.242187-1.230469.898438-1.683594 2.457031-1.652344 3.988281.03125 1.019532.179687 2.039063.570313 3 .421874 1.046876 1.234374 1.828126 1.746093 2.816407-.179687.511719-.390625 1.019531-.664062 1.53125-.71875 1.320312-.960938 2.25-1.171875 3.71875-1.773438 1.828125-3.21875 4.015625-4.269532 6.476562v-.871093c.148438-1.199219.449219-2.277344 1.203126-3.359376.539062-.746093.78125-1.226562.839843-2.1875.121094-1.4375-.390625-2.910156-.328125-4.378906.089844-1.949218.417969-3.925781.628906-5.875.03125-.152344-.210937-.183594-.300781-.121094-2.855469 1.886719-3.398437 4.765626-4.449219 7.828126-.390624 1.078124-.390624 2.007812.03125 3.085937.480469 1.171875 1.203126 1.710937 1.5625 3 .359376 1.320313.390626 2.519531.421876 3.839844-.179688.417969-.332032.867187-.453126 1.316406 0 0-1.625 2.21875-1.59375 2.128906.03125-.359375-.390624-1.828125-.390624-2.1875-.03125-.601562.242187-1.230469.210937-1.859375-.152344-2.609375-2.105469-5.007812-2.917969-7.4375-1.140625-3.476562-.449218-3.835937.152344-5.726562.417969-1.320313-.121094-.71875-.691406.148437-.03125 0-3.730469 3.359375-1.988282 7.769531 1.292969 3.296876 1.988282 5.515626 4.84375 7.675782v.121094c0 .238281.300782 1.648437.511719 2.1875-1.355469 2.128906-2.675781 4.226562-4.8125 5.789062-1.863281 1.347656-3.308593 1.949219-4.78125 2.488281-.269531.089844-.121093.449219.121094.449219 2.3125-.03125 4.929687-2.339844 6.496094-3.839844 1.773437-1.679687 3.066406-3.957031 4.179687-6.207031.03125 0 .839844-.628906 1.894532-.628906.601562.121093.722656.449219 2.105468 2.519531.570313.867188 1.832032 1.140625 2.496094 1.410156 1.230469.480469 2.527344 1.136719 3.847656 1.378906 1.714844.300782 3.21875-.390624 4.875.570313.117188.058594.300782-.03125.238282-.179687-1.324219-2.878907-4.300782-4.351563-7.097657-5.308594-1.683593-.570313-3.066406-.660156-4.839843-.75-1.054688-.03125-1.894532-.152344-2.707032.238281.238282-.597656 1.082032-2.609375 1.230469-2.96875 0 0 1.476563-.839844 4.183594.871094.871093.539062 2.675781.597656 3.667969.75 1.773437.269531 3.035156-.332031 4.511718-1.410157.117188-.089843 0-.210937-.089844-.238281-2.4375-.089843-4.03125-2.28125-6.589843-2.25-1.5625.03125-3.398438.570313-4.808594 1.410157-.242187.089843-.453125.207031-.664063.386718.542969-1.167968 1.144532-2.277344 1.804688-3.355468.992188-.570313 2.046875-1.019532 3.097656-1.410157 1.023438-.242187 2.347656.539063 3.007813 1.078125.210937.179688.480469.332032.722656.449219.839844.449219 1.804687.632813 2.738281.722656.898438.089844 3.003906.417969 5.171875-.8125.148438-.058593.269531-.148437.390625-.207031 1.441406.628906 3.007813.296875 4.480469.808594.058594.03125.089844-.0625.03125-.089844-1.566406-2.011719-2.46875-6.058594-5.265625-6.867188-1.59375-.449218-3.277344.449219-4.929688.179688-.121093-.03125-.242187-.03125-.363281-.058594-.058593-.03125-1.742187-.152344-2.585937.117188 1.65625-.839844 3.429687-1.4375 5.265625-1.769532.570312.0625 1.109375.242188 1.652343.359376.421876.179687.75.421874 1.171876.722656.542968.359375 1.113281.6875 1.714843.957031 1.203125.480469 2.464844.660156 3.757813.539063.183594 0 .363281-.027344.542968-.027344.121094 0 .152344-.152344.089844-.210938-.933594-.988281-2.074218-1.710937-3.429687-1.980468-.570313-.117188-1.140625-.117188-1.742188-.089844-.722656.03125-1.355469.03125-2.046875-.117188-.269531-.121094-.539062-.210937-.808594-.300781 2.375-.332031 4.839844-.210937 7.15625.328125.390626.089844.78125.210938 1.171876.300781.121093.089844.210937.179688.332031.269531 0 0 .390625.601563.632812.839844.328125.628906.238281 1.199219.328125 2.070313.0625.71875.179688 1.4375.480469 2.097656.785156 1.679687 2.378906 2.789063 2.40625 2.789063.03125.03125 0-.089844 0-.089844-.238281-1.019532.390625-1.828125.363281-2.816406 0-.660157-.332031-1.292969-.664062-1.832032-.660156-1.167968-1.832032-1.769531-2.824219-2.609375-.121094-.207031-.273437-.386719-.484375-.539062 2.679688.691406 8.722656 2.578125 9.054688 2.699219.839843.628906 1.203124 1.46875 1.234374 2.578124 0 .359376-.09375.691407-.0625 1.050782.089844 1.167968 1.535157 2.789062 1.144532 3.867187-.0625.152344.179687.269531.300781.152344.511719-.511719.75-1.019531.78125-1.800781ZM209.773438 232.8125c-.359376-1.890625-.179688-3.597656.902343-5.039062-.117187 1.050781.484375 2.21875.8125 3.148437.722657 2.011719.722657 3.898437.089844 5.757813-.480469-1.347657-1.503906-2.367188-1.804687-3.867188Zm-6.765626 8.097656c.0625-1.292968 1.023438-2.640625 1.382813-3.839844.363281-1.257812.453125-2.308593 1.265625-3.359374.601562-.777344.960938-1.167969 1.203125-.929688-.84375 2.039062-1.746094 4.230469-2.046875 6.417969-.332031 2.1875.152344 4.046875.121094 6.207031-.511719-1.679688-1.984375-2.667969-1.925782-4.496094Zm2.226563 5.15625c0-.03125 0-.058594-.03125-.058594.179687-2.070312-.328125-4.050781-.179687-6.117187.179687-2.371094 1.234374-4.589844 1.984374-6.839844.03125.121094.089844.300781.121094.480469.269532 1.410156-.453125 3.210938-.480468 4.679688-.03125 2.066406.75 4.015624-.390626 5.9375-.542968.898437-.875 1.46875-1.054687 2.007812.0625 0 .0625-.058594.03125-.089844Zm-7.25-2.007812c-.480469-1.378906-1.109375-2.910156-.660156-4.410156.242187-.75.78125-1.558594 1.261719-2.339844 0 .03125 0 .03125-.027344.0625-.390625 1.5.328125 3.085937.871094 4.4375.8125 2.007812 2.226562 3.867187 2.738281 5.96875.390625 1.585937.027343 1.976562-.03125 3.207031-2.074219-2.21875-3.277344-4.4375-4.152344-6.925781Zm12.964844 8.003906c1.773437.511719 3.847656 1.140625 5.203125 2.402344.328125.296875 2.554687 2.605468 2.496094 2.636718-.121094.089844-1.203126-.480468-2.617188-.359374-1.804688.179687-3.1875-.328126-4.871094-.960938-1.386718-.539062-2.679687-.808594-3.398437-2.335938-.300781-.601562-.992188-1.5625-1.023438-1.621093.78125.269531 2.132813.808593 2.886719 1.199219.933594.480468 1.773438 1.140624 2.738281 1.558593 1.621094.722657 3.425781.632813 4.902344 1.769531.027344.03125.089844 0 .058594-.027343-1.355469-1.261719-3.1875-1.171875-4.78125-1.921875-2.015625-.929688-3.609375-2.21875-5.746094-2.816406 1.472656-.03125 3.128906.179687 4.152344.476562Zm4.300781-4.046875c1.113281.660156 2.285156.78125 2.253906.898437-.089844.511719-2.796875 1.019532-3.457031.960938-1.023437-.058594-2.078125-.210938-3.070313-.390625-1.140624-.210937-1.863281-1.078125-2.796874-1.527344-.328126-.152343-.628907-.210937-.929688-.210937 2.675781-1.199219 5.320312-1.289063 8 .269531Zm11.007812-21.082031c.269532-1.859375-.421874-3.089844-.09375-3.777344.273438-.539062 1.445313 2.367188 1.503907 3.058594.121093 1.679687.210937 3.65625-.058594 5.308594-.421875 2.699218-2.949219 3.207031-4.933594 4.378906.84375-1.050782 1.054688-2.609375 1.503907-3.898438.722656-.273437 1.382812-.421875 2.257812-.570312.179688-.03125.148438-.210938 0-.269532-.453125-.179687-.992188-.332031-1.503906-.453124.8125-1.316407 1.113281-2.277344 1.324218-3.777344Zm-7.882812 3.71875c1.503906-.328125 3.070312-.058594 4.542969.148437 1.535156.210938 3.757812-.148437 1.144531.8125-2.40625.867188-4.183594 2.277344-6.4375 3.386719-1.59375.78125-3.066406 1.441406-4.511719 2.28125 1.804688-2.730469.8125-5.609375 5.261719-6.628906Zm-3.277344 14.035156c-.929687-.449219-1.5625-1.378906-2.527344-1.710938 2.527344-.71875 4.632813-.480468 7.128907.242188.964843.269531 4 .839844 4 .839844 0 .058594-.601563.386718-.75.449218-2.347657 1.199219-5.445313 1.320313-7.851563.179688Zm3.398438-5.457031c1.445312 0 2.496094-.691407 3.941406-.089844 2.585938 1.109375 2.976562 4.40625 4.902344 6.207031-1.292969-.421875-2.679688-.242187-3.972656-.78125.394531-.210937.753906-.417968 1.144531-.660156.210937-.117188-.03125-.296875-.179688-.296875-1.234375.117187-2.40625-.183594-3.578125-.542969-1.054687-.628906-1.292968-2.15625-2.015625-3.117187-.210937-.300781-.480469-.570313-.78125-.78125.148438.0625.328125.0625.539063.0625Zm-4.628906 0c1.53125-.539063 2.375-.359375 3.246093-.179688.359375.269531.75.507813 1.082031.808594.632813.628906.902344 1.527344 1.414063 2.25.242187.328125.511719.628906.8125.867187-1.65625-.539062-3.308594-1.167968-5.054687-.988281-1.863282.179688-3.398438.808594-3.398438.839844-1.171875-.058594-2.496094.597656-3.515625 1.289063.992187-1.410157 2.164063-2.730469 3.609375-3.808594.539062-.417969 1.683594-1.050782 1.804688-1.078125Zm-4.03125 2.667969c.359374-1.078126.902343-2.1875 1.414062-3.300782 2.34375-1.46875 4.871094-2.425781 7.277344-3.746094 1.925781-1.050781 3.519531-2.101562 5.414062-2.789062-.601562 1.5-.691406 3.359375-2.167968 4.316406 0 0 0 .03125-.027344.03125-4.78125.421875-8.8125 2.398438-11.910156 5.488282Zm20.871093-6.507813c.570313-.871094.660157-1.230469 1.503907-1.890625.480468-.359375 1.050781-.539062 1.503906-.867188.660156-.480468 1.234375-1.050781 1.894531-1.558593.242187-.210938 1.773437-1.621094 1.59375-1.859375.570313.867187-1.292969 3.058594-1.535156 3.566406-.871094 1.710938-1.414063 2.878906-3.398438 3.480469-.902343.269531-2.011719.449219-3.066406.386719.390625-.238282 1.171875-.71875 1.503906-1.257813Zm1.773438 7.945313c-.539063-.746094-.449219-1.738282-.8125-2.578126-.179688-.449218-.417969-.867187-.691407-1.289062.511719.359375 1.023438.75 1.382813 1.289062.722656 1.140626.664063 2.011719.511719 3.269532-.058594.570312-.089844.808594.0625 1.257812-1.65625-1.707031-2.074219-3.238281-2.40625-5.605468-.03125-.152344-.0625-.269532-.089844-.390626.480469.78125 1.019531 1.46875 1.261719 2.398438.152343.660156.179687 1.289062.78125 1.648438 0 .03125 0 0 0 0Zm6.828125-7.195313c.359375-.089844 2.042968-.269531 1.984375.121094-.058594.296875-1.742188 1.078125-1.773438 1.078125-.632812.269531-1.324219.421875-1.984375.539062-.664062.089844-1.476562.390625-2.257812.539063.542968-.296875 1.023437-.628907 1.535156-1.019531.75-.566407 1.535156-1.046876 2.496094-1.257813Zm1.773437 10.464844c-.238281-.777344-.75-1.257813-.960937-2.066407-.210938-.839843.089844-1.652343-.03125-2.492187C240 241.417969 239.667969 241 239.25 240.699219c.117188.058593.238281.121093.359375.179687 1.414063.78125 1.863281 1.980469 1.835937 3.507813-.03125.808593.359376 1.441406.207032 2.25-.300782 1.378906-.390625.597656-.570313-.03125Zm0 0"/>
  </g>
  <g clip-path="url(#c)">
    <path d="M195.25 126.054688c.78125-1.289063 1.230469-2.699219 1.351562-4.109376 1.355469 3.898438 1.082032 8.335938-1.203124 12.175782-4.089844 6.898437-12.992188 9.175781-19.878907 5.128906-6.917969-4.050781-9.203125-12.957031-5.140625-19.824219 2.253906-3.835937 6.011719-6.234375 10.105469-6.925781-1.175781.808594-2.167969 1.890625-2.949219 3.179688-2.886718 4.886718-1.261718 11.15625 3.640625 14.035156 4.902344 2.847656 11.1875 1.226562 14.074219-3.660156Zm0 0"/>
  </g>
  <path d="m211.097656 142.578125-1.53125-2.640625-3.097656.152344 2.644531-1.46875-.148437-3.148438 1.742187 2.605469 2.886719-.117187-2.554688 1.589843Zm-52.058594 30.019531-1.503906-2.609375-3.128906.117188 2.648438-1.46875-.152344-3.148438 1.746094 2.609375 2.886718-.121094-2.527344 1.621094Zm53.625 26.269532-1.535156-2.640626-3.097656.148438 2.644531-1.46875-.179687-3.148438 1.773437 2.609376 2.890625-.121094-2.558594 1.621094Zm-.273437-31.160157c0 .136719-.023437.265625-.078125.390625-.050781.125-.125.234375-.21875.332032-.097656.09375-.207031.167968-.332031.21875-.125.054687-.257813.078124-.390625.078124-.136719 0-.269532-.023437-.394532-.078124-.125-.050782-.234374-.125-.332031-.21875-.09375-.097657-.167969-.207032-.21875-.332032-.054687-.125-.078125-.253906-.078125-.390625 0-.132812.023438-.265625.078125-.390625.050781-.125.125-.234375.21875-.328125.097657-.097656.207031-.171875.332031-.222656.125-.050781.257813-.078125.394532-.078125.132812 0 .265625.027344.390625.078125s.234375.125.332031.222656c.09375.09375.167969.203125.21875.328125.054688.125.078125.257813.078125.390625Zm2.226563 44.351563c0 .136718-.027344.265625-.078126.390625-.050781.125-.125.234375-.222656.332031-.09375.09375-.207031.167969-.332031.222656-.125.050782-.253906.074219-.390625.074219-.132812 0-.265625-.023437-.390625-.074219-.125-.054687-.234375-.128906-.332031-.222656-.09375-.097656-.167969-.207031-.222656-.332031-.050782-.125-.078126-.253907-.078126-.390625 0-.132813.027344-.265625.078126-.386719.054687-.125.128906-.238281.222656-.332031.097656-.097656.207031-.167969.332031-.222656.125-.050782.257813-.078126.390625-.078126.136719 0 .265625.027344.390625.078126.125.050781.238281.125.332031.222656.097656.09375.171875.207031.222656.332031.050782.121094.078126.253906.078126.386719Zm12.058593-32.746094c0 .136719-.023437.265625-.078125.390625-.050781.125-.125.234375-.21875.332031-.097656.09375-.207031.167969-.332031.21875-.125.054688-.257813.078125-.390625.078125-.136719 0-.269531-.023437-.394531-.078125-.125-.050781-.234375-.125-.332031-.21875-.09375-.097656-.167969-.207031-.21875-.332031-.054688-.125-.078126-.253906-.078126-.390625 0-.132812.023438-.265625.078126-.390625.050781-.125.125-.234375.21875-.328125.097656-.097656.207031-.171875.332031-.222656.125-.050782.257812-.078125.394531-.078125.132812 0 .265625.027343.390625.078125.125.050781.234375.125.332031.222656.09375.09375.167969.203125.21875.328125.054688.125.078125.257813.078125.390625Zm-65.140625-26.269531c0 .136719-.023437.265625-.078125.390625-.050781.125-.125.234375-.222656.332031-.09375.09375-.203125.167969-.328125.21875-.128906.054687-.257812.078125-.394531.078125-.132813 0-.265625-.023438-.390625-.078125-.125-.050781-.234375-.125-.332032-.21875-.09375-.097656-.167968-.207031-.21875-.332031-.054687-.125-.078124-.253906-.078124-.390625 0-.132813.023437-.265625.078124-.390625.050782-.125.125-.234375.21875-.328125.097657-.097657.207032-.171875.332032-.222657.125-.050781.257812-.078124.390625-.078124.136719 0 .265625.027343.394531.078124.125.050782.234375.125.328125.222657.097656.09375.171875.203125.222656.328125.054688.125.078125.257812.078125.390625Zm-14.585937 21.683593c0 .132813-.027344.265626-.078125.390626-.050782.121093-.125.234374-.222656.328124-.09375.097657-.203126.171876-.328126.222657-.128906.050781-.257812.078125-.394531.078125-.132812 0-.265625-.027344-.390625-.078125s-.234375-.125-.332031-.222657c-.09375-.09375-.167969-.207031-.222656-.328124-.050781-.125-.074219-.257813-.074219-.390626 0-.136718.023438-.265624.074219-.390624.054687-.125.128906-.234376.222656-.332032.097656-.09375.207031-.167968.332031-.222656.125-.050781.257813-.074219.390625-.074219.136719 0 .265625.023438.394531.074219.125.054688.234376.128906.328126.222656.097656.097656.171874.207032.222656.332032.050781.125.078125.253906.078125.390624Zm0 0"/>
</svg>
