<svg width="199" height="20" viewBox="0 0 199 20" fill="none" xmlns="http://www.w3.org/2000/svg">
<path d="M83.0313 7.68231C83.0938 7.76564 83.1094 7.85939 83.0781 7.95835L82.7084 9.03647C82.6667 9.15106 82.6927 9.25522 82.7813 9.34376C82.8698 9.43231 82.974 9.45314 83.0938 9.41668L84.1875 9.04689C84.2865 9.01043 84.3802 9.02606 84.4636 9.08856L85.3906 9.76564C85.4948 9.83856 85.599 9.84897 85.7084 9.79168C85.8229 9.73439 85.875 9.64585 85.875 9.52085L85.8594 8.38022C85.8542 8.27606 85.8959 8.19272 85.9844 8.13022L86.9271 7.46876C87.0261 7.40106 87.0677 7.3021 87.0469 7.1771C87.0261 7.05731 86.9583 6.97918 86.8386 6.94272L85.7292 6.60418C85.625 6.57293 85.5625 6.51043 85.5261 6.41147L85.1823 5.31251C85.1458 5.19272 85.0625 5.12501 84.9375 5.10418C84.8125 5.08856 84.7136 5.13022 84.6459 5.23439L83.9792 6.16147C83.9167 6.25001 83.8333 6.29168 83.7292 6.29168H82.5729C82.4479 6.29168 82.3594 6.34376 82.3021 6.45835C82.2448 6.56772 82.2552 6.67189 82.3281 6.77085L83.0313 7.68231Z" fill="white"/>
<path d="M67.7604 15.8229L66.6511 15.4896C66.5521 15.4583 66.4844 15.3906 66.4531 15.2917L66.1042 14.1979C66.0677 14.0781 65.9844 14.0104 65.8646 13.9948C65.7396 13.974 65.6406 14.0156 65.5677 14.1146L64.9063 15.0469C64.8438 15.1354 64.7604 15.1771 64.6511 15.1771H63.5C63.375 15.1771 63.2813 15.2292 63.224 15.3438C63.1719 15.4531 63.1771 15.5573 63.2552 15.6563L63.9479 16.5677C64.0104 16.651 64.0261 16.7396 63.9948 16.8385L63.625 17.9375C63.5833 18.0521 63.6094 18.1563 63.6979 18.2396C63.7917 18.3281 63.8958 18.3542 64.0104 18.3125L65.1042 17.9427C65.2031 17.9063 65.2969 17.9219 65.3802 17.9896L66.3125 18.6667C66.4115 18.7396 66.5208 18.75 66.6302 18.6927C66.7448 18.6354 66.7969 18.5417 66.7917 18.4219L66.7761 17.2813C66.7761 17.1771 66.8177 17.0938 66.9063 17.0313L67.8438 16.3698C67.9584 16.3021 68.0104 16.1979 67.9896 16.0677C67.9688 15.9375 67.8906 15.8542 67.7604 15.8229Z" fill="white"/>
<path d="M60.4219 14.0156L59.8385 13.8438C59.7865 13.8229 59.75 13.7917 59.7344 13.7396L59.5469 13.1615C59.5261 13.1042 59.4844 13.0729 59.4219 13.0625C59.3594 13.0521 59.3125 13.0729 59.2708 13.1198L58.9219 13.6146C58.8906 13.6563 58.8438 13.6823 58.7865 13.6823H58.1771C58.1146 13.6823 58.0677 13.7135 58.0365 13.7708C58.0052 13.8281 58.0104 13.8802 58.0469 13.9375L58.4167 14.4167C58.4479 14.4583 58.4583 14.5104 58.4375 14.5625L58.2448 15.1302C58.224 15.1927 58.2344 15.25 58.2813 15.2969C58.3333 15.3438 58.3854 15.3542 58.4531 15.3333L59.026 15.1354C59.0781 15.1198 59.1302 15.125 59.1771 15.1615L59.6667 15.5156C59.7188 15.5573 59.776 15.5625 59.8333 15.5313C59.8958 15.5052 59.9219 15.4531 59.9219 15.3906V14.7865C59.9219 14.7344 59.9427 14.6875 59.9896 14.6563L60.4844 14.3073C60.5469 14.2656 60.5729 14.2135 60.5573 14.1406C60.5365 14.0677 60.4948 14.026 60.4219 14.0156Z" fill="white"/>
<path d="M77.474 8.21355C77.5052 8.26042 77.5156 8.3073 77.5 8.35938L77.3021 8.9323C77.2865 8.9948 77.2969 9.04688 77.3438 9.09375C77.3906 9.14063 77.4427 9.15105 77.5052 9.13542L78.0885 8.9375C78.1406 8.92188 78.1875 8.92709 78.2344 8.95834L78.724 9.31771C78.7761 9.35938 78.8333 9.36459 78.8906 9.33334C78.9531 9.30209 78.9792 9.25521 78.9792 9.19271V8.58855C78.9792 8.53125 79 8.48959 79.0469 8.45834L79.5469 8.10417C79.5938 8.06771 79.6146 8.01563 79.6042 7.95834C79.5938 7.89584 79.5573 7.85417 79.5 7.83334L78.9167 7.65625C78.8594 7.64063 78.8281 7.60417 78.8125 7.55209L78.625 6.97396C78.6042 6.91667 78.5625 6.88542 78.5 6.875C78.4375 6.86459 78.3906 6.88542 78.349 6.9323L78 7.42709C77.9688 7.46875 77.9219 7.4948 77.8646 7.4948H77.2552C77.1927 7.4948 77.1458 7.52084 77.1146 7.57813C77.0833 7.63542 77.0885 7.69271 77.125 7.7448L77.474 8.21355Z" fill="white"/>
<path d="M194.802 11.4844C187.526 11.1198 180.229 10.9375 172.906 10.9375H171.927C172.62 10.2396 173.219 9.47395 173.724 8.64062C173.016 9.5 172.214 10.2656 171.323 10.9375H152.276C151.542 10.6615 150.807 10.4062 150.057 10.1615C147.214 9.2552 144.234 8.57291 141.182 8.44791C139.635 8.39583 138.104 8.51041 136.583 8.79166C135.073 9.08854 133.615 9.54687 132.203 10.1615C131.615 10.4115 131.036 10.6719 130.458 10.9323H108.583C108.609 10.7083 108.63 10.4792 108.641 10.2448C108.641 10.125 108.641 10 108.641 9.875V9.82812C108.641 9.64583 108.641 9.46875 108.625 9.29687C108.625 9.28125 108.625 9.27083 108.625 9.26041C108.625 9.14062 108.609 9.01562 108.599 8.89062C108.599 8.84374 108.583 8.79687 108.578 8.74479C108.464 7.80208 108.208 6.89583 107.813 6.03125C107.411 5.16666 106.891 4.3802 106.245 3.67708C105.599 2.96875 104.865 2.375 104.031 1.89583C103.203 1.41666 102.318 1.07291 101.375 0.864578C100.438 0.651036 99.4844 0.588537 98.5261 0.67187C97.5677 0.749996 96.6406 0.973954 95.7552 1.33854C94.8646 1.70312 94.0521 2.1927 93.3177 2.80729C92.5781 3.42187 91.9531 4.1302 91.4427 4.93229C91.3802 5.03125 91.3177 5.1302 91.2604 5.23437C90.6198 6.3177 90.2292 7.48437 90.0781 8.73437C90.0625 8.90625 90.0417 9.07812 90.0313 9.25C90.0313 9.25 90.0313 9.27083 90.0313 9.28125C90.0313 9.46354 90.0156 9.64062 90.0156 9.83333V9.84895C90.0156 9.98437 90.0156 10.125 90.0156 10.25C90.0156 10.4271 90.0365 10.599 90.0521 10.776C90.0521 10.8281 90.0677 10.8802 90.0729 10.9375H68.2083C67.6354 10.6615 67.0573 10.4115 66.4636 10.1615C65.0573 9.55208 63.5938 9.09375 62.0886 8.79166C60.5677 8.51041 59.0365 8.40104 57.4896 8.45312C54.4219 8.57812 51.4479 9.26041 48.6146 10.1667C47.8646 10.4115 47.1302 10.6667 46.3906 10.9375H27.3438C26.4531 10.2656 25.6511 9.5 24.9427 8.64062C25.4479 9.47916 26.0469 10.2448 26.7396 10.9375H25.7604C18.4479 10.9375 11.1511 11.125 3.86459 11.4896L0.177094 11.6771L3.86459 11.8646C11.1406 12.2292 18.4375 12.4115 25.7604 12.4115H28.474C30.7708 14.0885 33.349 15 36.2083 15.1458C37.7604 15.2187 39.2813 15.0521 40.7813 14.6458C42.2188 14.25 43.6354 13.7865 45.0261 13.25C45.8386 12.9583 46.6511 12.6771 47.4688 12.4115H67.2083C68.0677 12.7708 68.9375 13.1458 69.8281 13.5052C71.2188 14.0729 72.6511 14.5365 74.1094 14.901C77.0729 15.6927 80.0677 15.8594 83.099 15.4115C85.724 15.0052 88.0834 14 90.1875 12.401H90.3906C90.6719 13.3542 91.1042 14.2396 91.6771 15.0573C92.25 15.875 92.9427 16.5833 93.7448 17.1771C94.5521 17.776 95.4323 18.2292 96.3906 18.5417C97.3438 18.8594 98.3281 19.0156 99.3333 19.0156C100.344 19.0156 101.323 18.8594 102.281 18.5417C103.234 18.2292 104.115 17.776 104.922 17.1771C105.729 16.5833 106.417 15.875 106.995 15.0573C107.568 14.2396 107.995 13.3542 108.281 12.401H108.484C110.589 14 112.948 15.0052 115.573 15.4115C118.604 15.8594 121.599 15.6927 124.563 14.901C126.026 14.5365 127.453 14.0729 128.844 13.5052C129.734 13.151 130.604 12.776 131.464 12.4115H151.203C152.021 12.6771 152.833 12.9531 153.641 13.25C155.031 13.7865 156.448 14.25 157.891 14.6458C159.385 15.0521 160.911 15.2187 162.464 15.1458C165.318 15 167.896 14.0885 170.198 12.4115H172.906C180.224 12.4115 187.521 12.2292 194.802 11.8646L198.495 11.6771L194.802 11.4844ZM135.911 10.8437L136.932 10.625C138.313 10.3802 139.708 10.2865 141.109 10.349C142.672 10.4062 144.219 10.599 145.745 10.9219H135.573C135.688 10.901 135.797 10.8698 135.911 10.8437ZM57.5573 10.3594C58.9583 10.2969 60.3542 10.3854 61.7344 10.6302L62.7552 10.849C62.8698 10.875 62.9792 10.9115 63.0938 10.9375H52.9219C54.4479 10.6146 55.9948 10.4167 57.5573 10.3594ZM42.3802 12.4896C41.7083 12.7656 41.0417 13 40.3646 13.2135C37.599 14.1146 34.8281 14.151 32.0417 13.3125C31.25 13.0781 30.4844 12.7812 29.7396 12.4167H42.5625L42.3802 12.4896ZM82.9844 14.4844C81.5521 14.6042 80.125 14.5625 78.7031 14.3698C77.9948 14.2708 77.2917 14.1562 76.5886 14.0052C75.8906 13.8594 75.2031 13.6719 74.5156 13.4583C73.8281 13.25 73.1511 13.0156 72.4844 12.7656C72.1771 12.6458 71.8698 12.526 71.5677 12.4062H89.875C87.7344 13.6094 85.4375 14.3021 82.9844 14.4844ZM93.6094 10.3437C93.375 10.3437 93.1719 10.2656 93.0052 10.099C92.8386 9.93749 92.7552 9.73958 92.7552 9.5052C92.7552 9.27083 92.8386 9.07291 93.0052 8.91145C93.1719 8.74479 93.375 8.66666 93.6094 8.66666C93.8438 8.66666 94.0417 8.74479 94.2083 8.91145C94.375 9.07291 94.4583 9.27083 94.4583 9.5052C94.4636 9.73958 94.3802 9.9375 94.2136 10.1042C94.0469 10.2656 93.8438 10.349 93.6094 10.349V10.3437ZM96.1458 15.5208C95.8281 15.5208 95.5625 15.4115 95.3386 15.1927C95.1146 14.974 95.0052 14.7083 95.0052 14.401C95.0052 14.0885 95.1198 13.8229 95.3386 13.6042C95.5625 13.3854 95.8333 13.276 96.1458 13.276C96.4583 13.276 96.7292 13.3906 96.9479 13.6094C97.1719 13.8281 97.2813 14.0937 97.2813 14.401C97.2813 14.7135 97.1719 14.9792 96.9479 15.1979C96.724 15.4167 96.4583 15.526 96.1458 15.526V15.5208ZM97.2813 6.02083C97.0261 6.02083 96.8073 5.93229 96.625 5.7552C96.4479 5.57291 96.3594 5.35937 96.3594 5.10937C96.3594 4.85937 96.4479 4.64062 96.625 4.46354C96.8073 4.28645 97.0261 4.19791 97.2813 4.19791C97.5365 4.19791 97.7552 4.28645 97.9323 4.46354C98.1146 4.64062 98.2031 4.85937 98.2031 5.10937C98.2031 5.35937 98.1146 5.57812 97.9323 5.7552C97.7552 5.93229 97.5365 6.02083 97.2813 6.02083ZM99.5469 10.9219C99.2344 10.9219 98.9636 10.8177 98.7396 10.5937C98.5208 10.375 98.4063 10.1146 98.4063 9.80208C98.4063 9.48958 98.5156 9.22916 98.7396 9.0052C98.9636 8.78645 99.2292 8.67708 99.5469 8.67708C99.8594 8.67708 100.13 8.78646 100.349 9.01041C100.573 9.22916 100.682 9.49479 100.682 9.80208C100.682 10.1146 100.573 10.375 100.349 10.5937C100.125 10.8125 99.8594 10.9219 99.5469 10.9219ZM102.599 15.6094C102.406 15.6094 102.245 15.5469 102.109 15.4115C101.974 15.2812 101.906 15.1198 101.906 14.9323C101.906 14.7396 101.974 14.5781 102.109 14.4479C102.24 14.3125 102.406 14.2448 102.594 14.2448C102.786 14.25 102.948 14.3125 103.083 14.4479C103.219 14.5833 103.286 14.7448 103.286 14.9323C103.281 15.1146 103.214 15.2708 103.083 15.401C102.953 15.5312 102.792 15.5937 102.604 15.599L102.599 15.6094ZM102.599 6.48437C102.406 6.48437 102.245 6.42187 102.109 6.28645C101.974 6.15625 101.906 5.99479 101.906 5.80729C101.906 5.61458 101.974 5.45312 102.109 5.32291C102.24 5.18749 102.406 5.11979 102.594 5.11979C102.786 5.125 102.948 5.18749 103.083 5.32291C103.219 5.45833 103.286 5.61979 103.286 5.80729C103.281 5.98958 103.214 6.14583 103.083 6.27604C102.953 6.40625 102.792 6.46874 102.604 6.47395L102.599 6.48437ZM126.177 12.7812C125.505 13.0365 124.828 13.2708 124.141 13.4792C123.458 13.6823 122.755 13.8646 122.068 14.026C121.38 14.1823 120.661 14.2969 119.958 14.3906C118.542 14.5781 117.12 14.6042 115.698 14.4844C113.25 14.3021 110.958 13.6094 108.818 12.4115H127.125C126.792 12.5365 126.49 12.6562 126.182 12.7708L126.177 12.7812ZM166.604 13.3281C163.823 14.1667 161.052 14.1302 158.297 13.2292C157.62 13.0208 156.948 12.776 156.276 12.5104L156.083 12.4323H168.901C168.161 12.7917 167.401 13.0833 166.609 13.3125L166.604 13.3281Z" fill="white"/>
<path d="M111.74 7.47396L112.682 8.13542C112.766 8.19792 112.807 8.27605 112.807 8.38542L112.786 9.52605C112.786 9.64584 112.844 9.73959 112.953 9.79688C113.062 9.84896 113.172 9.84375 113.271 9.77084L114.203 9.08855C114.286 9.02605 114.38 9.01563 114.479 9.04688L115.573 9.41667C115.688 9.45834 115.792 9.4323 115.88 9.34375C115.969 9.25521 115.995 9.15626 115.958 9.03646L115.589 7.95834C115.557 7.85938 115.573 7.77084 115.63 7.6823L116.328 6.77084C116.401 6.67188 116.411 6.56771 116.354 6.45834C116.297 6.34896 116.208 6.29167 116.083 6.29167H114.927C114.823 6.29688 114.734 6.25001 114.677 6.16667L114.01 5.23438C113.943 5.13021 113.844 5.08855 113.719 5.10938C113.594 5.13021 113.51 5.19792 113.474 5.31771L113.125 6.41146C113.094 6.51042 113.026 6.57813 112.927 6.60938L111.818 6.94271C111.698 6.98438 111.63 7.0625 111.615 7.1823C111.594 7.3073 111.635 7.40105 111.74 7.47396Z" fill="white"/>
<path d="M135.167 15.1719H134.01C133.906 15.1719 133.823 15.1302 133.76 15.0417L133.094 14.1094C133.021 14.0104 132.927 13.9688 132.802 13.9896C132.677 14.0052 132.594 14.0729 132.557 14.1927L132.208 15.2865C132.177 15.3854 132.115 15.4531 132.01 15.4844L130.901 15.8177C130.781 15.8542 130.714 15.9323 130.693 16.0573C130.672 16.1771 130.708 16.2761 130.813 16.349L131.755 17.0104C131.844 17.0677 131.885 17.1511 131.88 17.2604L131.865 18.3958C131.859 18.5208 131.917 18.6146 132.026 18.6719C132.141 18.7292 132.245 18.7188 132.349 18.6458L133.276 17.9636C133.359 17.9011 133.453 17.8854 133.552 17.9219L134.646 18.2917C134.766 18.3281 134.87 18.3073 134.958 18.2188C135.047 18.1354 135.073 18.0313 135.036 17.9115L134.667 16.8177C134.635 16.7188 134.651 16.6302 134.708 16.5417L135.401 15.6354C135.469 15.5365 135.474 15.4375 135.422 15.3333C135.37 15.2292 135.281 15.1771 135.167 15.1719Z" fill="white"/>
<path d="M140.495 13.6615H139.885C139.828 13.6615 139.786 13.6406 139.755 13.5938L139.401 13.099C139.365 13.0521 139.313 13.0313 139.25 13.0417C139.188 13.0521 139.146 13.0833 139.125 13.1458L138.943 13.7188C138.927 13.7708 138.891 13.8073 138.839 13.8229L138.255 14C138.198 14.0208 138.161 14.0573 138.151 14.1198C138.141 14.1823 138.156 14.2344 138.208 14.2708L138.708 14.6198C138.75 14.651 138.776 14.6979 138.776 14.75V15.3542C138.776 15.4167 138.802 15.4635 138.859 15.4948C138.922 15.526 138.974 15.5208 139.031 15.4844L139.521 15.125C139.563 15.0938 139.615 15.0833 139.667 15.099L140.245 15.2969C140.307 15.3229 140.365 15.3073 140.411 15.2604C140.458 15.2136 140.474 15.1615 140.448 15.0938L140.255 14.5261C140.234 14.474 140.245 14.4271 140.281 14.3802L140.646 13.9011C140.677 13.8438 140.672 13.7917 140.641 13.7396C140.609 13.6823 140.557 13.6615 140.495 13.6615Z" fill="white"/>
<path d="M119.63 8.45835C119.677 8.49481 119.698 8.53647 119.698 8.58856V9.19272C119.698 9.26043 119.729 9.30731 119.786 9.33856C119.849 9.3646 119.901 9.35939 119.958 9.32293L120.443 8.96356C120.49 8.93231 120.536 8.92189 120.594 8.94272L121.172 9.13543C121.234 9.15627 121.286 9.14064 121.333 9.09897C121.38 9.0521 121.396 9.00001 121.375 8.93751L121.177 8.3646C121.161 8.31251 121.172 8.26043 121.203 8.21876L121.573 7.73439C121.609 7.68231 121.615 7.63022 121.583 7.57293C121.552 7.51564 121.505 7.48439 121.443 7.48439H120.828C120.776 7.48439 120.729 7.46355 120.698 7.42189L120.349 6.9271C120.307 6.88022 120.26 6.85939 120.198 6.8646C120.135 6.87501 120.094 6.91147 120.068 6.96876L119.885 7.54168C119.87 7.59376 119.833 7.63022 119.781 7.64585L119.198 7.82293C119.141 7.84376 119.104 7.88543 119.094 7.94793C119.083 8.01043 119.104 8.0573 119.151 8.09897L119.63 8.45835Z" fill="white"/>
</svg>
